<svg width="171" height="32" viewBox="0 0 171 32" fill="none" xmlns="http://www.w3.org/2000/svg">
<g clip-path="url(#clip0_30_3309)">
<path d="M22.4831 13.6018C26.6008 10.2357 35.0102 -1.8938 21.8451 0.253536C16.1035 1.12407 7.69399 6.69555 6.0121 13.1376C5.14216 11.3964 4.15622 9.77147 3.11229 8.14645C1.48839 5.94108 -0.309489 7.68217 1.4304 9.88754C6.58803 16.1363 9.56169 23.9017 9.89785 31.9993C10.3038 28.1109 9.66587 23.3519 8.09996 18.709C8.85392 18.9411 9.72386 19.0573 10.4778 19.0573C13.1456 23.468 17.2634 27.2403 21.8451 28.9814C26.0788 30.6644 31.7044 29.6779 29.3846 22.8876C28.1667 19.1733 25.3249 15.9233 22.4831 13.6018ZM23.063 1.82052C30.3706 1.00801 22.541 10.1197 19.9892 11.8027C17.6114 10.2357 14.5956 8.84288 11.6957 9.24914C13.7835 6.52144 18.8873 2.34283 23.063 1.82052ZM11.6377 11.2224C13.6096 11.0483 15.7554 12.151 17.4374 13.3117C15.8134 14.1241 14.0736 14.5884 12.2757 14.7626C9.60786 14.7626 9.02791 11.4545 11.6377 11.2224ZM21.7291 25.3832C18.3073 24.3966 15.0596 21.6109 12.7396 18.8251C14.6535 18.4189 16.5674 17.6644 18.3073 16.6197C18.9453 16.3296 19.5832 15.8653 20.1632 15.459C22.1931 17.3161 24.3389 19.8117 25.1508 22.6554C25.9628 25.7314 23.759 25.9636 21.7291 25.3832Z" fill="#FFAF2C"/>
<path d="M50.4955 5.94092H40.5202C40.1723 5.94092 39.8822 6.2311 39.8822 6.57932H39.8242V22.249C39.8242 22.5973 40.1142 22.8874 40.4622 22.8874C40.7522 22.8874 41.0422 22.5973 41.1001 22.249V15.1687H49.5676C49.9156 15.1687 50.0895 14.8784 50.0895 14.5883C50.0895 14.2401 49.8576 14.066 49.5676 14.066H41.0422V7.15968H50.4955C50.8435 7.15968 51.0175 6.8695 51.0175 6.57932C51.0175 6.40521 50.8435 6.17306 50.4955 5.94092ZM55.0772 5.12842H55.0193C54.7293 5.12842 54.5553 5.36056 54.5553 5.65075V22.191C54.5553 22.5393 54.7873 22.7714 55.0772 22.7714C55.4252 22.7714 55.5992 22.4813 55.5992 22.191V5.76682C55.5992 5.36056 55.4252 5.12842 55.0772 5.12842ZM69.5183 11.0481C69.5183 10.6999 69.2863 10.4677 68.9964 10.4677C68.6483 10.4677 68.4744 10.7579 68.4744 11.0481V17.9544C68.4744 20.2759 66.6765 22.133 64.4726 22.075C62.1528 22.075 60.8189 20.45 60.8189 17.8964V11.0481C60.8189 10.6999 60.5869 10.4677 60.297 10.4677C60.065 10.4677 59.7749 10.7579 59.7749 11.0481V18.0704C59.7749 20.9723 61.5148 23.1196 64.3566 23.1196C66.0965 23.1777 67.7205 22.191 68.5324 20.566V22.3652C68.5324 22.7133 68.8224 22.8874 69.0544 22.8874C69.4023 22.8874 69.5763 22.5973 69.5763 22.3652H69.5183V11.0481ZM79.0877 11.6284C79.3197 11.6284 79.6096 11.3963 79.6096 11.1061C79.6096 10.874 79.3197 10.5838 79.0877 10.5838H75.4339V7.15968C75.4339 6.8695 75.144 6.57932 74.912 6.57932H74.854C74.5639 6.57932 74.39 6.8695 74.39 7.15968V10.5838H73.1141C72.8241 10.5838 72.5921 10.7579 72.5921 11.0481C72.5921 11.3383 72.8241 11.6284 73.1141 11.6284H74.39V19.6374C74.39 21.9009 75.84 23.0036 77.5218 23.0036C78.1017 23.0036 78.6818 22.8875 79.2037 22.7134C79.3776 22.5973 79.5517 22.4232 79.5517 22.191C79.5517 21.9009 79.3197 21.7267 79.0877 21.7267C78.6818 21.8429 78.2178 21.9009 77.7538 21.9009C76.3619 21.9009 75.4339 21.2624 75.4339 19.5214V11.6284H79.0877ZM88.0772 11.6284C88.3671 11.6284 88.5991 11.3963 88.5991 11.1061C88.5991 10.874 88.3671 10.5838 88.0772 10.5838H84.4233V7.15968C84.4233 6.8695 84.1913 6.57932 83.9014 6.57932H83.8434C83.5534 6.57932 83.3794 6.8695 83.3794 7.15968V10.5838H82.1035C81.8715 10.5838 81.5815 10.7579 81.5815 11.0481C81.5815 11.3383 81.8715 11.6284 82.1035 11.6284H83.3794V19.6374C83.3794 21.9009 84.8293 23.0036 86.5692 23.0036C87.0912 23.0036 87.6711 22.8875 88.1931 22.7134C88.4251 22.5973 88.541 22.4232 88.541 22.191C88.541 21.9009 88.3671 21.7267 88.0772 21.7267C87.6711 21.8429 87.2072 21.9009 86.7432 21.9009C85.3513 21.9009 84.4233 21.2624 84.4233 19.5214V11.6284H88.0772ZM96.0226 10.2356C92.9488 10.2356 90.629 13.0213 90.629 16.6776V16.7356C90.629 20.624 93.1808 23.1777 96.2546 23.1777C97.8785 23.2357 99.5604 22.5393 100.662 21.2044C100.836 21.0883 100.894 20.9143 100.894 20.7982C100.894 20.508 100.604 20.2178 100.372 20.2178L100.024 20.3339C99.5642 20.8706 98.9954 21.3035 98.3555 21.6036C97.7155 21.9038 97.0192 22.0645 96.3126 22.075C94.0507 22.075 92.0209 20.2759 91.7889 17.258H100.836C101.068 17.258 101.358 16.9677 101.358 16.6776C101.358 13.0213 99.2703 10.2356 96.0226 10.2356ZM91.7309 16.0973C91.9049 13.4276 93.7028 11.3383 95.9647 11.3383C98.5745 11.3383 99.9663 13.6017 100.082 16.0973H91.7309ZM110.232 10.4097C108.144 10.5838 106.404 12.0347 105.65 14.124V11.1061C105.65 10.874 105.36 10.5838 105.128 10.5838C104.78 10.5838 104.606 10.7579 104.548 11.1061V22.4812C104.548 22.7714 104.78 23.0616 105.07 23.0616C105.36 23.0616 105.592 22.8294 105.65 22.4812V17.9544C105.65 13.9499 107.796 12.0347 110.232 11.7446H110.29C110.637 11.7446 110.811 11.3963 110.811 11.1061C110.811 10.6999 110.58 10.4097 110.232 10.4097Z" fill="black"/>
<path d="M129.776 9.7715C129.021 9.7715 128.325 10.3519 128.151 11.1644L126.18 17.7805L124.265 11.1644C124.091 10.3519 123.337 9.71346 122.468 9.71346H122.294C121.424 9.71346 120.67 10.2358 120.496 11.1644L118.582 17.6644L116.726 11.1064C116.494 10.3519 115.856 9.71346 115.044 9.71346H114.987C114.116 9.71346 113.479 10.4679 113.479 11.3965L113.595 12.2671L116.553 21.3787C116.784 22.3073 117.538 22.9457 118.466 23.0037H118.582C119.452 23.0037 120.148 22.3654 120.438 21.4368L122.352 14.9367L124.265 21.4368C124.498 22.3654 125.252 23.0037 126.121 23.0037H126.295C127.223 23.0037 127.977 22.3654 128.21 21.3787L131.167 12.151L131.341 11.4545V11.3965C131.341 10.4679 130.645 9.7715 129.776 9.7715ZM138.301 9.7715C136.967 9.71346 135.691 10.0037 134.415 10.4099C133.893 10.642 133.603 11.1644 133.603 11.8028C133.603 12.6734 134.241 13.3117 135.053 13.2537C135.169 13.2537 135.343 13.2537 135.517 13.1376C136.271 12.9055 137.083 12.7894 137.895 12.7894C139.634 12.7894 140.505 13.6019 140.505 15.1688V15.343C139.577 14.9948 138.533 14.8787 137.547 14.8787C134.705 14.8787 132.733 16.2135 132.733 19.0573C132.733 21.5528 134.647 23.0037 136.85 23.0037C138.242 23.0618 139.577 22.4234 140.505 21.3787C140.562 22.3073 141.259 22.9457 142.128 22.9457C143.056 22.9457 143.81 22.1332 143.81 21.1465V15.343C143.869 13.8921 143.405 12.3831 142.477 11.2804C141.49 10.3519 140.157 9.7715 138.301 9.7715ZM140.562 18.1868C140.562 19.5797 139.403 20.4501 137.837 20.3921C136.735 20.3921 135.981 19.8118 135.981 18.8251V18.7671C135.981 17.6644 136.909 16.968 138.359 16.968C139.055 16.968 139.867 17.2001 140.562 17.4904V18.1868ZM155.584 9.71346C154.888 9.71346 154.192 10.1778 154.018 10.9902L151.35 18.4769L148.798 11.0483C148.566 10.2358 147.928 9.71346 147.116 9.71346C146.246 9.71346 145.55 10.4099 145.435 11.3965C145.435 11.6867 145.55 11.9768 145.666 12.2671L149.378 21.3787C149.611 22.3073 150.364 22.9457 151.292 23.0037H151.524C152.336 22.9457 153.147 22.3654 153.496 21.4368L157.092 12.3251L157.266 11.4545V11.3965C157.266 10.4679 156.569 9.71346 155.584 9.71346ZM164.573 9.65543C161.035 9.65543 158.599 12.6734 158.599 16.3295V16.91C158.715 20.4501 161.615 23.1778 164.921 23.0037C166.429 23.0037 167.879 22.4814 169.097 21.4368C169.444 21.1465 169.561 20.7984 169.561 20.3921V20.3341C169.561 19.5215 168.98 18.8832 168.226 18.8832C167.937 18.8832 167.647 18.9412 167.415 19.1734C166.738 19.7559 165.871 20.0662 164.98 20.0439C163.529 20.102 162.253 19.0573 162.079 17.4904H168.865C169.735 17.4323 170.431 16.6198 170.372 15.6912V15.401C170.372 12.2671 167.762 9.53936 164.573 9.65543ZM161.963 15.343C162.253 13.6599 163.181 12.6152 164.573 12.6152C165.965 12.6152 166.893 13.718 167.067 15.343H161.963Z" fill="black"/>
</g>
<defs>
<clipPath id="clip0_30_3309">
<rect width="169.594" height="31.9988" fill="white" transform="translate(0.71875 0.000488281)"/>
</clipPath>
</defs>
</svg>
