<svg width="96" height="16" viewBox="0 0 96 16" fill="none" xmlns="http://www.w3.org/2000/svg">
<g clip-path="url(#clip0_25_2757)">
<path d="M46.5157 0.502153C45.4278 0.484217 44.3676 0.845901 43.5175 1.52501C42.621 2.26686 41.9993 3.28812 41.7521 4.42519C41.5652 1.80983 40.3042 0.502153 37.9692 0.502153C36.9191 0.477847 35.895 0.830854 35.0829 1.4971C34.2493 2.21071 33.6775 3.18203 33.4581 4.25725V4.06099C33.4675 3.29112 33.3533 2.52474 33.1197 1.79109C33.0409 1.46274 32.9283 1.14347 32.7834 0.83844H29.9531V14.4287H33.514V7.08594C33.5326 5.85299 33.8128 4.90021 34.3545 4.22762C34.6183 3.89741 34.9562 3.63398 35.3408 3.4587C35.7254 3.28342 36.1459 3.20123 36.5682 3.21876C37.2779 3.21847 37.7776 3.39134 38.0672 3.73736C38.357 4.08341 38.5018 4.65788 38.5018 5.46074V14.4287H42.0606V7.08808C42.0791 5.85512 42.3547 4.90235 42.8871 4.22976C43.1518 3.89699 43.4918 3.63195 43.8792 3.45653C44.2665 3.2811 44.6901 3.20033 45.1148 3.22086C45.8245 3.22056 46.3242 3.39345 46.6139 3.7395C46.9035 4.08551 47.0483 4.65996 47.0483 5.46284V14.4307H50.6071V5.29363C50.6083 3.70562 50.2439 2.51004 49.5141 1.70689C48.7842 0.903731 47.7848 0.502153 46.5157 0.502153Z" fill="white"/>
<path d="M59.129 0.504884C57.1116 0.503753 55.4724 1.12416 54.2115 2.36611C52.9506 3.60812 52.3202 5.29411 52.3203 7.42411V7.47994C52.3217 9.87108 52.976 11.6785 54.2835 12.9021C55.6261 14.0847 57.3537 14.7373 59.1429 14.7376C60.932 14.738 62.6599 14.0862 64.003 12.9042C65.3107 11.6809 65.9646 9.86418 65.9646 7.45413V7.3983C65.9656 5.26856 65.3312 3.58722 64.061 2.35429C62.7908 1.12134 61.1469 0.50487 59.129 0.504884ZM62.3533 7.87167C62.353 10.8979 61.2788 12.411 59.1308 12.411V12.4119C56.9999 12.4119 55.9352 10.8988 55.9366 7.87251V6.86361C55.9369 5.59345 56.2217 4.61276 56.7911 3.92156C57.0742 3.57941 57.4329 3.30768 57.8388 3.12777C58.2449 2.94784 58.6871 2.86466 59.1308 2.88474C59.5765 2.86509 60.0207 2.94841 60.4289 3.12822C60.8371 3.30803 61.1985 3.57951 61.4849 3.92156C62.0638 4.61388 62.3533 5.59455 62.3533 6.86361V7.87167Z" fill="white"/>
<path d="M76.0341 0.502522C74.9092 0.465941 73.8075 0.828238 72.9238 1.52538C72.0619 2.24312 71.4773 3.23895 71.2707 4.34137V4.06136C71.2814 3.29157 71.1679 2.52509 70.9343 1.79146C70.8549 1.46303 70.7415 1.14376 70.5959 0.83881H67.7617V14.4289H71.3256V7.08844C71.3254 5.8741 71.6289 4.92598 72.2364 4.24409C72.5313 3.90942 72.8967 3.64416 73.3062 3.46731C73.7158 3.29048 74.1594 3.20644 74.6053 3.22124C76.1182 3.22124 76.8747 3.96857 76.8747 5.46322V14.4311H80.4055V5.294C80.4061 3.70599 80.0232 2.51041 79.2567 1.70726C78.4902 0.904101 77.416 0.502522 76.0341 0.502522Z" fill="white"/>
<path d="M93.8578 2.35429C92.5875 1.12134 90.9437 0.50487 88.9264 0.504884C86.9086 0.503753 85.2693 1.12416 84.0084 2.36611C82.7475 3.60812 82.1171 5.29411 82.1172 7.42411V7.47994C82.1172 9.87108 82.7709 11.6785 84.0787 12.9021C85.4219 14.085 87.1504 14.7376 88.9403 14.7376C90.7302 14.7376 92.4587 14.085 93.8021 12.9021C95.1097 11.6788 95.7636 9.86209 95.7636 7.45204V7.3962C95.7636 5.26784 95.1283 3.5872 93.8578 2.35429ZM92.1489 7.87167C92.1486 10.8979 91.0744 12.411 88.9264 12.411V12.4119C86.7967 12.4119 85.7318 10.8988 85.7318 7.87251V6.86361C85.7326 5.59345 86.0176 4.61276 86.5867 3.92156C86.8697 3.57937 87.2284 3.3076 87.6344 3.12768C88.0405 2.94775 88.4827 2.8646 88.9264 2.88474C89.372 2.86519 89.8161 2.94855 90.2243 3.12835C90.6325 3.30815 90.9937 3.57958 91.28 3.92156C91.8592 4.61388 92.1489 5.59455 92.1489 6.86361V7.87167Z" fill="white"/>
<path d="M17.7792 0.596715C17.7054 0.542983 17.6182 0.510719 17.5273 0.503502C17.4364 0.496284 17.3452 0.514394 17.2639 0.555824C17.1827 0.597254 17.1144 0.660385 17.0668 0.738219C17.0192 0.816053 16.9941 0.905547 16.9942 0.996783V6.25331L9.28204 0.596715C9.2083 0.542983 9.12113 0.510719 9.03018 0.503502C8.93924 0.496284 8.84806 0.514394 8.76678 0.555824C8.68549 0.597254 8.61727 0.660385 8.56966 0.738219C8.52207 0.816053 8.49695 0.905547 8.49711 0.996783V6.25331L0.784935 0.596715C0.711202 0.542982 0.624027 0.510719 0.533078 0.503501C0.442128 0.496284 0.350956 0.514395 0.26967 0.555825C0.188384 0.597256 0.120159 0.660389 0.0725599 0.738223C0.0249606 0.816057 -0.000153982 0.905553 7.10322e-07 0.996789V8.4241C0.000284712 8.50181 0.0188418 8.57837 0.0541732 8.64759C0.0895047 8.71682 0.14062 8.77676 0.203391 8.82257L8.13701 14.6416C8.21075 14.6954 8.29792 14.7276 8.38887 14.7349C8.47982 14.742 8.57099 14.7239 8.65227 14.6825C8.73356 14.6411 8.80178 14.5779 8.84939 14.5002C8.89699 14.4223 8.9221 14.3328 8.92195 14.2416V8.98503L16.6341 14.6416C16.7079 14.6954 16.795 14.7277 16.886 14.7349C16.9769 14.7421 17.0681 14.724 17.1493 14.6826C17.2307 14.6412 17.2988 14.5779 17.3464 14.5002C17.3939 14.4223 17.419 14.3328 17.4187 14.2416V8.98477L25.1325 14.6416C25.2062 14.6954 25.2934 14.7277 25.3844 14.7349C25.4753 14.7421 25.5664 14.724 25.6476 14.6826C25.729 14.6412 25.7972 14.5779 25.8447 14.5002C25.8923 14.4223 25.9173 14.3328 25.9171 14.2416V6.81521C25.9168 6.73726 25.8981 6.66048 25.8627 6.59107C25.8272 6.52167 25.7758 6.46162 25.7128 6.41577L17.7792 0.596715Z" fill="white"/>
</g>
<defs>
<clipPath id="clip0_25_2757">
<rect width="95.7656" height="14.9994" fill="white" transform="translate(0 0.5)"/>
</clipPath>
</defs>
</svg>
