<svg width="160" height="24" viewBox="0 0 160 24" fill="none" xmlns="http://www.w3.org/2000/svg">
<g clip-path="url(#clip0_30_3194)">
<path d="M77.715 0.00440705C75.8974 -0.0255596 74.126 0.578723 72.7056 1.71334C71.2078 2.9528 70.1692 4.65905 69.7563 6.55881C69.4439 2.18921 67.3371 0.00440705 63.4359 0.00440705C61.6814 -0.0362028 59.9704 0.553583 58.6138 1.66672C57.2208 2.85897 56.2656 4.4818 55.8991 6.27824V5.95033C55.9148 4.66408 55.7239 3.38364 55.3336 2.1579C55.2022 1.6093 55.0138 1.07588 54.7718 0.566257H50.043V23.272H55.9924V11.0043C56.0235 8.94429 56.4916 7.35245 57.3967 6.22873C57.8374 5.67701 58.4019 5.23689 59.0446 4.94405C59.6871 4.65121 60.3896 4.51388 61.0951 4.54318C62.281 4.54269 63.1159 4.8315 63.5998 5.40962C64.0838 5.98778 64.3256 6.94757 64.3256 8.28897V23.272H70.2715V11.0078C70.3027 8.94786 70.763 7.35602 71.6526 6.2323C72.0948 5.67633 72.663 5.23352 73.31 4.94042C73.9571 4.64733 74.6647 4.51237 75.3743 4.54668C76.5602 4.5462 77.3951 4.83504 77.8791 5.4132C78.3628 5.99129 78.6048 6.95105 78.6048 8.29246V23.2756H84.5507V8.00977C84.5526 5.3566 83.9439 3.35908 82.7244 2.01721C81.5051 0.675344 79.8352 0.00440705 77.715 0.00440705Z" fill="black"/>
<path d="M98.7937 0.00781508C95.423 0.00592463 92.6844 1.04247 90.5778 3.11745C88.4712 5.19253 87.418 8.00941 87.418 11.5681V11.6614C87.4202 15.6564 88.5136 18.6761 90.698 20.7205C92.9412 22.6963 95.8276 23.7865 98.8168 23.7871C101.806 23.7877 104.693 22.6988 106.937 20.724C109.122 18.6801 110.214 15.6448 110.214 11.6183V11.525C110.216 7.96672 109.156 5.15763 107.034 3.09772C104.912 1.03776 102.165 0.00779084 98.7937 0.00781508ZM104.181 12.3159C104.18 17.3719 102.385 19.8999 98.7966 19.8999V19.9015C95.2365 19.9015 93.4576 17.3733 93.46 12.3173V10.6316C93.4604 8.50951 93.9362 6.87104 94.8876 5.71623C95.3605 5.14459 95.9598 4.69059 96.6382 4.38999C97.3165 4.08939 98.0554 3.9504 98.7966 3.98397C99.5412 3.95113 100.283 4.09033 100.965 4.39075C101.648 4.69117 102.251 5.14473 102.73 5.71623C103.697 6.87291 104.181 8.51137 104.181 10.6316V12.3159Z" fill="black"/>
<path d="M127.036 0.00421427C125.156 -0.056904 123.316 0.548403 121.839 1.71315C120.399 2.91231 119.423 4.57611 119.077 6.41795V5.95013C119.095 4.664 118.906 3.3834 118.516 2.15772C118.383 1.60899 118.193 1.07556 117.95 0.566065H113.215V23.2719H119.169V11.0076C119.169 8.97876 119.676 7.39469 120.691 6.25543C121.184 5.69628 121.794 5.25309 122.478 4.95764C123.163 4.66219 123.904 4.52179 124.649 4.54651C127.176 4.54651 128.44 5.79511 128.44 8.29229V23.2753H134.34V8.00959C134.34 5.3564 133.701 3.35888 132.42 2.01703C131.139 0.675151 129.345 0.00421427 127.036 0.00421427Z" fill="black"/>
<path d="M156.815 3.09771C154.693 1.03775 151.947 0.00779084 148.577 0.00781508C145.205 0.00592463 142.466 1.04247 140.359 3.11745C138.253 5.19253 137.199 8.00941 137.199 11.5681V11.6614C137.199 15.6564 138.293 18.6761 140.477 20.7205C142.722 22.6968 145.609 23.7871 148.599 23.7871C151.59 23.7871 154.478 22.6968 156.722 20.7205C158.907 18.6765 159.999 15.6413 159.999 11.6147V11.5215C159.999 7.96552 158.938 5.1576 156.815 3.09771ZM153.961 12.3159C153.959 17.3719 152.165 19.8999 148.577 19.8999V19.9015C145.018 19.9015 143.239 17.3733 143.239 12.3173V10.6316C143.241 8.50951 143.717 6.87104 144.667 5.71623C145.141 5.14451 145.739 4.69045 146.418 4.38985C147.097 4.08924 147.835 3.95029 148.577 3.98397C149.321 3.95129 150.063 4.09056 150.745 4.39097C151.427 4.69137 152.03 5.14485 152.509 5.71623C153.477 6.87291 153.961 8.51137 153.961 10.6316V12.3159Z" fill="black"/>
<path d="M29.7045 0.162719C29.5813 0.0729447 29.4357 0.0190407 29.2837 0.00698169C29.1317 -0.00507728 28.9795 0.02518 28.8436 0.0943991C28.7079 0.163619 28.5939 0.269095 28.5144 0.399135C28.4348 0.529176 28.3928 0.6787 28.3931 0.831131V9.61345L15.508 0.162719C15.3848 0.0729447 15.2391 0.0190407 15.0872 0.00698169C14.9352 -0.00507728 14.7829 0.02518 14.6471 0.0943991C14.5113 0.163619 14.3973 0.269095 14.3177 0.399135C14.2383 0.529176 14.1963 0.6787 14.1965 0.831131V9.61345L1.31143 0.162719C1.18824 0.0729442 1.04259 0.01904 0.890637 0.00698147C0.738684 -0.00507709 0.586359 0.0251811 0.450551 0.0944014C0.314741 0.163621 0.200756 0.2691 0.121229 0.399141C0.0417028 0.529184 -0.000257265 0.678709 1.18677e-06 0.831141V13.2403C0.000475683 13.3701 0.0314799 13.4981 0.0905099 13.6137C0.14954 13.7293 0.234941 13.8294 0.339816 13.9061L13.5949 23.6282C13.7181 23.718 13.8637 23.7718 14.0157 23.784C14.1676 23.796 14.32 23.7657 14.4557 23.6965C14.5916 23.6273 14.7056 23.5218 14.7851 23.3918C14.8647 23.2617 14.9065 23.1122 14.9063 22.9598V14.1774L27.7915 23.6282C27.9147 23.7181 28.0603 23.772 28.2121 23.7841C28.3641 23.7961 28.5164 23.7658 28.6523 23.6966C28.788 23.6274 28.902 23.522 28.9815 23.3918C29.0609 23.2618 29.1027 23.1122 29.1024 22.9598V14.177L41.9901 23.6282C42.1132 23.7181 42.2588 23.772 42.4108 23.7841C42.5628 23.7961 42.7151 23.7658 42.8508 23.6966C42.9867 23.6274 43.1005 23.522 43.18 23.3918C43.2595 23.2618 43.3013 23.1122 43.3009 22.9598V10.5522C43.3005 10.422 43.2693 10.2937 43.21 10.1778C43.1507 10.0618 43.0649 9.96149 42.9596 9.88488L29.7045 0.162719Z" fill="black"/>
</g>
<defs>
<clipPath id="clip0_30_3194">
<rect width="160" height="24" fill="white"/>
</clipPath>
</defs>
</svg>
