<svg width="67" height="68" viewBox="0 0 67 68" fill="none" xmlns="http://www.w3.org/2000/svg">
<path d="M64.9142 25.4618L64.7862 24.597L64.7054 24.3314L64.5158 23.697L64.263 23.2946L63.9614 22.9178L63.5582 22.545L63.1022 22.2106L62.6462 21.8762L62.191 21.5418L61.7358 21.2082L61.2798 20.8738L60.8238 20.5394L60.3686 20.205L59.9126 19.8714L59.4574 19.537L59.0014 19.2026L58.5454 18.8682L58.0902 18.5346L57.635 18.2002L57.179 17.8658L56.723 17.5314L56.2678 17.1978L55.8118 16.8634L55.3566 16.529L54.9006 16.1946L54.4446 15.861L53.9894 15.5266L53.5342 15.1922L53.1054 14.9546L52.6942 14.7978L52.3238 14.749H51.8494L51.343 14.8298L50.8366 14.9106L50.3294 14.9914L49.823 15.0722L49.3166 15.153L48.8094 15.2338L48.303 15.3146L47.7966 15.3954L47.2894 15.4762L46.783 15.557L46.2766 15.6378L45.7694 15.7186L45.263 15.7994L44.7566 15.8802L44.2502 15.961L43.743 16.0418L43.2366 16.1226L42.7302 16.2034L42.2782 16.3506L41.9366 16.6322L41.7126 16.8362L41.5854 17.141L41.4118 17.5858L41.2846 18.3834L41.2422 19.437V20.6186V21.801V22.9826V24.165V25.3466V26.529V27.7106V28.893V30.0746V31.257V32.4386V33.6202V34.8026V35.985V37.1666V38.3482V39.5306V40.7122L41.2846 41.789L41.4118 42.6538L41.5854 43.189L41.683 43.5538L41.9358 43.9562L42.2374 44.333L42.6406 44.7058L43.0966 45.0402L43.5518 45.3746L44.007 45.709L44.463 46.0426L44.919 46.377L45.375 46.7114L45.8302 47.0458L46.2854 47.3794L46.7414 47.7138L47.1974 48.0482L47.6526 48.3826L48.1078 48.7162L48.5638 49.0506L49.0198 49.385L49.4758 49.7194L49.931 50.053L50.3862 50.3874L50.8422 50.7218L51.2982 51.0562L51.7534 51.3898L52.2086 51.7242L52.6646 52.0586L53.0926 52.2962L53.5038 52.4538L53.875 52.5018H54.3486L54.8558 52.421L55.3622 52.3402L55.8134 52.193L56.155 51.9114L56.379 51.7082L56.5078 51.4026L56.6798 50.9578L56.807 50.161L56.8134 50.0106L59.2182 49.6266L59.4038 49.7626L59.8598 50.097L60.3158 50.4314L60.7718 50.7658L61.1998 51.0034L61.6102 51.1602L61.9814 51.209H62.455L62.9622 51.1282L63.4686 51.0474L63.9206 50.9002L64.2614 50.6186L64.4854 50.4146L64.6134 50.1098L64.7862 49.665L64.9142 48.8674L64.9566 47.8138V46.6322V45.4498V44.2682V43.0858V41.9042V40.7218V39.5402V38.3578V37.1762V35.9938V34.8122V33.6306V32.4482V31.2666V30.0842V28.9026V27.7202V26.5386L64.9142 25.4618Z" fill="white"/>
<path d="M54.2907 52.6053C54.5021 52.3935 54.6647 52.1382 54.767 51.857C54.8694 51.5759 54.9091 51.2758 54.8834 50.9777C54.9253 43.2121 54.9521 35.4464 54.9638 27.6806C55.0064 26.5374 54.673 25.4117 54.0147 24.4761C53.5448 23.9234 52.9929 23.4461 52.3783 23.0609C49.9663 21.2667 47.5386 19.4936 45.1153 17.7146C44.5315 17.286 43.9425 16.8642 43.25 16.3626C43.4959 16.2728 43.7475 16.1997 44.0032 16.1436C44.517 16.0724 45.0385 16.0537 45.5501 15.9715C46.067 15.8884 46.5725 15.7347 47.0892 15.6491C47.4923 15.5824 47.9067 15.5863 48.3126 15.5323C48.5555 15.5 48.7892 15.4021 49.0316 15.3606C49.2462 15.324 49.4705 15.3429 49.6847 15.3045C49.9769 15.2522 50.2617 15.1596 50.553 15.101C50.8912 15.0331 51.2322 14.9778 51.5734 14.9269C52.0195 14.8656 52.4734 14.8971 52.9068 15.0193C53.3402 15.1416 53.7436 15.352 54.0919 15.6373C57.1473 17.8974 60.2019 20.1592 63.2909 22.3728C63.8418 22.7596 64.2867 23.2784 64.585 23.8818C64.8832 24.4852 65.0252 25.1538 64.9979 25.8264C65.0341 29.1326 65.0311 32.4393 65.0306 35.7459C65.0299 40.0469 65.0186 44.3479 64.9967 48.6489C64.9731 49.1311 64.8864 49.6082 64.7388 50.0678C64.6612 50.3449 64.5037 50.593 64.286 50.7812C64.0683 50.9693 63.8 51.0892 63.5146 51.1258C63.176 51.194 62.8322 51.2365 62.4446 51.2979C62.8714 50.7594 63.076 50.0781 63.0165 49.3935C63.0582 41.9509 63.0929 34.5081 63.0813 27.0655C63.1491 26.1437 63.033 25.2176 62.7398 24.3411C62.3894 23.4573 61.7908 22.6937 61.0162 22.1425C59.4606 21.0363 57.9349 19.8882 56.3909 18.7657C55.1552 17.8671 53.9364 16.9411 52.6579 16.1074C52.0889 15.7641 51.4668 15.5174 50.8171 15.3775C50.4021 15.3174 49.9798 15.4172 49.6357 15.6567C49.2915 15.8962 49.0512 16.2575 48.9633 16.6675C48.9094 16.9296 48.8244 17.1842 48.7103 17.4261C48.5673 17.7212 48.6923 17.7485 48.938 17.7214C49.399 17.6339 49.8675 17.5928 50.3366 17.5986C50.7294 17.6414 51.1047 17.7841 51.4268 18.013C54.494 20.2359 57.5489 22.4758 60.5914 24.7326C60.6626 24.7918 60.7212 24.8649 60.7635 24.9474C60.8057 25.0298 60.8309 25.12 60.8375 25.2124C60.8493 33.1807 60.8555 41.1491 60.8559 49.1174C60.8563 49.4274 60.7544 49.9056 60.5062 49.9436C59.4138 50.111 58.2914 49.8791 57.1979 50.0383C56.9692 50.0716 56.8926 50.1471 56.8628 50.3774C56.8129 50.7207 56.7342 51.0591 56.6273 51.389C56.5519 51.6404 56.4091 51.8664 56.2146 52.0426C56.02 52.2188 55.781 52.3384 55.5233 52.3886C55.1414 52.4834 54.7469 52.5272 54.2907 52.6053Z" fill="#8FB8E2"/>
<path d="M47.9297 16.0126L53.0945 14.4502L64.6145 23.1742V51.211L61.4113 50.9582L60.5009 50.1446L60.7745 24.355L48.1961 17.4254L47.9297 16.0126Z" fill="#8FB8E2"/>
<path d="M54.0092 52.9836C53.8042 52.9854 53.5996 52.9647 53.399 52.9219C52.778 52.7002 52.2013 52.3698 51.6959 51.9461L44.6342 46.7633C44.3256 46.525 44.0076 46.2984 43.6873 46.0703C43.0648 45.6473 42.4705 45.1841 41.9084 44.6836C41.6654 44.4007 41.4474 44.0972 41.2568 43.7765C41.185 43.5906 41.1248 43.4004 41.0764 43.207C41.035 43.0554 40.9959 42.9078 40.9662 42.8312C40.8373 42.1335 40.7688 41.4259 40.7615 40.7164V37.1648C40.774 34.7398 40.767 32.3054 40.7592 29.8687C40.7475 26.0937 40.735 22.1906 40.8037 18.3742L40.9373 17.5094C40.9457 17.4599 40.9615 17.412 40.9842 17.3672C41.0139 17.3078 41.0561 17.1891 41.1014 17.068C41.1556 16.9115 41.2184 16.7581 41.2897 16.6086C41.3023 16.5841 41.3172 16.5608 41.3342 16.5391C41.4598 16.3971 41.6011 16.2697 41.7553 16.1594C41.8279 16.1024 41.8983 16.05 41.9412 16.0078C41.9861 15.9632 42.0395 15.9282 42.0983 15.9047C42.5297 15.7554 42.9765 15.6545 43.4303 15.6039L50.7607 14.4359C52.1599 14.1781 52.9584 14.0922 54.2881 15.15L63.3857 21.8234C63.8313 22.0851 64.2194 22.434 64.527 22.8492C64.8345 23.2644 65.0551 23.7374 65.1756 24.2398C65.3977 25.1946 65.4847 26.1757 65.4342 27.1547L65.4357 46.6312C65.4326 46.8398 65.4334 47.0492 65.4342 47.264C65.5316 48.4146 65.3513 49.5718 64.9084 50.6383C64.8794 50.6938 64.8396 50.743 64.7912 50.7828C64.7318 50.8328 64.6654 50.8929 64.5959 50.9547C64.4639 51.0742 64.3232 51.1984 64.2021 51.2867L64.1967 51.2789C64.0112 51.3724 63.8171 51.4474 63.617 51.5031L63.3069 51.5594C62.7162 51.6949 62.1054 51.7185 61.5061 51.6289C60.8057 51.3646 60.1564 50.9808 59.5873 50.4945C59.4248 50.3703 59.2631 50.2468 59.1022 50.1312L57.2475 50.4257L57.1529 51.0335C57.1449 51.0818 57.1299 51.1286 57.1084 51.1726C57.0779 51.2328 57.0358 51.3507 56.9912 51.471C56.9367 51.6282 56.8735 51.7824 56.8022 51.9327C56.7742 51.9858 56.7362 52.033 56.6904 52.0718L56.5217 52.2202C56.3811 52.346 56.2256 52.4827 56.1006 52.5765C56.0588 52.6079 56.012 52.6322 55.9623 52.6484L55.5108 52.796L55.1959 52.853C54.8046 52.9291 54.4077 52.9727 54.0092 52.9836ZM41.8756 17.725L41.7576 18.4586C41.6951 22.1985 41.7076 26.0961 41.7193 29.8657C41.7264 32.3047 41.7342 34.7422 41.7209 37.168L41.7217 38.8071L41.7209 40.7125C41.728 41.3282 41.7812 41.9424 41.8803 42.55C41.9282 42.6824 41.9689 42.8172 42.0022 42.9539C42.0467 43.1164 42.0905 43.2844 42.1256 43.3703C42.2727 43.5988 42.4334 43.8182 42.6069 44.0274C43.1271 44.4799 43.6739 44.901 44.2444 45.2883C44.5749 45.5242 44.903 45.7578 45.2124 45.9969L52.271 51.1766C52.6797 51.5211 53.1417 51.7969 53.639 51.993C54.107 52.0421 54.5799 52.0128 55.0382 51.9063L55.2874 51.8657L55.5819 51.7641C55.6765 51.6883 55.7843 51.5922 55.8843 51.5031L55.9874 51.4125C56.0186 51.3383 56.0546 51.2359 56.0913 51.1375C56.1351 51.0187 56.1788 50.9031 56.2147 50.8187L56.3327 50.0843L56.3343 50.0492C56.331 50.013 56.3321 49.9765 56.3374 49.9406C56.389 48.1312 56.3796 46.1882 56.3702 44.3078C56.3648 43.1383 56.3593 41.9742 56.3694 40.8289V29.5476C56.3718 28.6281 56.3741 27.5851 56.328 26.782C56.2671 26.5304 56.0296 25.3929 56.0296 25.3929C55.8492 24.7039 55.1054 24.1679 54.4491 23.6953L47.0538 18.2734C46.9442 18.2023 46.8646 18.0933 46.8304 17.9672C46.8105 17.8971 46.8062 17.8234 46.8178 17.7515C46.8294 17.6796 46.8566 17.611 46.8976 17.5508C47.0156 17.4039 47.0156 17.4039 48.6265 17.1484C49.2101 17.0562 49.7671 16.9679 49.8421 16.9547C49.877 16.9487 49.9123 16.9459 49.9476 16.9461C50.0067 16.9455 50.0658 16.95 50.1242 16.9594L50.2796 16.9797C50.4365 16.9876 50.5918 17.0159 50.7413 17.064C51.3367 17.2875 51.396 17.3195 51.482 17.4078L61.0577 24.4234C61.1186 24.4678 61.1681 24.526 61.2022 24.5932C61.2363 24.6605 61.254 24.7348 61.2538 24.8101V50.4797C61.4147 50.57 61.5837 50.645 61.7585 50.7039C62.2239 50.7505 62.6939 50.7196 63.1492 50.6125L63.3929 50.5726L63.6898 50.4703C63.7742 50.4039 63.8663 50.3203 63.9546 50.2406C64.0038 50.1961 64.053 50.1523 64.0992 50.1117C64.4241 49.2007 64.5519 48.2312 64.4742 47.2672C64.4734 47.0461 64.4726 46.8297 64.4765 46.6234L64.4742 27.1531C64.5204 26.2531 64.4437 25.3511 64.246 24.4719C64.1486 24.0821 63.9734 23.7161 63.7307 23.3958C63.4881 23.0756 63.1832 22.8078 62.8343 22.6086L53.7045 15.9125C52.6842 15.1 52.2537 15.1367 50.9233 15.382L43.5733 16.5531C43.22 16.5958 42.8709 16.6677 42.5295 16.7679C42.4764 16.8133 42.4131 16.864 42.3467 16.9156C42.2772 16.9695 42.1686 17.0547 42.1139 17.1062C42.0811 17.1804 42.0412 17.2929 42.0014 17.4015C41.9569 17.5219 41.9115 17.639 41.8756 17.725ZM59.2178 49.1469C59.3139 49.1466 59.4079 49.1755 59.4873 49.2297C59.7147 49.3836 59.9412 49.5562 60.1701 49.7312C60.2115 49.7632 60.2529 49.7945 60.2944 49.8258V25.0531L50.8545 18.1297C50.8162 18.1156 50.5678 18.0242 50.449 17.9797L50.4295 17.9726L50.1412 17.9297C50.0811 17.9211 50.0256 17.9125 49.9803 17.9047H49.9615C49.7951 17.9351 49.4678 17.9875 48.7772 18.0969C48.6834 18.1117 48.5897 18.1265 48.4967 18.1414L55.01 22.9164C55.9031 23.4196 56.5938 24.2174 56.9639 25.1734C56.9686 25.1961 57.2061 26.3289 57.2764 26.6531C57.3342 27.5586 57.3319 28.6164 57.3295 29.5492L57.3287 40.8328C57.3194 41.9781 57.3248 43.1383 57.3303 44.3031C57.3381 45.9984 57.3467 47.7437 57.3069 49.4445L59.142 49.1523C59.1671 49.1486 59.1924 49.1468 59.2178 49.1469Z" fill="#0055BA"/>
<path d="M34.6852 14.527L34.6668 14.2822L34.4116 13.8998L34.1796 13.6494L33.6668 13.403L33.33 13.1558L32.9932 12.9094L32.6572 12.6622L32.3204 12.415L31.9836 12.1686L31.6468 11.9214L31.31 11.6742L30.9732 11.4278L30.6372 11.1806L30.3004 10.9334L29.9636 10.687L29.6268 10.4398L29.29 10.1926L28.9532 9.94619L28.59 9.75659L27.758 9.69419L27.0788 9.73979V8.12938V3.8742L27.002 3.5134L26.7844 3.2102L26.458 3.0094L26.282 2.7638L25.9332 2.7478L25.5852 2.5854L25.0812 2.4806L24.4996 2.4502L23.9276 2.4982L23.4524 2.6174L23.1468 2.7894L22.7852 2.8166L22.6724 3.0662L22.3468 3.27579L22.1284 3.58619L22.0524 3.9494V8.20459V10.3238L21.0116 10.4894L19.6436 10.7078L18.2756 10.9254L16.9076 11.1438L15.5396 11.3622L14.9188 11.4614V10.0686V5.81339L14.842 5.45259L14.6244 5.14939L14.418 4.8614L14.1228 4.7038L13.6852 4.49979L13.4252 4.5246L12.922 4.4206L12.3396 4.3894L11.7676 4.4374L11.2924 4.5566L10.9868 4.7286L10.6252 4.7558L10.5124 5.00539L10.1868 5.21579L9.96834 5.52539L9.89234 5.88859V10.1438V12.263L8.69954 12.4534L7.33154 12.671L5.96354 12.8894L4.72274 13.1238L3.73555 13.391L3.00595 13.695L3.06115 13.8278L2.55955 14.2222L2.30355 14.6742L2.21875 15.1758V15.7006V16.2262V16.7518V17.2766V17.8022V18.3278L2.30355 18.8054L2.53395 19.0518L2.79075 19.4374L3.12755 19.6846L3.46435 19.931L3.80115 20.1782L4.13714 20.4254L4.47394 20.6718L4.51154 20.699L4.53314 21.883L4.58514 23.3934L4.67154 24.9286L4.81554 26.4806L5.03954 28.043L5.36674 29.607L5.81954 31.1678L6.12594 31.495L6.71954 32.9254L7.49314 34.1294L7.90674 34.4334L8.32034 34.7366L8.73474 35.0406L9.14834 35.3438L9.56194 35.6478L9.97634 35.951L10.8724 36.755L11.2908 36.9454L12.4204 37.3142L13.7684 37.379L14.2924 37.3278V41.759V48.4566V55.155L14.6116 55.7038L14.9228 56.8414L15.7588 57.2694L16.41 57.9118L17.362 58.1294L18.4852 58.2054L19.6084 58.1294L20.5604 57.9118L21.1972 57.5862L22.0476 56.8414L22.3412 56.3366L22.678 55.155V48.4566V41.759V36.0582L23.546 35.9198L25.1436 35.6646L26.6292 35.3366L27.8908 34.8622L28.9548 34.1862L29.8476 33.2526L30.5828 32.0606L31.1724 30.6094L31.626 29.0294L31.9532 27.4502L32.178 25.8782L32.322 24.3206L32.4084 22.7814L32.4604 21.2678L32.486 19.9102L33.3524 19.6678L33.8588 19.439L33.9644 19.3918L34.4324 19.0454L34.6852 18.639L34.7692 18.1526V17.6278V17.1022V16.5766V16.0518V15.5262V15.0006L34.6852 14.527Z" fill="white"/>
<path d="M31.2963 30.5224C31.8096 28.9245 32.137 27.2727 32.2719 25.5998C32.4014 23.8532 32.4692 22.1018 32.5462 20.3517C32.5578 20.0888 32.6118 19.9575 32.8894 19.8923C33.239 19.8077 33.5788 19.687 33.9035 19.5322C34.1649 19.4439 34.3932 19.2782 34.5581 19.057C34.723 18.8358 34.8165 18.5697 34.8265 18.294C34.8305 17.1141 34.8203 15.9342 34.7956 14.7543C34.7794 14.5362 34.7108 14.3253 34.5956 14.1393C34.4806 13.9534 34.3223 13.7979 34.1344 13.6861C32.8004 12.7147 31.4675 11.742 30.1355 10.768C29.4939 10.1754 28.6644 9.82743 27.7921 9.78523C27.5759 9.77583 27.3606 9.74943 27.1486 9.70613C27.1486 9.54283 27.1486 9.39493 27.1486 9.24713C27.1488 7.58123 27.1424 5.91523 27.1523 4.24931C27.1742 3.94353 27.097 3.63883 26.932 3.38047C26.767 3.1221 26.5231 2.92385 26.2364 2.81516C25.3103 2.48966 24.3073 2.45206 23.3594 2.70729C23.2654 2.74418 23.1807 2.80163 23.1119 2.87543C23.043 2.94923 22.9914 3.03751 22.9611 3.13381C22.9326 3.22507 23.1439 3.41817 23.2788 3.52501C23.4133 3.61132 23.5587 3.67933 23.7112 3.72724C24.1632 3.88861 24.6049 4.0778 25.0335 4.29373C25.1455 4.36043 25.2428 4.44919 25.3195 4.55462C25.3962 4.66006 25.4506 4.77997 25.4795 4.90709C25.5478 5.60903 25.5786 6.31423 25.5711 7.01953C25.581 8.98373 25.575 10.9481 25.5738 12.9125C25.5738 13.0446 25.5628 13.1768 25.557 13.3074C24.6979 13.4716 23.8113 13.4199 22.9771 13.157C22.3689 12.9648 22.0615 12.8614 22.1125 11.9886C22.1419 11.4853 22.1179 10.9789 22.1179 10.4454L14.9886 11.578V11.0956C14.9886 9.44213 14.9829 7.78853 14.9916 6.13503C15.0069 5.88563 14.9525 5.63693 14.8345 5.41673C14.7165 5.19643 14.5394 5.01343 14.3233 4.88811C13.3181 4.41192 12.1693 4.33602 11.1101 4.67581C11.0275 4.71094 10.9536 4.76387 10.8938 4.83081C10.834 4.89776 10.7897 4.97708 10.764 5.06313C10.7367 5.15193 10.8878 5.36113 11.0057 5.41723C11.4483 5.62803 11.9114 5.79523 12.3645 5.98443C12.7821 6.15883 13.2751 6.29163 13.3296 6.83373C13.3965 7.49663 13.408 8.16693 13.4113 8.83413C13.4209 10.8233 13.4148 12.8125 13.4148 14.8017V15.2318C12.5422 15.3953 11.6433 15.3488 10.7923 15.0961C10.2184 14.872 9.9033 14.8031 9.9528 13.9408C9.9818 13.4357 9.9581 12.9276 9.9581 12.3854C8.8214 12.5654 7.7296 12.7248 6.643 12.9147C5.7997 13.0622 4.9603 13.2315 4.1249 13.4227C3.68509 13.5229 3.63964 13.7464 3.94972 14.0693C4.0065 14.1354 4.0689 14.1964 4.1363 14.2515C4.7643 14.708 5.399 15.1553 6.0234 15.6165C6.8259 16.2093 7.6534 16.7746 8.4067 17.4252C8.8254 17.8553 9.3354 18.1858 9.8991 18.3921C10.7234 18.6274 10.9074 19.2581 10.8828 20.0255C10.8613 20.6962 10.8779 21.3681 10.8784 22.0394C10.8466 22.5395 11.0099 23.0324 11.3338 23.4147C11.8804 23.3318 12.4346 23.2606 12.9832 23.159C13.2536 23.109 13.3399 23.1878 13.3438 23.4562C13.3593 24.5211 13.3872 25.5859 13.4157 26.6505C13.4356 27.3921 13.4529 28.1341 13.4914 28.875C13.5567 30.1316 13.6079 31.3902 13.7211 32.6429C13.8291 33.8366 14.0224 35.0224 14.1491 36.2147C14.1918 36.6158 14.3152 37.0507 13.9527 37.4056L13.9963 37.4901L20.0543 36.5883C20.0543 36.7954 20.0549 36.9422 20.0542 37.0889C20.0296 42.419 20.0051 47.7491 19.9808 53.0791C19.9767 53.9991 19.989 54.9193 19.9771 55.8391C19.9639 56.8783 19.7617 57.8208 18.6263 58.2727C18.9683 58.2491 19.3123 58.2427 19.6517 58.1992C20.0847 58.1779 20.5091 58.0704 20.9001 57.8832C21.291 57.696 21.6408 57.4327 21.9289 57.1088C22.2169 56.7848 22.4376 56.4067 22.5778 55.9966C22.7181 55.5864 22.7753 55.1524 22.7459 54.7199C22.7491 48.9139 22.7502 43.1079 22.7492 37.3019C22.7494 36.9209 22.6407 36.4164 22.8371 36.1934C23.0362 35.9673 23.5515 36.0213 23.9276 35.949C24.8662 35.7686 25.8059 35.5934 26.7413 35.3978C26.8983 35.365 27.1101 35.3576 27.1114 35.073C27.1143 34.4421 27.1669 33.8117 27.1768 33.1807C27.1623 32.9064 27.2073 32.6322 27.3085 32.3769C27.4098 32.1216 27.5652 31.8912 27.7637 31.7014C27.9623 31.5116 28.1994 31.367 28.4592 31.2774C28.7188 31.1878 28.9948 31.1553 29.2681 31.1821L31.2963 30.5224Z" fill="#8FB8E2"/>
<path d="M18.5184 58.6848L17.3293 58.6082L16.3035 58.3801C16.2646 58.3713 16.2269 58.3577 16.1914 58.3395L15.5551 58.0137C15.5245 57.9981 15.4957 57.9792 15.4692 57.9574C15.0635 57.709 14.7164 57.3757 14.4517 56.9805C14.187 56.5852 14.0111 56.1373 13.936 55.6676L13.8305 55.2848C13.8187 55.2425 13.8126 55.1989 13.8125 55.1551L13.8129 45.5598L13.8125 37.3184C13.8126 37.1911 13.8633 37.0691 13.9533 36.9792C14.0433 36.8892 14.1654 36.8387 14.2926 36.8387C14.3556 36.8387 14.418 36.851 14.4763 36.8751C14.5345 36.8992 14.5874 36.9345 14.632 36.9791C14.6766 37.0236 14.7119 37.0765 14.7361 37.1347C14.7602 37.1929 14.7727 37.2553 14.7727 37.3184V55.0902L14.8621 55.4145C14.9099 55.7795 15.0408 56.1288 15.2448 56.4353C15.4488 56.7418 15.7204 56.9974 16.0387 57.1825L16.5754 57.4575L17.4688 57.6614L18.5184 57.727L19.5758 57.6504L20.3938 57.4582L20.9254 57.1863L21.6723 56.5324L21.8957 56.1481L22.1981 55.0879V36.0582C22.1981 35.9309 22.2486 35.8088 22.3387 35.7187C22.4287 35.6287 22.5508 35.5781 22.6781 35.5781C22.8055 35.5781 22.9276 35.6287 23.0176 35.7187C23.1076 35.8088 23.1582 35.9309 23.1582 36.0582V55.1551C23.1582 55.1997 23.152 55.2441 23.1399 55.2871L22.8028 56.4691C22.7919 56.5074 22.7762 56.5442 22.7559 56.5785L22.4626 57.0832C22.4363 57.1281 22.4029 57.1685 22.3637 57.2027L21.513 57.9473C21.4835 57.9735 21.4508 57.9958 21.4157 58.0137L20.7794 58.3395C20.7438 58.3576 20.7062 58.3713 20.6673 58.3801L19.7153 58.5973L18.5184 58.6848Z" fill="#0055BA"/>
<path d="M14.5882 23.2953C14.4676 23.295 14.3515 23.2493 14.2631 23.1674C14.1746 23.0854 14.1203 22.9731 14.1108 22.8529C14.1014 22.7327 14.1375 22.6134 14.2121 22.5186C14.2866 22.4238 14.3941 22.3605 14.5132 22.3414L28.2108 20.1562C28.3365 20.1365 28.4648 20.1675 28.5676 20.2423C28.6705 20.3171 28.7395 20.4296 28.7594 20.5552C28.7794 20.6808 28.7487 20.8092 28.6741 20.9122C28.5995 21.0152 28.4871 21.0845 28.3616 21.1047L14.6647 23.2898C14.6394 23.2936 14.6138 23.2954 14.5882 23.2953Z" fill="#ED1E71"/>
<path d="M13.3464 37.8417C13.0187 37.8426 12.6913 37.826 12.3655 37.7917C12.3327 37.7878 12.3004 37.7808 12.269 37.7706L11.1389 37.4018C10.6716 37.1972 10.2359 36.9271 9.84472 36.5995C9.69312 36.4839 9.54512 36.3706 9.40022 36.2714C8.61512 35.7257 7.86771 35.1277 7.16301 34.4815C4.32521 31.1784 4.15411 25.4495 4.02911 21.2667L4.01191 20.6964C4.00831 20.5694 4.05532 20.4462 4.14242 20.3538C4.22962 20.2614 4.34981 20.2073 4.47681 20.2034C4.60371 20.1994 4.72711 20.246 4.81981 20.3328C4.91241 20.4197 4.96691 20.5397 4.97121 20.6667L4.98891 21.2378C5.10921 25.2776 5.27442 30.8104 7.85452 33.8175C8.51342 34.4156 9.21051 34.9704 9.94121 35.4784C10.0999 35.587 10.262 35.7104 10.4272 35.8362C10.7406 36.1014 11.088 36.3236 11.46 36.4972L12.5186 36.8425C14.0462 36.9068 15.5759 36.78 17.0721 36.4651L23.4674 35.4456C24.914 35.2958 26.3341 34.953 27.6897 34.4261L28.6444 33.8128L29.4674 32.9526C31.754 29.4433 31.8772 24.7097 31.9862 20.5315L32.003 19.8971C32.0088 19.7707 32.0634 19.6515 32.1553 19.5645C32.2472 19.4775 32.3694 19.4295 32.4958 19.4307C32.5588 19.4325 32.621 19.4466 32.6785 19.4723C32.7361 19.498 32.7879 19.5348 32.8312 19.5806C32.8745 19.6264 32.9085 19.6802 32.9309 19.7391C32.9534 19.798 32.9641 19.8607 32.9622 19.9237L32.9454 20.5565C32.8333 24.8768 32.7061 29.7745 30.2459 33.5167C30.2298 33.5408 30.2117 33.5636 30.1916 33.5847L29.2987 34.5183C29.2719 34.546 29.2418 34.5704 29.2092 34.5909L28.1455 35.2675C26.6936 35.8528 25.167 36.2323 23.61 36.3948L17.228 37.4128C15.9478 37.6605 14.6497 37.8039 13.3464 37.8417Z" fill="#0055BA"/>
<path d="M14.917 11.9409C14.7963 11.9408 14.6801 11.8952 14.5915 11.8132C14.5029 11.7313 14.4484 11.6189 14.439 11.4986C14.4295 11.3783 14.4657 11.2588 14.5404 11.164C14.6151 11.0692 14.7228 11.006 14.842 10.987L21.9752 9.84954C22.1008 9.82984 22.2292 9.86084 22.332 9.93564C22.4349 10.0104 22.5038 10.1229 22.5238 10.2485C22.5438 10.3741 22.5131 10.5025 22.4385 10.6055C22.3639 10.7085 22.2515 10.7777 22.126 10.7979L14.9928 11.9354C14.9677 11.9392 14.9423 11.941 14.917 11.9409Z" fill="#0055BA"/>
<path d="M9.60172 23.9376C9.15222 23.9437 8.70352 23.8968 8.26502 23.7977C8.23122 23.7899 8.19842 23.7781 8.16732 23.7626L7.98652 23.6759C7.58052 23.5033 7.19832 23.2796 6.84902 23.0103L3.51302 20.5657C3.37826 20.4587 3.24389 20.3641 3.10678 20.2681C2.76823 20.0509 2.45916 19.791 2.18725 19.4946L1.90169 19.0727C1.87125 19.0271 1.84879 18.9767 1.83529 18.9235C1.7756 18.6529 1.73655 18.3782 1.71849 18.1016C1.72005 17.8344 1.71929 17.536 1.71849 17.2415L1.7181 16.5079C1.72474 16.3016 1.72123 16.0969 1.71771 15.8868C1.6879 15.3694 1.72056 14.8503 1.81497 14.3407C1.82667 14.2893 1.84687 14.2402 1.87474 14.1954L2.12709 13.7891C2.15903 13.7379 2.20038 13.6931 2.24896 13.6571L2.71654 13.3103C3.63479 12.8835 4.61252 12.5985 5.61622 12.4649L5.87252 12.4181L9.81382 11.7891C9.93962 11.7693 10.0682 11.8001 10.1712 11.875C10.2741 11.9499 10.3431 12.0626 10.363 12.1884C10.3829 12.3141 10.352 12.4427 10.2772 12.5457C10.2023 12.6487 10.0896 12.7177 9.96382 12.7376L5.78922 13.4095C4.90792 13.5261 4.04692 13.7643 3.23101 14.1173L2.89546 14.3712L2.73453 14.6306C2.67492 15.0412 2.65582 15.4568 2.6775 15.8712C2.6814 16.097 2.68492 16.3181 2.67789 16.5259L2.67869 17.2384C2.67949 17.5368 2.68029 17.8384 2.6783 18.0907C2.69342 18.2663 2.71741 18.441 2.75017 18.6141L2.95486 18.9204C3.16895 19.1319 3.40477 19.3201 3.65837 19.4821C3.81267 19.5907 3.96345 19.697 4.09742 19.804L7.44902 22.2618C7.74262 22.482 8.06172 22.6658 8.39942 22.8095L8.53852 22.8759C9.61842 23.0215 10.715 22.9883 11.7842 22.7775C12.201 22.7071 12.7896 22.615 13.3558 22.5259L26.839 20.3759C27.4757 20.2634 28.1439 20.1626 28.8202 20.0618C30.3022 19.8739 31.7701 19.5886 33.2146 19.2079L33.7186 18.9759L34.0694 18.715L34.2327 18.4525C34.2829 18.1201 34.3009 17.7836 34.2862 17.4478C34.285 17.3243 34.2842 17.2048 34.2858 17.0954V15.5235C34.3002 15.1717 34.2759 14.8193 34.2135 14.4727C34.1159 14.3106 34.0013 14.1592 33.8717 14.0212C33.8124 13.9759 33.7001 13.8954 33.5854 13.8126C33.4436 13.7102 33.2983 13.6048 33.2088 13.5352L29.7807 11.0204C29.5011 10.7959 29.2008 10.5984 28.8838 10.4306L28.4349 10.2165C28.0028 10.1313 27.5624 10.0959 27.1221 10.111C27.0594 10.1172 26.9961 10.111 26.9358 10.0928C26.8754 10.0745 26.8193 10.0445 26.7705 10.0046C26.7218 9.96456 26.6814 9.91536 26.6518 9.85976C26.6221 9.80416 26.6036 9.74326 26.5974 9.68056C26.5913 9.61786 26.5975 9.55446 26.6159 9.49416C26.6341 9.43386 26.6642 9.37776 26.7043 9.32906C26.7443 9.28046 26.7935 9.24006 26.8491 9.21046C26.9046 9.18076 26.9657 9.16236 27.0284 9.15626C27.582 9.13126 28.1367 9.17476 28.6796 9.28596C28.7185 9.29376 28.7565 9.30636 28.7924 9.32346L29.2861 9.55866C29.6654 9.75266 30.024 9.98476 30.3562 10.2516L33.7873 12.7696C33.8807 12.8415 34.0159 12.9392 34.1476 13.0345C34.2698 13.1227 34.3894 13.2087 34.4674 13.2681C34.6982 13.4888 34.8979 13.7398 35.0611 14.0142C35.0928 14.0627 35.1162 14.116 35.1308 14.172C35.2264 14.625 35.265 15.0882 35.2456 15.5509L35.2463 17.4407C35.2688 17.8836 35.235 18.3275 35.1455 18.7618C35.1331 18.8078 35.1143 18.8517 35.0894 18.8923L34.837 19.2993C34.8052 19.3507 34.7637 19.3955 34.715 19.4313L34.2476 19.7782C34.2192 19.7999 34.1881 19.818 34.1553 19.8321L33.5467 20.1063C32.0411 20.5127 30.5095 20.815 28.9624 21.011C28.2952 21.111 27.6351 21.2094 26.9987 21.3227L13.5044 23.4743C12.9419 23.5626 12.3573 23.6548 11.9314 23.7259C11.1607 23.8501 10.3822 23.9208 9.60172 23.9376Z" fill="#0055BA"/>
<path d="M24.4566 13.7478C24.1082 13.7524 23.7601 13.7233 23.4172 13.6611L22.7664 13.5267C22.7362 13.5201 22.7066 13.5107 22.6781 13.4986C22.6402 13.4829 22.4988 13.4165 22.3598 13.3509C22.2434 13.2955 22.1289 13.2415 22.0934 13.2259C21.9882 13.1807 21.9028 13.0992 21.8527 12.9962L21.8523 12.997C21.8228 12.9631 21.795 12.9276 21.7691 12.8908C21.6988 12.7962 21.6367 12.7041 21.625 12.6822C21.5891 12.6137 21.5703 12.5376 21.5703 12.4603V3.95017C21.6219 3.47768 21.8117 3.03091 22.116 2.66579C22.1575 2.61889 22.2076 2.58043 22.2637 2.55251C22.3332 2.51811 22.4453 2.45331 22.5602 2.38691C22.7137 2.29862 22.8711 2.20878 22.9621 2.16581C23.452 2.01791 23.9586 1.93234 24.4699 1.91113C24.9788 1.91787 25.4853 1.98128 25.9801 2.10019L26.2281 2.21113C26.4336 2.308 26.6934 2.43144 26.8258 2.51193C26.8806 2.54511 26.9281 2.58894 26.9656 2.64083L27.3906 3.23458C27.4294 3.28824 27.4564 3.34947 27.4699 3.41427L27.5465 3.77521C27.5539 3.80907 27.5574 3.84366 27.557 3.87833C27.552 4.44864 27.5543 5.74785 27.5567 6.99315C27.5583 8.09785 27.5602 9.16035 27.557 9.63615V12.3846C27.5569 12.4734 27.5323 12.5605 27.4859 12.6362C27.4731 12.6643 27.4555 12.7073 27.4387 12.7487C27.4054 12.8523 27.3538 12.9492 27.2863 13.0346C27.2513 13.0744 27.2099 13.1079 27.1637 13.1338L26.6543 13.4213C26.618 13.4416 26.5793 13.4573 26.5391 13.4682L25.7469 13.6666C25.3188 13.7186 24.8879 13.7457 24.4566 13.7478ZM23.0121 12.597L23.6129 12.7213C24.2633 12.812 24.9231 12.8131 25.5738 12.7244L26.2387 12.5533L26.5539 12.3759C26.5695 12.3377 26.5836 12.3041 26.5969 12.2728V9.63295C26.6004 9.15485 26.5985 8.09625 26.5965 6.99465C26.5941 5.78295 26.5922 4.51888 26.5965 3.92279L26.541 3.69622L26.248 3.28763C26.1285 3.22435 25.9594 3.14545 25.8199 3.0806L25.6336 2.99153C25.2526 2.91986 24.8664 2.87936 24.4789 2.87045C24.0877 2.8899 23.6998 2.95146 23.3219 3.05404C23.2961 3.06966 23.1664 3.14545 23.0394 3.21884C22.9496 3.27041 22.8609 3.32118 22.7875 3.36182C22.65 3.55312 22.5606 3.77474 22.527 4.0079L22.5402 12.3181C22.5609 12.3462 22.582 12.3759 22.602 12.4033C22.652 12.4267 22.7109 12.4548 22.77 12.483C22.8633 12.5267 22.957 12.5713 23.0121 12.5971V12.597Z" fill="#0055BA"/>
<path d="M12.5521 15.699L11.5189 15.6498L10.6104 15.4662C10.5718 15.4583 10.5343 15.446 10.4986 15.4295L9.91925 15.1599C9.85555 15.1296 9.79925 15.0855 9.75445 15.031C9.73765 15.0107 9.68135 14.9326 9.62355 14.8498C9.58215 14.7904 9.53875 14.7279 9.51965 14.7029C9.45265 14.6157 9.41465 14.5097 9.41105 14.3998C9.40945 13.2701 9.41025 11.8404 9.41145 10.3928C9.41265 8.78572 9.41385 7.15682 9.41105 5.88962C9.46245 5.41762 9.65215 4.97135 9.95635 4.60684C9.99515 4.5629 10.0417 4.52637 10.0936 4.49902C10.1521 4.46778 10.2432 4.41543 10.3408 4.35918C10.5127 4.25998 10.7029 4.15215 10.8057 4.1045C11.2945 3.95769 11.7997 3.87239 12.3096 3.85059C12.8179 3.85397 13.3242 3.91717 13.8178 4.03887C13.8416 4.0459 13.9217 4.08106 13.9439 4.09122C14.1514 4.18809 14.5037 4.35371 14.6643 4.44981C14.7185 4.48259 14.7658 4.52557 14.8037 4.57637L15.1818 5.10452C15.3982 5.28102 15.4205 5.62712 15.399 9.61932C15.3979 9.85842 15.3967 10.0177 15.3974 10.0537C15.4002 10.492 15.3986 11.2436 15.3974 12.0209C15.3958 12.9029 15.3939 13.8178 15.3978 14.3201C15.3982 14.3893 15.3838 14.4577 15.3556 14.5209L15.2072 14.8514C15.1651 14.9455 15.0939 15.0235 15.0041 15.074L14.4947 15.3608C14.4586 15.3809 14.4201 15.3967 14.3802 15.4076L13.5881 15.606C13.5612 15.6132 13.5337 15.6176 13.506 15.6193L12.5521 15.699ZM10.8568 14.5373L11.6389 14.6998L12.5393 14.7412L13.3889 14.6662L14.0799 14.4928L14.3955 14.3154L14.4373 14.2224C14.4342 13.7021 14.4357 12.8467 14.4373 12.0193C14.4389 11.2451 14.44 10.4951 14.4377 10.0709C14.4373 10.0678 14.4377 9.89042 14.4393 9.61462C14.4514 7.36072 14.4389 6.03342 14.4017 5.66392L14.0893 5.22792C13.9318 5.14352 13.6904 5.03262 13.5389 4.96154C13.1389 4.87706 12.7325 4.82637 12.324 4.80998C11.9314 4.82949 11.5421 4.89104 11.1627 4.99357C11.1232 5.01542 10.9643 5.10762 10.8197 5.19122C10.7513 5.23032 10.6861 5.26782 10.6307 5.29902C10.4922 5.49062 10.402 5.71282 10.3678 5.94672C10.3736 7.15602 10.3724 8.78572 10.3717 10.3935C10.3705 11.7756 10.3697 13.1404 10.3709 14.2435L10.4111 14.3006L10.4416 14.3435L10.8568 14.5373Z" fill="#0055BA"/>
<path d="M50.6486 40.4511L50.5206 39.5863L50.4398 39.3199L50.2502 38.6863L49.9974 38.2839L49.6966 37.9063L49.2926 37.5335L48.8374 37.1999L48.3814 36.8655L47.9254 36.5311L47.4694 36.1967L47.015 35.8631L46.559 35.5287L46.103 35.1943L45.647 34.8599L45.1918 34.5263L44.7366 34.1919L44.2806 33.8575L43.8246 33.5231L43.3686 33.1895L42.9142 32.8551L42.4582 32.5207L42.0022 32.1863L41.5462 31.8527L41.091 31.5183L40.6358 31.1839L40.1798 30.8495L39.7238 30.5159L39.2678 30.1815L38.8398 29.9439L38.4286 29.7863L38.0582 29.7383H37.5846L37.0782 29.8191L36.571 29.8999L36.0638 29.9807L35.5574 30.0615L35.051 30.1423L34.5446 30.2231L34.0374 30.3039L33.531 30.3847L33.0246 30.4655L32.5174 30.5463L32.011 30.6271L31.5046 30.7079L30.9974 30.7887L30.491 30.8695L29.9846 30.9503L29.4774 31.0311L28.971 31.1119L28.4646 31.1927L28.0126 31.3399L27.6718 31.6215L27.4478 31.8247L27.3198 32.1303L27.147 32.5751L27.019 33.3719L26.9766 34.4263V35.6079V36.7903V37.9719V39.1543V40.3359V41.5175V42.6999V43.8815V45.0639V46.2455V47.4279V48.6095V49.7919V50.9735V52.1559V53.3375V54.5199V55.7015L27.019 56.7775L27.147 57.6423L27.2278 57.9087L27.4174 58.5431L27.6702 58.9455L27.9718 59.3223L28.375 59.6951L28.831 60.0295L29.2862 60.3639L29.7422 60.6975L30.1974 61.0319L30.6534 61.3663L31.1094 61.7007L31.5646 62.0343L32.0206 62.3687L32.4758 62.7031L32.9318 63.0375L33.387 63.3711L33.843 63.7055L34.2982 64.0399L34.7542 64.3743L35.2102 64.7079L35.6654 65.0423L36.1206 65.3767L36.5766 65.7111L37.0326 66.0447L37.4886 66.3791L37.9438 66.7135L38.399 67.0479L38.8278 67.2855L39.2382 67.4423L39.6102 67.4911H40.0838L40.5902 67.4103L41.0966 67.3295L41.5478 67.1815L41.8894 66.9007L42.1134 66.6967L42.2414 66.3911L42.4142 65.9471L42.5422 65.1495L42.5486 64.9991L44.9534 64.6159L45.139 64.7519L45.5942 65.0863L46.0502 65.4207L46.5062 65.7551L46.9342 65.9927L47.3454 66.1495L47.7158 66.1983H48.1894L48.6966 66.1175L49.2038 66.0367L49.655 65.8887L49.9966 65.6079L50.2206 65.4039L50.3486 65.0983L50.5206 64.6543L50.6486 63.8567L50.691 62.8031V61.6207V60.4391V59.2575V58.0751V56.8935V55.7111V54.5295V53.3471V52.1655V50.9831V49.8015V48.6191V47.4375V46.2551V45.0735V43.8911V42.7095V41.5271L50.6486 40.4511Z" fill="white"/>
<path d="M29.5619 31.22C29.47 31.2735 27.8002 31.7538 27.6836 31.8218C27.7746 31.9261 38.1078 39.1065 38.4261 39.4977C39.0822 40.3042 40.2782 40.8568 40.2766 41.9081C40.2654 49.4546 40.2614 57.0011 40.2645 64.5477C40.2643 64.9578 40.2688 65.37 40.2314 65.7775C40.2807 66.4251 40.1104 67.0704 39.7481 67.6094C40.1546 67.554 40.478 67.5008 40.8033 67.4672C41.9691 67.347 42.4 66.6975 42.5526 65.6402C42.6355 65.0656 42.6323 65.0651 43.2075 64.9817C43.2444 64.9763 43.2819 64.9749 43.3187 64.969C44.3966 64.7959 45.4744 64.6223 46.5816 64.4442V64.0928C46.5816 56.136 46.5834 48.1792 46.587 40.2224C46.5936 40.1197 46.5721 40.017 46.5249 39.9256C46.4776 39.8341 46.4063 39.7572 46.3187 39.7032C43.4191 37.5867 35.0734 32.5065 37.6364 33.3312C39.7678 34.5088 41.8005 35.8569 43.7146 37.3621C45.1836 38.4704 46.5774 39.269 46.587 40.2224C46.7368 55.1463 42.5487 64.901 47.2745 65.9983C50.0886 66.6517 49.7209 54.0749 49.7209 39.3073C49.7638 38.7986 39.0108 31.3454 39.3594 30.9076C39.5615 30.6538 35.7426 30.4954 35.9411 30.2753C35.9571 30.2753 35.92 30.2708 35.8843 30.2759C34.7833 30.4319 33.6828 30.5919 32.5812 30.7439C32.2522 30.7894 31.9178 30.7978 31.5903 30.8507L29.5619 31.22Z" fill="#8FB8E2"/>
<path d="M47.5355 66.1906C47.8517 65.5252 47.9951 64.7909 47.9526 64.0555C47.971 63.7705 47.9683 63.484 47.9688 63.1982C47.9813 55.9267 47.9931 48.6552 48.0041 41.3836C48.0589 40.5945 47.9848 39.8017 47.7846 39.0364C47.56 38.2505 47.0808 37.5614 46.4222 37.0772C44.8752 35.9796 43.363 34.8329 41.8251 33.7221C40.457 32.734 39.0914 31.7403 37.6861 30.8072C37.2487 30.5168 36.4232 30.6356 35.9162 30.4515C35.8035 30.4105 35.9469 30.1668 35.8281 30.0622C36.4396 29.9649 37.0513 29.8676 37.6628 29.7704C37.9117 29.7543 38.1613 29.789 38.3964 29.8723C38.6315 29.9557 38.8472 30.0859 39.0304 30.2552C42.1787 32.5328 45.3157 34.826 48.4413 37.135C48.8646 37.4374 49.2513 37.788 49.5937 38.1797C50.0743 38.8795 50.3308 39.7089 50.3294 40.5579C50.3495 40.7558 50.3587 40.9547 50.3568 41.1537C50.358 48.4758 50.354 55.7978 50.3446 63.1199C50.317 63.7501 50.2171 64.375 50.0472 64.9825C49.9819 65.2316 49.8457 65.4563 49.6549 65.6292C49.4641 65.8022 49.2271 65.9159 48.9729 65.9565C48.5223 66.0617 48.0578 66.1081 47.5355 66.1906Z" fill="#8FB8E2"/>
<path d="M39.745 67.9735C39.5395 67.9752 39.3344 67.9545 39.1334 67.9117C38.511 67.6895 37.9332 67.358 37.4271 66.9328L30.3684 61.7531C30.0591 61.5141 29.7408 61.2875 29.4197 61.0594C28.7978 60.6367 28.2041 60.1737 27.6427 59.6735C27.3999 59.3905 27.1821 59.087 26.9916 58.7664C26.9193 58.5797 26.8587 58.3887 26.8099 58.1945C26.7689 58.0445 26.7305 57.8969 26.7001 57.8211C26.5719 57.1235 26.5035 56.4163 26.4955 55.707V52.1555C26.5088 49.7274 26.5012 47.2899 26.4934 44.85C26.4817 41.0781 26.4696 37.1774 26.538 33.3641L26.6721 32.4992C26.6798 32.4496 26.6955 32.4016 26.7185 32.357C26.7482 32.2985 26.7899 32.1805 26.8344 32.0594C26.8894 31.9022 26.9527 31.7481 27.024 31.5977C27.0369 31.5741 27.0518 31.5516 27.0685 31.5305C27.1941 31.3876 27.3357 31.2596 27.4907 31.1492C27.5633 31.0922 27.633 31.0398 27.6756 30.9984C27.7206 30.9539 27.7742 30.9188 27.833 30.8953C28.262 30.7468 28.706 30.6462 29.1572 30.5953L36.4958 29.4258C37.8935 29.1687 38.6911 29.082 40.0224 30.1406L49.12 36.8133C49.5655 37.0753 49.9536 37.4244 50.2611 37.8397C50.5686 38.255 50.7892 38.728 50.91 39.2305C51.132 40.1849 51.219 41.1659 51.1685 42.1445L51.1702 61.6219C51.167 61.8297 51.1677 62.0391 51.1685 62.2531C51.2652 63.4038 51.0855 64.561 50.6442 65.6281C50.615 65.6839 50.575 65.7333 50.5264 65.7734C50.467 65.8234 50.3997 65.8836 50.3302 65.9453C50.1982 66.0641 50.0583 66.1883 49.938 66.2766C49.8967 66.3069 49.8509 66.3304 49.8022 66.3461L49.3513 66.493L49.0396 66.55C48.4496 66.6865 47.8391 66.7098 47.2405 66.6188C46.5385 66.3546 45.8881 65.9699 45.3186 65.482C45.1569 65.3578 44.9967 65.2359 44.8366 65.1211L42.9826 65.4164L42.8872 66.0242C42.8794 66.0721 42.8645 66.1184 42.8428 66.1617C42.8131 66.2219 42.7717 66.3383 42.7271 66.4578C42.6715 66.6165 42.6075 66.7722 42.5356 66.9242C42.5076 66.9766 42.4701 67.0233 42.4248 67.0617L42.2645 67.2032C42.1216 67.3305 41.9623 67.4712 41.8349 67.5664C41.7931 67.5978 41.7464 67.6221 41.6967 67.6383L41.245 67.786L40.938 67.8422C40.5446 67.9185 40.1456 67.9624 39.745 67.9735ZM27.6094 32.7148L27.492 33.4484C27.4298 37.1852 27.4418 41.0797 27.4536 44.8468C27.461 47.289 27.4688 49.7296 27.4555 52.1586V55.7031C27.4626 56.3184 27.5158 56.9324 27.6145 57.5398C27.6623 57.6714 27.7028 57.8054 27.736 57.9414C27.7805 58.1047 27.8244 58.2727 27.8603 58.3594C28.0066 58.5885 28.1669 58.8082 28.3407 59.0172C28.8608 59.4688 29.4069 59.8896 29.9762 60.2773C30.3079 60.5133 30.6364 60.7477 30.9458 60.9867L38.002 66.1641C38.4112 66.5101 38.8744 66.7867 39.3731 66.9828C39.8435 67.0324 40.3188 67.0028 40.7794 66.8953L41.0209 66.8555L41.3162 66.7539C41.4131 66.6765 41.524 66.5765 41.6264 66.4859L41.7209 66.4031C41.7529 66.3273 41.7895 66.2234 41.827 66.1234C41.8708 66.0062 41.9138 65.8921 41.949 65.8085L42.0677 65.0734L42.0694 65.0406C42.0661 65.0041 42.067 64.9674 42.0724 64.9312C42.1239 63.1218 42.1147 61.1781 42.1053 59.2976C42.0998 58.1281 42.0943 56.964 42.1045 55.8187V44.5375C42.1068 43.618 42.1091 42.575 42.063 41.7719C42.002 41.5219 41.7646 40.3821 41.7646 40.3821C41.5849 39.6961 40.8427 39.161 40.188 38.6891L32.7345 33.2352C32.6767 33.1953 32.6283 33.1432 32.5928 33.0825C32.5573 33.0218 32.5355 32.9541 32.5292 32.8841C32.5228 32.8141 32.5319 32.7435 32.5559 32.6774C32.5798 32.6113 32.618 32.5513 32.6678 32.5016C32.7799 32.3891 32.7799 32.3891 34.3955 32.1336C34.9811 32.0406 35.5325 31.9531 35.5841 31.9445C35.613 31.9399 35.6396 31.9391 35.674 31.9367C35.7357 31.9361 35.7973 31.9406 35.8583 31.95L36.0139 31.9703C36.1708 31.9782 36.326 32.0066 36.4756 32.0547C37.0662 32.275 37.1271 32.3078 37.2122 32.3938L46.7928 39.4141C46.8537 39.4585 46.9031 39.5167 46.9371 39.5839C46.9712 39.6511 46.9889 39.7254 46.9888 39.8008V65.4711C47.1495 65.5607 47.3182 65.6353 47.4927 65.6938C47.9573 65.7404 48.4265 65.7098 48.8811 65.6031L49.1279 65.5625L49.424 65.4609C49.5083 65.3937 49.6006 65.3101 49.6897 65.2305C49.7397 65.1859 49.788 65.143 49.8341 65.1023C50.1576 64.1905 50.2852 63.2207 50.2084 62.2562C50.2076 62.0351 50.2068 61.8203 50.2108 61.614L50.2084 42.1437C50.2547 41.2438 50.1779 40.3417 49.9803 39.4625C49.8846 39.0719 49.71 38.705 49.4672 38.3845C49.2244 38.0639 48.9186 37.7964 48.5686 37.5984L39.4395 30.9031C38.4169 30.0899 37.9888 30.1266 36.6584 30.3719L29.3013 31.5445C28.9504 31.5875 28.6035 31.659 28.2642 31.7586C28.2111 31.8039 28.1473 31.8539 28.0813 31.9055C28.0114 31.9602 27.902 32.0453 27.8481 32.0969C27.8153 32.1711 27.7751 32.2844 27.7348 32.3938C27.6903 32.5133 27.6458 32.6297 27.6094 32.7148ZM44.9529 64.1367C45.0492 64.1365 45.1434 64.1654 45.2231 64.2195C45.4489 64.3734 45.674 64.5453 45.9014 64.7195C45.9443 64.7515 45.9865 64.7844 46.0294 64.8172V40.0438L36.5896 33.1195C36.5498 33.1055 36.2778 33.0055 36.1661 32.9641L35.8755 32.9203C35.813 32.911 35.7545 32.9016 35.7084 32.8945C35.5607 32.9203 35.2505 32.9695 34.5454 33.0813C34.4411 33.0985 34.3352 33.1149 34.2309 33.1313L40.7498 37.9102C41.6407 38.413 42.3296 39.2093 42.699 40.1633C42.7045 40.1867 42.9396 41.3188 43.0107 41.6414C43.0693 42.5485 43.0669 43.6062 43.0645 44.5398L43.0638 55.8226C43.0544 56.9679 43.0598 58.1281 43.0653 59.2929C43.0731 60.9883 43.0818 62.7344 43.042 64.4351L44.877 64.1422C44.9021 64.1384 44.9276 64.1366 44.9529 64.1367Z" fill="#0055BA"/>
</svg>
