<svg width="63" height="68" viewBox="0 0 63 68" fill="none" xmlns="http://www.w3.org/2000/svg">
<g clip-path="url(#clip0_25_2933)">
<path d="M2.49219 15.052C2.49219 15.052 2.55429 39.7592 2.49579 48.4473C2.48069 50.6825 7.64979 53.1819 7.64979 53.1819L54.7692 45.8869L54.6644 8.9315L47.2426 6.4541L3.08959 13.7624L2.49219 15.052Z" fill="white"/>
<path d="M20.3045 10.6461C20.3045 10.6461 18.6391 0.133924 34.4178 0.797744C34.4178 0.797744 39.0646 1.48364 39.2689 9.20881C39.2689 9.20881 36.9199 11.0616 35.5923 9.58072L34.473 5.32881L32.5806 4.68591C32.5806 4.68591 24.6944 4.77552 24.5774 8.83772C24.6091 10.019 24.3589 11.1909 23.8476 12.2563C23.8476 12.2563 21.255 13.0902 20.3045 10.6461Z" fill="white"/>
<path d="M52.9897 44.2392C52.994 41.6663 52.9972 39.0934 52.9994 36.5204C53.0009 34.3471 53.0026 32.1738 52.9915 30.0005C52.9909 29.8837 53.1626 29.5579 52.7684 29.6801C53.1133 29.3792 53.4295 29.0469 53.7131 28.6875C53.6956 28.6411 53.6933 28.6024 53.6762 28.5941C52.9038 28.2181 52.9746 27.5604 53.0506 26.8629C53.089 26.3184 53.0942 25.7722 53.0664 25.2271C53.0636 25.018 53.0032 24.8094 53.0027 24.6005C52.9976 22.4937 53.0097 20.3871 52.9963 18.2805C52.9865 16.7385 52.9495 15.1965 52.9178 13.6546C52.9043 13.0079 52.7805 12.9299 52.1477 12.8899C50.6476 12.8544 49.1482 12.9871 47.6775 13.2852C46.4857 13.4765 45.2836 13.6044 44.0891 13.7806C42.9351 13.9508 41.7863 14.1557 40.6328 14.3291C39.3092 14.5279 37.9817 14.6997 36.6585 14.8999C35.1552 15.1274 33.6561 15.3814 32.1529 15.6089C30.8297 15.8092 29.502 15.9796 28.179 16.1801C26.87 16.3784 25.5652 16.604 24.2568 16.8059C23.1418 16.978 22.0235 17.1287 20.908 17.2976C19.7286 17.4762 16.2499 17.9144 15.0688 18.0805C14.3005 18.1885 13.5271 18.2674 12.7535 18.3271C12.0802 18.379 11.4028 18.4173 10.7285 18.4024C10.1887 18.3822 9.65118 18.3219 9.12028 18.2218C8.39578 18.0963 8.04708 17.4878 7.65438 16.9671C6.99098 15.9582 6.17508 15.0582 5.23578 14.2994C4.71558 13.9868 4.17177 13.7152 3.60938 13.487C9.03247 12.4579 20.6755 10.6704 20.6543 10.972C20.5904 11.8784 24.1873 12.1436 24.8371 11.9636C24.8371 11.7954 24.9475 11.5757 24.8372 11.4301C23.1563 9.20862 31.8452 9.01443 34.7096 8.55923C34.7096 8.74872 34.9262 9.16282 34.9011 9.31242C34.8376 9.69102 35.0573 9.72583 35.3735 9.79753C37.3183 10.349 37.3152 6.76463 36.9011 5.80183C36.39 4.61343 35.3775 2.85816 34.1506 2.57972C33.1808 2.37266 32.1791 2.36232 31.2052 2.54932C30.1916 2.7746 29.1351 2.71042 28.1562 2.36412C27.9612 2.28676 27.7464 2.25781 27.5545 2.1748C27.4372 2.10607 27.3293 2.02268 27.233 1.92665C27.3317 1.81324 27.4122 1.62838 27.5321 1.59762C28.5693 1.33162 29.6077 1.06349 30.6579 0.857856C31.3077 0.743986 31.9646 0.675246 32.6239 0.652156C35.2516 0.509246 38.2574 3.65672 38.6352 6.28372C38.6786 6.58562 38.7245 6.88713 38.776 7.23472C39.541 7.11473 38.8578 7.91762 39.6024 7.80102C42.5632 7.33763 45.5186 6.83603 48.4873 6.43033C49.6481 6.17383 50.8582 6.25962 51.9711 6.67742C52.4623 6.90482 52.9202 7.19852 53.3319 7.55013C54.2753 8.35512 55.0591 9.33033 55.6425 10.4248C55.9046 10.9181 56.0486 11.4655 56.0634 12.0239C56.0997 16.6367 56.1045 21.2497 56.0783 25.8629C56.0912 26.8081 55.7409 27.7225 55.0996 28.4173C54.943 28.6047 54.8555 28.8402 54.8517 29.0843C54.8377 33.7242 54.8345 38.3642 54.8417 43.0042C54.8418 43.2257 54.8394 43.4466 54.8236 43.6661L52.9897 44.2392Z" fill="#FFB7A4"/>
<path d="M8.77435 53.6401C8.56105 53.6401 8.30715 53.6237 8.02195 53.6026C7.88295 53.5924 7.75715 53.5823 7.66335 53.5799C7.60515 53.5782 7.54775 53.5661 7.49385 53.544L6.71025 53.2205C6.67405 53.2056 6.63975 53.1864 6.60795 53.1635L4.75085 51.801C4.46495 51.5877 4.12355 51.3393 3.78455 51.0916C3.46885 50.8619 3.15555 50.633 2.89155 50.4369C2.85475 50.4095 2.82205 50.3769 2.79465 50.34C2.38035 49.9117 2.12315 49.3558 2.06495 48.7627L2.02355 48.533C2.01825 48.505 2.01555 48.4764 2.01575 48.4479C2.00945 46.6885 2.01185 39.069 2.01415 31.8877L2.01725 22.9877C2.01725 20.5846 2.01725 18.8104 2.01575 18.1955C2.01555 18.1657 2.01815 18.1358 2.02355 18.1065C2.15685 17.3798 2.48065 16.7015 2.96185 16.1409C3.10665 15.9621 3.28905 15.8172 3.49595 15.7165C3.70285 15.6158 3.92935 15.5617 4.15945 15.558H4.16575C4.38575 15.5582 4.60315 15.6051 4.80375 15.6956C5.00425 15.7861 5.18325 15.9182 5.32895 16.083C5.85075 16.7054 6.29975 17.3853 6.66725 18.1096C6.84205 18.4369 6.93805 18.8004 6.94775 19.1713C6.96575 19.8697 6.94305 20.9862 6.94305 20.9862V51.1432L7.12505 51.9151L7.41105 52.3182L7.93055 52.5955C7.95385 52.6078 7.97605 52.6219 7.99695 52.6377L8.09225 52.6448C8.39555 52.6784 8.70115 52.6849 9.00555 52.6643L52.3072 45.8893C52.4049 45.851 52.551 45.7994 52.6994 45.7471C52.8369 45.6987 52.9767 45.6502 53.0697 45.6143C53.151 45.5432 53.2557 45.4557 53.3627 45.3666C53.4861 45.2635 53.6135 45.1581 53.7057 45.076L54.0549 44.4401L54.19 43.569L54.1846 28.6768C54.1847 28.549 54.2355 28.4265 54.326 28.3362C54.6363 28.0259 54.9165 27.6869 55.1627 27.3237C55.1758 27.2417 55.1938 27.1605 55.2166 27.0807C55.2463 26.9674 55.2744 26.8643 55.2939 26.8088C55.3314 26.676 55.3978 26.2627 55.4283 26.0401L55.4783 25.4198C55.5469 24.8388 55.5663 24.2532 55.5361 23.669C55.5291 23.3307 55.5229 23.0081 55.5315 22.7385C55.5268 20.1479 55.5268 17.2081 55.5268 14.6026C55.5174 14.2581 55.5229 13.8901 55.5284 13.5182C55.5723 12.6785 55.5241 11.8365 55.3846 11.0073C55.0786 10.3367 54.6831 9.71062 54.2088 9.14632C53.603 8.32202 52.8483 7.61832 51.9838 7.07132C51.7289 6.95502 51.4644 6.86112 51.1932 6.79092C51.0912 6.78502 50.99 6.76962 50.8908 6.74482C50.794 6.72472 50.6962 6.70952 50.5979 6.69942C50.5616 6.69802 50.5257 6.69222 50.4908 6.68232C50.1101 6.63332 49.7246 6.63382 49.344 6.68392C49.1354 6.69952 48.9416 6.71432 48.7869 6.71592C46.6189 7.01432 44.8268 7.30732 42.9291 7.61822C41.7838 7.80492 40.5987 7.99952 39.2533 8.20572C39.1911 8.21532 39.1275 8.21242 39.0663 8.19742C39.0051 8.18242 38.9475 8.15552 38.8967 8.11822C38.846 8.08092 38.803 8.03402 38.7704 7.98012C38.7377 7.92622 38.716 7.86642 38.7065 7.80412C38.6969 7.74192 38.6997 7.67832 38.7148 7.61712C38.7298 7.55602 38.7567 7.49832 38.794 7.44752C38.8313 7.39682 38.8782 7.35382 38.9321 7.32122C38.986 7.28852 39.0458 7.26682 39.108 7.25732C40.4494 7.05102 41.6322 6.85732 42.7744 6.67052C44.6783 6.35882 46.4768 6.06432 48.7158 5.76042C48.9127 5.75412 49.0854 5.74092 49.2705 5.72682C49.7447 5.66502 50.2254 5.67102 50.6979 5.74482C50.7963 5.75412 50.9299 5.77602 51.0604 5.80022C51.1612 5.81822 51.2596 5.83702 51.3252 5.84162C51.7114 5.92882 52.0866 6.05882 52.444 6.22912C53.4255 6.84072 54.2828 7.63222 54.9705 8.56192C55.5199 9.21882 55.9696 9.95292 56.3049 10.7408C56.4744 11.6608 56.5357 12.5973 56.4877 13.5315C56.4831 13.8908 56.4776 14.2463 56.4862 14.5908C56.4862 17.208 56.4862 20.1463 56.4909 22.7534C56.4823 23.0244 56.4893 23.3299 56.4956 23.6494C56.5291 24.2806 56.5069 24.9136 56.4292 25.5408L56.3823 26.144C56.3415 26.4673 56.2828 26.7881 56.2065 27.1049C56.1831 27.1737 56.1659 27.2448 56.1456 27.3221C56.1101 27.4877 56.0586 27.6494 55.9917 27.8049C55.7408 28.1847 55.4572 28.5418 55.144 28.8721V43.6424L54.994 44.6455C54.9879 44.6868 54.976 44.7271 54.9588 44.7651L54.8502 45.0119L54.4979 45.6237C54.474 45.6641 54.4446 45.7009 54.4104 45.733C54.3088 45.8268 54.1408 45.9682 53.9776 46.1034C53.8502 46.2096 53.7268 46.3127 53.6494 46.383C53.6111 46.4181 53.5673 46.4466 53.5198 46.4674C53.426 46.508 53.2205 46.5815 53.0181 46.6526C52.858 46.7088 52.6994 46.7643 52.6198 46.7979C52.5841 46.8126 52.5469 46.823 52.5088 46.8291L9.17435 53.6088C9.04235 53.6323 8.90835 53.6428 8.77435 53.6401ZM3.52045 49.7081C3.76965 49.8932 4.05945 50.1042 4.35015 50.3159C4.69235 50.5651 5.03685 50.8167 5.32195 51.0292L6.05715 51.5682L5.99625 51.3081C5.98775 51.2722 5.98355 51.2355 5.98375 51.1987V20.976C5.98375 20.9635 6.00555 19.8768 5.98835 19.1963C5.98205 18.9747 5.92455 18.7576 5.82035 18.5619C5.48785 17.9039 5.08185 17.2857 4.61025 16.719C4.55455 16.656 4.48605 16.6056 4.40945 16.571C4.33285 16.5364 4.24975 16.5184 4.16575 16.5182C4.08325 16.5127 4.00065 16.5277 3.92535 16.5619C3.85015 16.5961 3.78455 16.6485 3.73445 16.7143C3.35195 17.1471 3.09035 17.6731 2.97585 18.2393C2.97665 18.8947 2.97665 20.6409 2.97665 22.9877L2.97435 31.8877C2.97195 39.0119 2.96965 46.5666 2.97515 48.4025L3.00955 48.5932C3.04365 49.0132 3.22455 49.4079 3.52045 49.708V49.7081Z" fill="#FC7C54"/>
<path d="M24.7685 10.5042C24.6478 10.504 24.5316 10.4585 24.443 10.3765C24.3544 10.2945 24.3 10.1822 24.2905 10.0618C24.2811 9.94151 24.3173 9.82201 24.392 9.72721C24.4667 9.63241 24.5743 9.56921 24.6935 9.55031L34.9326 7.91751C34.995 7.90721 35.0588 7.90941 35.1203 7.92391C35.1818 7.93841 35.2399 7.96501 35.2912 8.00191C35.3424 8.03891 35.3859 8.08571 35.419 8.13951C35.4522 8.19331 35.4744 8.25321 35.4844 8.31561C35.4943 8.37801 35.4919 8.44181 35.4772 8.50331C35.4624 8.56481 35.4357 8.62271 35.3985 8.67391C35.3613 8.72501 35.3144 8.76831 35.2605 8.80121C35.2065 8.83421 35.1466 8.85611 35.0841 8.86591L24.8451 10.4987C24.8197 10.5024 24.7941 10.5043 24.7685 10.5042Z" fill="#FC7C54"/>
<path d="M34.6548 32.6327C34.5339 32.6325 34.4175 32.5868 34.329 32.5045C34.2404 32.4222 34.1862 32.3096 34.1771 32.1891C34.168 32.0686 34.2048 31.949 34.28 31.8544C34.3552 31.7598 34.4634 31.6971 34.5829 31.6789C40.2454 30.807 47.5977 29.7538 52.8782 29.0577C53.3925 28.8768 53.882 28.632 54.3352 28.3289C54.3769 28.283 54.4273 28.2459 54.4835 28.2198C54.5397 28.1937 54.6005 28.1791 54.6625 28.177C54.7244 28.1749 54.7861 28.1852 54.844 28.2074C54.9018 28.2296 54.9546 28.2632 54.9993 28.3062C55.0923 28.3961 55.1466 28.5186 55.1507 28.6479C55.1548 28.7771 55.1083 28.9028 55.0212 28.9984C54.4165 29.4549 53.7337 29.7974 53.0063 30.0092C47.7298 30.7045 40.3852 31.7569 34.7282 32.6272C34.7039 32.631 34.6793 32.6328 34.6548 32.6327Z" fill="#FC7C54"/>
<path d="M2.49504 18.674C2.37824 18.6739 2.26554 18.6312 2.17794 18.554C2.09044 18.4768 2.03394 18.3703 2.01924 18.2545L1.72086 15.8927C1.64412 15.2888 1.77273 14.6766 2.08604 14.1545C2.39934 13.6325 2.87904 13.231 3.44814 13.0146C3.77274 12.8804 4.10744 12.7718 4.44894 12.6896C7.24974 12.192 10.4217 11.731 13.4896 11.2849C15.7677 10.9537 18.1224 10.6115 20.2287 10.267C20.3543 10.2465 20.4828 10.2767 20.5861 10.3509C20.6894 10.4252 20.759 10.5375 20.7795 10.6631C20.8 10.7886 20.7698 10.9172 20.6955 11.0205C20.6212 11.1238 20.5089 11.1933 20.3834 11.2138C18.2693 11.5599 15.9099 11.9029 13.6279 12.2349C10.567 12.6795 7.40284 13.1396 4.62234 13.6341C4.33904 13.7057 4.06144 13.7984 3.79194 13.9115C3.42364 14.0511 3.11314 14.3105 2.91034 14.6481C2.70744 14.9857 2.62424 15.3817 2.67394 15.7724L2.97234 18.1341C2.98814 18.2605 2.95324 18.388 2.87514 18.4886C2.79714 18.5893 2.68224 18.6548 2.55594 18.6709C2.53574 18.6731 2.51534 18.6741 2.49504 18.674Z" fill="#FC7C54"/>
<path d="M30.1385 37.9425C30.0667 37.941 29.995 37.9358 29.9237 37.9269C29.8083 37.9393 29.6917 37.9176 29.5885 37.8644C29.3932 37.7524 29.2113 37.6185 29.0464 37.4652C28.3612 36.8847 28.319 36.7996 28.2901 36.6222C28.2304 36.304 28.2154 35.979 28.2456 35.6566L28.4346 29.7129C28.4355 29.6827 28.4392 29.6526 28.4456 29.623L28.5237 29.2723C28.5359 29.2192 28.5567 29.1685 28.5854 29.1223L28.7838 28.8059C28.8118 28.7616 28.8466 28.722 28.887 28.6887L29.1604 28.4652C29.1947 28.4375 29.2316 28.4132 29.2705 28.3926C29.5819 28.2664 29.9102 28.1866 30.2448 28.1559C30.4065 28.1379 30.7737 28.0762 31.2065 28.0035C32.0288 27.8381 32.8615 27.7293 33.6987 27.6777C33.7465 27.6814 33.7936 27.692 33.8385 27.709C33.926 27.7434 34.1463 27.8598 34.2276 27.9043C34.2577 27.9214 34.286 27.9415 34.312 27.9645L34.6955 28.3043C34.8439 28.4329 34.9689 28.5862 35.0651 28.7574C35.2198 28.9473 35.2479 29.1621 35.1573 31.4777C35.144 31.8074 35.133 32.0598 35.1354 32.1309L35.0174 35.8934C35.0165 35.9238 35.0129 35.9542 35.0065 35.984L34.9284 36.334C34.9168 36.385 34.897 36.4338 34.8698 36.4785L34.6682 36.8012C34.6354 36.8528 34.5933 36.8978 34.5439 36.934L34.2689 37.1348C34.2334 37.1612 34.1942 37.1823 34.1525 37.1973L33.8236 37.3192C33.7951 37.3301 33.7655 37.3379 33.7354 37.3426L33.14 37.4371C32.3244 37.5652 30.8229 37.802 30.3744 37.9059C30.2984 37.9314 30.2187 37.9438 30.1385 37.9425ZM29.9557 36.9644C29.98 36.9668 30.005 36.9699 30.0292 36.9722C30.0573 36.9754 30.0862 36.9793 30.112 36.9816L30.1128 36.9808C30.5222 36.88 31.7597 36.6824 32.9917 36.4886L33.5355 36.4027L33.7573 36.3206L33.9034 36.2136L34.0089 36.0449L34.0597 35.8191L34.1761 32.1386C34.1729 32.1191 34.1823 31.8269 34.1979 31.4402C34.2198 30.8816 34.269 29.6246 34.2417 29.2652L34.2394 29.2621C34.1385 29.2034 34.0639 29.1084 34.0308 28.9965L33.7159 28.7184C33.6698 28.6934 33.6081 28.6605 33.5565 28.6348C33.18 28.6473 32.0128 28.8426 31.3644 28.9504C30.9097 29.027 30.5237 29.091 30.3448 29.1113C30.1367 29.1315 29.9314 29.1739 29.7323 29.2379L29.5558 29.3824L29.4433 29.5621L29.3925 29.7879L29.205 35.6973C29.1901 35.907 29.1916 36.1175 29.2097 36.327C29.3136 36.4262 29.519 36.6082 29.6925 36.7559C29.7752 36.8315 29.8631 36.9012 29.9557 36.9644Z" fill="#FC7C54"/>
<path d="M7.6477 53.6619C7.5215 53.6619 7.4004 53.6121 7.3106 53.5234C7.2208 53.4347 7.1696 53.3142 7.168 53.188C7.1665 53.0618 7.2147 52.94 7.3023 52.8492C7.3899 52.7583 7.5098 52.7056 7.636 52.7025L8.5665 52.6799L52.3797 45.7611L53.1719 45.4439L53.6695 45.015L54.0781 44.3697L54.2039 43.965L54.2922 43.472L54.3336 43.4799C54.2813 42.8314 54.282 41.2002 54.2844 36.8627C54.2867 33.0643 54.2891 28.758 54.2844 28.5791L54.7641 28.5611L55.0891 28.208C55.2492 28.3556 55.2492 28.3556 55.2445 36.8634C55.2429 40.047 55.2406 43.3377 55.2437 43.5392C55.2454 43.5754 55.2428 43.6115 55.2359 43.647L55.1344 44.1947L54.9766 44.715C54.964 44.7555 54.9461 44.7941 54.9234 44.8299L54.4422 45.5892C54.4171 45.6292 54.386 45.665 54.35 45.6955L53.7383 46.2228C53.6983 46.2578 53.6526 46.2855 53.6031 46.3049L52.6859 46.6721C52.6528 46.6856 52.6182 46.6953 52.5828 46.701L8.6531 53.6338L7.6594 53.6619H7.6477Z" fill="#FC7C54"/>
<path d="M9.96087 36.6642C9.46287 36.6649 8.96807 36.5855 8.49527 36.4291C7.69007 36.0901 7.03457 35.4713 6.64997 34.6869L6.52417 34.4845C6.27537 34.1437 6.09397 33.7584 5.98977 33.3494C5.98037 33.2871 5.98327 33.2236 5.99837 33.1624C6.01347 33.1013 6.04047 33.0437 6.07787 32.993C6.11527 32.9423 6.16217 32.8994 6.21617 32.8669C6.27007 32.8343 6.32987 32.8127 6.39217 32.8033C6.45437 32.7938 6.51797 32.7968 6.57907 32.8119C6.64027 32.827 6.69777 32.854 6.74847 32.8914C6.79917 32.9287 6.84207 32.9757 6.87467 33.0296C6.90717 33.0835 6.92877 33.1433 6.93827 33.2056C7.03347 33.4784 7.16707 33.7362 7.33507 33.9712L7.47497 34.1962C7.74827 34.7773 8.21577 35.2448 8.79687 35.5181C9.47207 35.7359 10.194 35.7645 10.8844 35.6009C14.1039 35.0306 17.7609 34.4876 21.2969 33.9618C23.775 33.5938 26.2133 33.2314 28.425 32.8736C28.4871 32.8635 28.5507 32.8658 28.612 32.8803C28.6733 32.8948 28.7311 32.9212 28.7822 32.9581C28.8332 32.9949 28.8766 33.0415 28.9096 33.0951C28.9427 33.1487 28.9649 33.2083 28.975 33.2704C28.985 33.3326 28.9827 33.3962 28.9682 33.4574C28.9537 33.5187 28.9273 33.5766 28.8904 33.6276C28.8536 33.6787 28.807 33.722 28.7535 33.7551C28.6999 33.7882 28.6403 33.8104 28.5781 33.8204C26.3633 34.1798 23.9203 34.5431 21.4383 34.9118C17.9078 35.4361 14.2578 35.9782 11.1055 36.5345C10.7299 36.6196 10.346 36.6631 9.96087 36.6642Z" fill="#FC7C54"/>
<path d="M22.6193 12.7349C21.9618 12.7291 21.3106 12.6055 20.6967 12.3701C20.4224 12.2629 20.1757 12.0955 19.9748 11.8802C19.7334 11.6708 19.77 11.3037 19.8114 10.8849C19.8184 10.8122 19.8264 10.7466 19.8279 10.7029C19.8248 10.6749 19.824 10.6466 19.8256 10.6185C19.8609 9.07716 20.1589 7.55327 20.7067 6.11216C21.5358 4.29387 22.9253 2.78861 24.6717 1.81689C26.3653 1.04557 28.1754 0.561101 30.0279 0.383291L30.306 0.341891C31.9264 0.0130508 33.6048 0.117881 35.1716 0.645791C35.72 0.881411 36.2436 1.17085 36.7348 1.50985C36.7944 1.54667 36.8488 1.59133 36.8965 1.64265L37.4771 2.13329C37.5349 2.18406 37.7512 2.43094 37.9301 2.64109C38.0262 2.75281 38.109 2.85047 38.1395 2.88329C38.1545 2.89813 38.2005 2.95906 38.213 2.97625L38.6997 3.75516C39.204 4.81036 39.5124 5.94836 39.6098 7.11376C39.6614 7.69026 39.724 8.47157 39.749 9.04576C39.7448 9.18316 39.7128 9.31837 39.6549 9.44306C39.597 9.56786 39.5145 9.67955 39.4123 9.77155C39.406 9.77855 39.399 9.78487 39.3927 9.79107C38.9766 10.1185 38.4705 10.311 37.942 10.3427C37.2185 10.4075 36.4895 10.3235 35.7998 10.0958C35.4609 10.0032 35.1503 9.82786 34.8959 9.58556C34.7616 9.47996 34.6707 9.32876 34.6404 9.16057C34.635 9.13177 34.6323 9.10246 34.6325 9.07306L34.6317 8.74887C34.6824 7.85656 34.5928 6.96186 34.3662 6.09726C33.992 5.05046 33.0037 5.08247 31.5434 5.25667L30.7826 5.37156C29.717 5.50587 28.661 5.70727 27.6209 5.97467C25.2451 6.72547 24.817 8.63086 24.8998 11.4591C24.9014 11.5033 24.8966 11.5475 24.8857 11.5903C24.7365 12.1809 24.1701 12.5536 23.2013 12.6981C23.0083 12.7226 22.8139 12.7349 22.6193 12.7349ZM20.7419 11.2919C20.8329 11.3704 20.9364 11.433 21.0481 11.4771C21.69 11.7284 22.3831 11.8211 23.0684 11.7474C23.7075 11.6521 23.8873 11.4841 23.9381 11.3958C23.8678 8.67237 24.2506 6.03326 27.3451 5.05516C28.4294 4.77366 29.5305 4.56207 30.6419 4.42157L31.4106 4.30596C32.7739 4.14576 34.6107 3.92857 35.2732 5.78327C35.5372 6.74876 35.6448 7.75027 35.592 8.74967V8.92626C35.7398 9.04265 35.9088 9.12917 36.0896 9.18097C36.6497 9.36907 37.2425 9.43987 37.831 9.38877C38.1576 9.37337 38.4735 9.26766 38.7435 9.08327C38.7641 9.06367 38.782 9.04125 38.7967 9.01686C38.7662 8.52627 38.7037 7.76216 38.6545 7.20436C38.5709 6.17526 38.3048 5.16916 37.8685 4.23326L37.417 3.51146C37.4123 3.51146 37.3139 3.39656 37.2006 3.26456C37.0615 3.10129 36.8975 2.90832 36.8396 2.85129L36.2248 2.3255C36.1933 2.30456 36.1631 2.28186 36.1342 2.2575C35.7172 1.97766 35.2754 1.73657 34.8145 1.53726C33.4054 1.07581 31.9002 0.99097 30.4482 1.29117L30.1708 1.33257C28.4276 1.4942 26.7233 1.94351 25.127 2.66226C23.5729 3.53716 22.3339 4.87927 21.5857 6.49817C21.0894 7.82067 20.8192 9.21726 20.7865 10.6295C20.7892 10.7467 20.7827 10.864 20.767 10.9803C20.7592 11.0576 20.745 11.1959 20.7419 11.292V11.2919ZM20.5341 11.1068L20.5357 11.1076L20.5341 11.1068ZM35.5318 8.87076L35.5349 8.87387L35.5318 8.87076Z" fill="#FC7C54"/>
<path d="M60.2273 53.5413L60.2265 51.8041L60.2256 50.0678V48.6115L60.2239 47.6454L60.2119 47.1055L60.182 46.8597L60.1444 46.7812L60.1111 46.724L60.0372 46.644L59.9274 46.5536L59.7945 46.4556L59.6509 46.351L59.498 46.2391L59.3334 46.1187L59.1561 45.9886L58.9639 45.8476L58.7558 45.6948L58.5298 45.5292L58.2854 45.3499L58.0217 45.1566L57.7431 44.9521L57.454 44.74L57.1592 44.5237L56.8625 44.3063L56.5652 44.0882L56.2669 43.8695L55.9678 43.65L55.6687 43.4306L55.3739 43.2146L55.0898 43.0062L54.8219 42.8097L54.5741 42.6276L54.3408 42.4567L54.116 42.2919L53.893 42.1283L53.6683 41.9634L53.4521 41.8045L53.2572 41.6614L53.0979 41.5438L52.9825 41.4597L52.9017 41.4104L52.824 41.3833L52.7714 41.3695L52.6484 41.3687L52.5717 41.3778L52.4604 41.2795L52.192 41.1126L51.8622 40.959L51.4772 40.8212L51.0431 40.7018L50.9738 40.7001L50.5106 40.6049L50.0138 40.531L49.4944 40.4784L48.9605 40.4495L48.4201 40.4463L47.8818 40.4672L47.3551 40.5105L46.8505 40.5768L46.3777 40.6664L45.9422 40.7766L45.8624 40.7795L45.4596 40.9112L45.1105 41.0596L44.822 41.2226L44.5979 41.3971L44.4416 41.58L44.3739 41.638L44.2873 41.8293L44.2755 42.0229L44.2399 42.1432L44.2268 42.3536L44.2249 42.6878V42.7031L43.5273 42.8144L42.2049 43.0253L40.9895 43.2192L39.9345 43.3874L39.0802 43.5237L38.4132 43.6301L37.9072 43.7109L37.5355 43.7701L37.2732 43.8131L37.1009 43.8484L36.9995 43.8849L36.9435 43.9296L36.9079 44.0128L36.8862 44.2545L36.8768 44.7923L36.875 45.7582L36.876 47.2145L36.8783 48.9505L36.881 50.6875L36.8833 52.1464L36.8883 53.1173L36.9139 53.6656L36.9818 53.9257L37.0084 53.962L37.0758 54.0174L37.1873 54.1L37.3438 54.2146L37.5351 54.3548L37.7481 54.5111L37.9701 54.6739L38.1912 54.8361L38.4146 54.9999L38.6464 55.1699L38.8929 55.3507L39.1583 55.5455L39.4394 55.7516L39.731 55.9655L40.0278 56.1832L40.3254 56.4015L40.6231 56.6198L40.9207 56.8382L41.2184 57.0565L41.5152 57.2741L41.8068 57.488L42.0879 57.6942L42.3533 57.8889L42.599 58.0691L42.8254 58.2351L43.0339 58.3881L43.2262 58.5291L43.4038 58.6593L43.5677 58.7796L43.719 58.8906L43.8589 58.9934L43.9884 59.0876L44.1091 59.1701L44.2223 59.2364L44.3295 59.2822L44.3848 59.3334L44.4852 59.3529L44.6088 59.3514L44.7812 59.3306L45.0286 59.2921L45.3775 59.2365L45.8574 59.1599L46.499 59.0576L47.3326 58.9247L48.3743 58.7586L49.5829 58.5658L50.9027 58.3553L52.2779 58.1359L53.6537 57.9166L54.9735 57.706L56.1827 57.5132L57.2257 57.3469L58.061 57.2136L58.7045 57.111L59.186 57.0342L59.5347 56.9786L59.7782 56.9388L59.9329 56.9074L60.0124 56.8765L60.117 56.8035L60.1709 56.5605L60.2042 56.514L60.2256 55.9709L60.2282 55.0006L60.2273 53.5413ZM52.9658 45.0776L52.9643 44.9444L52.9724 44.9695L52.9658 45.0776ZM52.9829 44.9211L52.9827 44.9197L52.9974 44.9404L52.9829 44.9211ZM52.9759 44.9118L52.9638 44.8957V44.8931L52.976 44.9103L52.9759 44.9118ZM44.2228 44.9129L44.2217 45.0123L44.1993 45.1876L44.2113 44.9907L44.1505 45.0725L44.2228 44.9129Z" fill="white"/>
<path d="M37.2656 43.8956L44.2663 42.7753C44.2663 42.9877 44.2663 43.1766 44.2663 43.3655C44.2663 43.7928 44.2678 44.22 44.2648 44.6473C44.2704 44.7172 44.2581 44.7873 44.2291 44.8512C44.1484 44.9347 44.0894 45.0367 44.0574 45.1484C44.0254 45.26 44.0212 45.3778 44.0454 45.4914C44.0695 45.6049 44.1211 45.7109 44.1958 45.7998C44.2704 45.8888 44.3658 45.9581 44.4734 46.0016C44.9712 46.3091 45.5249 46.5151 46.1026 46.6077C47.0006 46.8035 47.92 46.884 48.8383 46.8472C49.2328 46.8191 49.625 46.7651 50.0123 46.6856C50.3099 46.6318 50.3742 46.5387 50.376 46.2331C50.3795 45.6065 50.377 44.9799 50.3769 44.3533C50.3769 44.1895 50.3775 44.0257 50.3765 43.8619C50.3746 43.5518 50.2581 43.4218 49.9496 43.4126C49.3099 43.3934 48.6673 43.4142 48.0307 43.361C47.0351 43.3412 46.057 43.0953 45.1703 42.642C44.9988 42.5448 44.8476 42.4157 44.7247 42.2616C44.6705 42.1778 44.6351 42.0834 44.6207 41.9846C44.6063 41.8859 44.6133 41.7853 44.6412 41.6895C44.6691 41.5937 44.7173 41.505 44.7826 41.4295C44.8478 41.354 44.9285 41.2934 45.0191 41.2519C45.4479 40.9828 45.9266 40.803 46.4265 40.7232C47.9182 40.4265 49.4547 40.4364 50.9425 40.7523C51.5328 40.8504 52.0954 41.0736 52.5924 41.407C52.689 41.4784 52.8543 41.4501 52.9674 41.5079C53.1213 41.5961 53.2679 41.6964 53.4058 41.8079C54.9435 42.9358 56.481 44.0641 58.018 45.193C58.6868 45.6834 59.3621 46.1653 60.0233 46.6658C60.1263 46.7588 60.1966 46.8826 60.2237 47.0187C60.2575 47.2005 60.271 47.3856 60.2638 47.5704C60.2664 50.3759 60.2669 53.1815 60.2653 55.9871C60.2652 56.193 60.2455 56.399 60.232 56.6048C60.234 56.6983 60.1992 56.7888 60.135 56.8568C60.0708 56.9249 59.9824 56.9649 59.889 56.9682C59.1092 57.088 58.3311 57.2185 57.5521 57.3431C56.0007 57.5914 54.4493 57.839 52.8978 58.0861C51.2411 58.3506 49.5844 58.6152 47.9278 58.8799C46.8754 59.0479 45.824 59.2155 44.7737 59.3826C44.7737 57.9067 44.7736 56.4349 44.7733 54.9672C44.7712 53.2157 44.7676 51.4642 44.7628 49.7127C44.762 49.6409 44.7415 49.5706 44.7035 49.5096C44.6655 49.4486 44.6114 49.3992 44.5473 49.3669C44.1891 49.117 43.8688 48.8137 43.5167 48.5545C42.0101 47.4457 40.4963 46.3466 38.9875 45.2408C38.4113 44.8186 37.8413 44.388 37.2684 43.9612L37.2656 43.8956Z" fill="#FFB7A4"/>
<path d="M60.1429 47.2752C60.0765 47.2754 60.0107 47.2612 59.9502 47.2337C59.8897 47.2062 59.8358 47.166 59.7921 47.1159C59.7745 47.0981 59.7583 47.0791 59.7437 47.0588L59.6203 46.9229L52.725 41.8666C52.7132 41.865 52.7023 41.8635 52.6914 41.8612L52.6804 41.8628C52.5421 41.8826 52.4014 41.8478 52.2882 41.7659C52.282 41.7604 52.2414 41.7253 52.2156 41.7026L52.0054 41.5761C51.896 41.5114 51.8167 41.406 51.7848 41.283C51.753 41.16 51.7712 41.0294 51.8356 40.9198C51.8999 40.8101 52.005 40.7305 52.1279 40.6983C52.2509 40.6661 52.3816 40.6839 52.4914 40.7479L52.7507 40.8971C52.8006 40.8945 52.8505 40.9017 52.8976 40.9182C52.9248 40.9204 52.9517 40.9251 52.9781 40.9323C53.0365 40.9496 53.0932 40.9721 53.1476 40.9995L60.3398 46.2729C60.3701 46.2972 60.3971 46.3253 60.4203 46.3565L60.4796 46.4362L60.4976 46.462C60.5102 46.4756 60.5219 46.49 60.5328 46.505C60.5856 46.5771 60.6174 46.6624 60.6247 46.7515C60.6319 46.8406 60.6144 46.9299 60.5741 47.0097C60.5337 47.0894 60.4721 47.1565 60.396 47.2033C60.3199 47.2502 60.2323 47.2751 60.1429 47.2753V47.2752Z" fill="#FC7C54"/>
<path d="M48.8073 43.9165L47.6385 43.8829L46.5307 43.7461L45.5487 43.5117L44.7471 43.1883L44.4244 42.9914L44.1557 42.7633C44.1282 42.7391 44.1035 42.7118 44.0822 42.682L43.9478 42.4938C43.919 42.4535 43.8966 42.409 43.8814 42.3618L43.8197 42.1696C43.8016 42.1129 43.7941 42.0532 43.7978 41.9938L43.8095 41.8C43.8133 41.7371 43.8294 41.6755 43.8569 41.6188C43.8845 41.5621 43.9229 41.5114 43.9701 41.4695C44.0173 41.4277 44.0722 41.3955 44.1318 41.3749C44.1914 41.3544 44.2545 41.3457 44.3174 41.3495C44.3803 41.3533 44.4419 41.3695 44.4986 41.3971C44.5553 41.4247 44.606 41.4632 44.6477 41.5104C44.6895 41.5576 44.7216 41.6126 44.7421 41.6722C44.7627 41.7319 44.7712 41.7949 44.7674 41.8579L44.7611 41.9618L44.8314 42.0797L44.9947 42.2235L45.4885 42.4743L46.2463 42.7087L47.1924 42.8743L48.2494 42.9532L48.7924 42.9571L49.8627 42.8915L50.8377 42.7344L51.6424 42.5016L52.2041 42.2235L52.44 41.9696L52.4463 41.8649C52.4554 41.7385 52.5136 41.6206 52.6085 41.5365C52.7034 41.4524 52.8274 41.4088 52.9541 41.4149C53.017 41.4187 53.0786 41.4348 53.1352 41.4623C53.1919 41.4899 53.2426 41.5283 53.2844 41.5755C53.3262 41.6227 53.3583 41.6776 53.3788 41.7372C53.3994 41.7968 53.4079 41.8598 53.4041 41.9227L53.3924 42.1157C53.3892 42.1743 53.3751 42.2318 53.351 42.2852L53.2642 42.4766C53.2454 42.5176 53.221 42.5557 53.1916 42.5899L53.033 42.7759C53.0117 42.8004 52.9882 42.8229 52.9627 42.8431L52.7345 43.0204L52.383 43.2251L51.9799 43.3993L51.0431 43.672L49.965 43.8454L48.8073 43.9165Z" fill="#FC7C54"/>
<path d="M44.4828 59.8319C44.4519 59.8322 44.421 59.8293 44.3906 59.8233L44.2906 59.8038C44.2588 59.7975 44.2276 59.7881 44.1977 59.7757L43.6617 59.4538L36.9148 54.5007C36.9117 54.4983 36.8531 54.4546 36.8492 54.4514L36.768 54.3874L36.7008 54.3319C36.6694 54.3057 36.6413 54.2758 36.6172 54.2428C36.5596 54.1605 36.5234 54.0652 36.5117 53.9655L36.4578 53.7616C36.4491 53.7289 36.4439 53.6954 36.4422 53.6616L36.4164 53.1131L36.3945 44.7944L36.4312 43.9671C36.4354 43.9368 36.4412 43.9069 36.4484 43.8772C36.4886 43.7698 36.547 43.6702 36.621 43.5827C36.6418 43.5574 36.6651 43.5344 36.6906 43.5139C36.7361 43.4804 36.7857 43.4529 36.8382 43.4319L37.175 43.3421L43.7476 42.2999L43.771 41.9171C43.7733 41.8813 43.7796 41.8459 43.7898 41.8116L43.9234 41.4632C43.9503 41.4051 43.9853 41.3512 44.0273 41.303L44.2312 41.085C44.2528 41.0615 44.2757 41.0394 44.3 41.0186L44.5234 40.8436L44.8734 40.6405L45.7101 40.3225L46.7085 40.1022L47.8179 39.9819L48.3937 39.96L49.5444 39.9928L50.6359 40.1288L51.6023 40.3585L52.3929 40.6772L52.7108 40.871C52.7327 40.8842 52.8116 40.9499 52.8304 40.9671C52.8343 40.9702 52.8921 41.021 52.896 41.0249L53.0374 41.1468C53.0671 41.1724 53.0936 41.2015 53.1163 41.2335L53.2507 41.4218C53.2797 41.4622 53.3021 41.507 53.3171 41.5546L53.4171 41.8764C53.4272 41.9108 53.4335 41.9462 53.4358 41.9819L53.4546 44.8014L53.5164 44.9913C53.5346 45.0477 53.542 45.1071 53.5382 45.1663L53.5265 45.3663C53.5234 45.4252 53.5091 45.483 53.4843 45.5366L53.3945 45.7342C53.3759 45.7755 53.3514 45.814 53.3218 45.8483L53.1578 46.0397C53.1375 46.0639 53.1147 46.0859 53.0898 46.1053L52.8554 46.2889L52.4913 46.4998L52.078 46.6779L51.1147 46.9592L50.003 47.1373L48.8101 47.2108L47.6054 47.1748L46.464 47.035L45.453 46.7936L44.6288 46.4608L44.296 46.2584L44.0218 46.0256C43.9938 46.0009 43.9686 45.9731 43.9468 45.9428L43.8085 45.7483C43.7805 45.7082 43.7584 45.6642 43.7429 45.6178L43.6788 45.4194C43.6607 45.3622 43.6533 45.302 43.657 45.2421L43.6695 45.0421C43.6726 44.9842 43.6866 44.9275 43.7109 44.8749L43.7429 44.803V43.2733L38.0757 44.1686L44.4038 48.8053L60.0272 46.3131C60.1178 46.2985 60.2106 46.3071 60.297 46.3382C60.3833 46.3692 60.4604 46.4216 60.521 46.4905C60.5749 46.562 60.6117 46.6448 60.6288 46.7327C60.6311 46.7483 60.6436 46.8397 60.6444 46.8553L60.6686 47.6819L60.703 55.9624L60.682 56.5319C60.6807 56.5635 60.6762 56.5949 60.6687 56.6257L60.5874 56.91C60.5475 57.0201 60.4803 57.1182 60.3921 57.1952C60.3579 57.2194 60.3222 57.2413 60.2851 57.2608C60.2132 57.2942 60.1377 57.3191 60.0601 57.335L58.8249 57.5241L44.489 59.8319H44.4828ZM44.5109 58.8686L44.5266 58.8718L44.7227 58.8538L45.2539 58.7171L59.7258 56.4061L59.7437 55.9514L59.7016 47.3381L44.4148 49.7757C44.2656 49.7999 44.1126 49.77 43.9836 49.6913L37.3539 44.8296L37.3992 53.5655L37.4484 53.7546L37.4797 53.7241L44.5109 58.8686ZM37.1765 53.9983L37.1367 54.0671L37.1976 54.0061L37.1765 53.9983ZM44.6968 45.3413L44.8664 45.4897L45.3797 45.7514L46.1633 45.9936L47.1414 46.1655L48.2343 46.2475L48.7953 46.2514L49.9007 46.1834L50.9093 46.0217L51.7413 45.7803L52.3242 45.492L52.5749 45.1998L52.5531 45.1303C52.5285 45.0825 52.5119 45.0311 52.5039 44.978C52.5015 44.96 52.496 44.9038 52.496 44.8858L52.4257 41.9186L52.271 41.7545L52.5163 41.3295L52.2023 41.692L51.9367 41.5201L51.3133 41.2733L50.4672 41.0733L49.4719 40.9498L48.4086 40.9194L47.3562 40.9834L46.3984 41.1381L45.6078 41.367L45.0547 41.6405L44.775 41.9116L44.7265 42.0178L44.7039 42.3819L44.7047 42.6944C44.7047 42.7053 44.7039 42.7209 44.7023 42.7366L44.7007 44.9037C44.6917 44.9815 44.6742 45.058 44.6484 45.1319L44.6203 45.2108L44.6968 45.3413Z" fill="#FC7C54"/>
<path d="M35.746 61.2288C35.7128 59.1034 35.8096 56.6622 35.7008 54.5471C35.414 54.0734 34.7005 53.7571 34.2746 53.3822C32.8085 52.3071 31.3255 51.2193 29.8595 50.1441C29.5125 49.8899 29.1225 49.6036 28.7759 49.3488C28.5795 49.203 28.3571 48.9944 28.0904 49.0652C26.2417 47.8092 23.0492 47.974 20.9783 48.5984C20.5771 48.6727 20.2218 48.9031 19.9903 49.2391C19.7588 49.5751 19.6701 49.9892 19.7437 50.3905C17.6907 50.7192 15.4767 51.0701 13.4259 51.3983C13.1364 51.5003 12.5843 51.3977 12.4266 51.7001C12.3425 54.657 12.4197 57.8444 12.407 60.8047C12.4299 61.002 12.4021 61.4813 12.5272 61.6493C12.6802 61.7773 12.894 61.921 13.0538 62.0422C13.6787 62.5007 14.333 62.9804 14.9582 63.439C16.6089 64.6173 18.2206 65.9006 19.9035 67.0208C22.9516 66.7059 26.1243 66.0342 29.1725 65.604C31.2637 65.1979 33.601 65.0412 35.6358 64.4909C35.6475 64.4495 35.6827 64.2246 35.723 64.2014C35.7641 63.3753 35.741 62.064 35.746 61.2288ZM28.4845 52.765L28.4831 52.6319C28.4966 52.6471 28.4848 52.746 28.4845 52.765ZM28.5016 52.6085L28.5014 52.6072L28.5162 52.6278L28.5016 52.6085ZM28.4947 52.5993L28.4825 52.5831V52.5806L28.4948 52.5978L28.4947 52.5993ZM19.7415 52.6003C19.7406 52.6923 19.7327 52.7842 19.718 52.875L19.73 52.6781L19.6693 52.7599L19.7415 52.6003Z" fill="white"/>
<path d="M12.7891 51.5833L19.7898 50.4631C20.0902 51.5208 19.1207 53.1059 19.9966 53.6894C21.5228 54.4087 24.7618 55.2578 25.8997 53.9215C26.6949 49.2438 23.3592 52.0616 20.6936 50.3296C18.4593 47.5541 26.844 47.8596 28.1154 49.0946C37.1763 54.7142 35.9294 54.0357 35.755 64.2927C31.1326 65.9077 25.3098 65.9809 20.2972 67.0703C20.426 56.6001 21.6252 57.667 12.7919 51.6489L12.7891 51.5833Z" fill="#FFB7A4"/>
<path d="M20.0664 57.0546L20.2936 66.7842L35.3664 64.265V54.665L20.0664 57.0546Z" fill="white"/>
<path d="M35.6742 54.9688C35.6033 54.969 35.5333 54.9534 35.4693 54.9231C35.4052 54.8928 35.3487 54.8487 35.3039 54.7938C35.0756 54.5498 34.8155 54.3377 34.5304 54.1633C34.3367 54.0305 34.1429 53.8977 33.9679 53.7524L28.6859 49.879C28.6078 49.8275 28.5327 49.7717 28.4609 49.7118C28.3867 49.6453 28.304 49.589 28.2148 49.5446C28.1357 49.5665 28.0521 49.5662 27.9731 49.5437C27.8941 49.5213 27.8229 49.4775 27.7672 49.4172C27.6934 49.3606 27.6147 49.3106 27.532 49.268C27.4214 49.2052 27.3402 49.1011 27.3063 48.9784C27.2725 48.8558 27.2887 48.7247 27.3515 48.6141C27.4143 48.5034 27.5185 48.4223 27.6411 48.3884C27.7637 48.3546 27.8948 48.3708 28.0054 48.4336C28.0867 48.4789 28.1734 48.5297 28.2547 48.5844C28.5572 48.6187 28.8401 48.7513 29.0601 48.9617C29.1125 49.0059 29.1672 49.0471 29.2242 49.0852L34.5578 52.9961C34.7336 53.1399 34.9031 53.2547 35.0726 53.3711C35.4338 53.5944 35.7611 53.8682 36.0445 54.1844C36.0846 54.233 36.1147 54.289 36.1331 54.3493C36.1515 54.4095 36.1578 54.4728 36.1517 54.5355C36.1456 54.5982 36.1272 54.6591 36.0976 54.7147C36.0679 54.7702 36.0276 54.8194 35.9789 54.8594C35.8934 54.9306 35.7855 54.9693 35.6742 54.9688Z" fill="#FC7C54"/>
<path d="M24.0442 51.6074C23.8543 51.6074 23.6747 51.6035 23.5082 51.5957C20.8551 51.4793 19.2911 50.6973 19.3247 49.5043C19.3244 49.4407 19.3372 49.3777 19.3622 49.3192C19.3872 49.2608 19.424 49.2081 19.4702 49.1644C19.5164 49.1207 19.571 49.0869 19.6308 49.0651C19.6906 49.0434 19.7541 49.0341 19.8176 49.0379C19.8806 49.0396 19.9427 49.0537 20.0002 49.0794C20.0578 49.1051 20.1097 49.1419 20.153 49.1876C20.1964 49.2334 20.2302 49.2873 20.2527 49.3462C20.2752 49.4051 20.2858 49.4678 20.284 49.5308C20.2715 49.9933 21.516 50.5472 23.5504 50.6371C25.9934 50.7324 27.9262 50.1418 27.9621 49.5527C27.9653 49.4896 27.981 49.4278 28.0084 49.3708C28.0358 49.3138 28.0742 49.2629 28.1215 49.221C28.1688 49.1791 28.224 49.1471 28.2838 49.1267C28.3436 49.1064 28.4069 49.0983 28.47 49.1027C28.597 49.1104 28.7157 49.1682 28.8001 49.2634C28.8845 49.3587 28.9276 49.4835 28.92 49.6105C28.8254 51.2043 25.9403 51.6074 24.0442 51.6074Z" fill="#FC7C54"/>
<path d="M20.0759 67.522C19.902 67.5247 19.7303 67.4833 19.5767 67.4017L19.4579 67.3205C17.0689 65.5885 14.5985 63.7978 12.2126 61.9963C12.1467 61.9466 12.0947 61.8807 12.0617 61.805C12.0287 61.7293 12.0159 61.6464 12.0243 61.5643C11.9149 60.5243 11.8831 59.4777 11.929 58.433C11.94 57.8057 11.9517 57.1908 11.929 56.6307C11.947 56.0033 11.9345 55.351 11.9228 54.6869C11.8823 53.6468 11.9019 52.6052 11.9814 51.5674C11.9912 51.4759 12.0269 51.389 12.0844 51.3171C12.1418 51.2451 12.2185 51.191 12.3056 51.1611C12.533 51.0485 12.7817 50.9851 13.0353 50.9752C13.1223 50.9695 13.2088 50.957 13.2939 50.9377C14.3728 50.7682 15.4306 50.5978 16.4892 50.4283C17.4236 50.2775 18.3579 50.1275 19.2665 49.9869C19.2541 49.7443 19.2982 49.5021 19.3955 49.2795C19.4927 49.0569 19.6403 48.8599 19.8267 48.7041C21.4134 47.6283 23.7001 47.3689 26.6509 47.9182L26.8095 47.9611C27.522 48.1658 28.5993 48.4744 28.9017 49.4377C28.9848 50.0252 29.0094 50.6195 28.9751 51.2119C28.9504 51.6732 28.9595 52.1356 29.0025 52.5955C29.0427 52.7658 29.045 52.9428 29.0094 53.1141C28.9737 53.2854 28.901 53.4468 28.7962 53.5869C28.147 54.4963 26.2829 54.758 24.9376 54.876C24.9251 54.8768 24.8462 54.8783 24.8345 54.8783C23.1431 54.9041 20.5892 54.9338 19.3548 53.4682C19.3282 53.4362 19.3056 53.401 19.2876 53.3635C19.2241 53.2256 19.1891 53.0763 19.185 52.9246C19.1808 52.7728 19.2075 52.6218 19.2634 52.4807C19.2657 52.0541 19.2657 51.5939 19.265 51.1447V50.9588C18.4048 51.0924 17.5228 51.2338 16.6415 51.376C15.615 51.5408 14.5892 51.7057 13.5994 51.858C14.8509 52.7791 16.1048 53.6992 17.3611 54.6182L19.9205 56.4939C25.1205 55.6674 30.3885 54.8267 35.5861 53.9955C35.6522 53.9851 35.7198 53.9886 35.7845 54.0059C35.8492 54.0231 35.9096 54.0536 35.9619 54.0956C36.0141 54.1375 36.057 54.1899 36.0878 54.2493C36.1186 54.3088 36.1366 54.374 36.1407 54.4409C36.2212 55.7823 36.2079 57.2588 36.1954 58.6862C36.1868 59.5698 36.179 60.4432 36.1931 61.2682C36.1767 61.6221 36.1931 61.9963 36.2095 62.3846C36.2805 63.13 36.2436 63.8817 36.1001 64.6166C36.0765 64.7043 36.0285 64.7835 35.9617 64.845C35.895 64.9066 35.8121 64.9479 35.7228 64.9643C33.4259 65.3807 31.0337 65.7518 28.7189 66.1111C27.1392 66.3565 25.5626 66.601 24.0111 66.8604C23.6142 66.9299 23.1853 66.9948 22.7509 67.0604C22.0314 67.1697 21.2884 67.2822 20.6384 67.4236C20.4566 67.4832 20.2671 67.5164 20.0759 67.522ZM12.9657 61.3619C15.2899 63.1134 17.6946 64.8564 20.0212 66.5431L20.0876 66.5916C20.1001 66.5806 20.3282 66.515 20.4032 66.4939C21.1141 66.3377 21.8727 66.2228 22.6071 66.1111C23.0345 66.0463 23.4556 65.983 23.8493 65.9142C25.4079 65.6533 26.9884 65.408 28.572 65.1627C30.7728 64.8205 33.0446 64.4681 35.2313 64.0767C35.2847 63.5278 35.291 62.9752 35.2501 62.4252C35.2329 62.0056 35.2165 61.6088 35.2337 61.2525C35.2188 60.4517 35.2266 59.5697 35.2353 58.6775C35.2462 57.4541 35.2579 56.1947 35.2095 55.0283C30.1165 55.8423 24.9619 56.665 19.8728 57.4736C19.7461 57.4932 19.6169 57.4617 19.5134 57.3861L16.7939 55.3923C15.4884 54.4361 14.1837 53.4788 12.8798 52.5205C12.8556 53.2072 12.8689 53.947 12.8822 54.6697C12.8947 55.3494 12.9072 56.0181 12.8884 56.6267C12.9111 57.1697 12.9001 57.8033 12.8892 58.4502C12.8478 59.4213 12.8733 60.3942 12.9657 61.3619ZM20.1462 52.9142C21.1212 53.9666 23.3446 53.9369 24.822 53.9189C27.1978 53.7142 27.8399 53.2736 28.0149 53.0291C28.0428 52.9927 28.0615 52.9501 28.0694 52.9049C28.0773 52.8598 28.0742 52.8134 28.0603 52.7697C28.0028 52.2436 27.988 51.7138 28.0157 51.1853C28.046 50.6751 28.0305 50.1631 27.9696 49.6556C27.8384 49.2548 27.1212 49.0494 26.5446 48.8838L26.4298 48.851C23.7813 48.3627 21.7345 48.5697 20.3868 49.483C20.2321 49.6017 20.2212 49.8705 20.2243 50.2955V50.3767L20.2251 51.1431C20.2259 51.6322 20.2259 52.1337 20.2228 52.5915C20.2225 52.6732 20.2012 52.7533 20.1611 52.8243C20.1479 52.8524 20.1427 52.8835 20.1462 52.9142Z" fill="#FC7C54"/>
</g>
<defs>
<clipPath id="clip0_25_2933">
<rect width="63" height="67" fill="white" transform="translate(0 0.171875)"/>
</clipPath>
</defs>
</svg>
