<svg width="70" height="68" viewBox="0 0 70 68" fill="none" xmlns="http://www.w3.org/2000/svg">
<g clip-path="url(#clip0_25_3003)">
<path d="M68.3851 52.2698L68.4715 51.8666L68.0188 51.1882L67.8075 50.9162L47.9843 36.3762L47.2707 36.0122L46.9212 35.9034L46.2235 35.8818L3.40913 42.7098L2.73953 42.9498L2.10273 43.5138L1.64993 44.253L1.51953 44.9698V49.7858L1.72273 50.0514L1.85313 50.7706L21.6763 65.3106L22.1371 65.977L22.4699 66.1042L23.2003 66.4498L23.8988 66.4714L24.2316 66.2378L67.0452 59.4098L67.6003 59.233L68.0891 58.8618L68.3851 58.2946L68.4732 57.701V52.885L68.3851 52.2698Z" fill="white"/>
<path d="M67.5962 50.8202C67.9347 51.049 68.2117 51.3576 68.4027 51.7187C68.5937 52.0799 68.6927 52.4826 68.6912 52.8911C68.7026 54.3535 68.7139 55.8164 68.6899 57.2785C68.7242 57.9066 68.5085 58.5226 68.0899 58.992C67.6714 59.4615 67.084 59.7462 66.4562 59.7839C63.2579 60.2814 60.0635 60.8036 56.8673 61.3144C53.6845 61.8231 50.5017 62.3309 47.3186 62.8379C44.0951 63.3524 40.8716 63.867 37.6481 64.3818C34.2747 64.9187 30.9011 65.4543 27.5273 65.9886C26.4118 66.1659 25.2972 66.3491 24.1817 66.5262C24.0367 66.5492 23.8886 66.552 23.6758 66.5696C23.9377 66.3044 24.142 65.9879 24.2758 65.6401C24.4097 65.2922 24.4702 64.9204 24.4537 64.5481C24.4458 63.8031 24.4417 63.0578 24.4549 62.313C24.4676 61.6001 24.559 60.8843 24.515 60.1761C24.4549 59.5276 24.3402 58.8853 24.172 58.2562C24.1139 58.0102 24.1408 57.9553 24.3854 57.9095C26.2125 57.5678 28.0346 57.1989 29.8621 56.8595C31.7482 56.5093 33.6392 56.1855 35.5271 55.8451C36.9613 55.5865 38.3934 55.3159 39.8278 55.0581C41.4626 54.7644 65.4906 50.7558 67.1284 50.4795L67.5962 50.8202Z" fill="#B6DBA8"/>
<path d="M23.8969 66.9518H23.882L23.1844 66.9307C23.1412 66.9291 23.0984 66.9221 23.057 66.9096L22.7078 66.801C22.6815 66.7926 22.6559 66.7821 22.6312 66.7698L21.9172 66.405L2.0289 51.8245C1.99287 51.7984 1.96078 51.7674 1.93359 51.7323L1.72266 51.4604L1.24922 50.7541C1.21309 50.7001 1.18837 50.6392 1.17656 50.5752L1.04688 49.8744C1.04153 49.8456 1.03892 49.8163 1.03907 49.7869V44.9705C1.03905 44.942 1.0414 44.9135 1.0461 44.8854L1.17579 44.1682C1.18274 44.1294 1.19455 44.0916 1.21094 44.0557L1.60548 43.2705C1.63776 43.208 1.68335 43.1533 1.73907 43.1104L2.4461 42.569C2.48577 42.539 2.52976 42.5153 2.57656 42.4986L3.24611 42.2588C3.27399 42.2486 3.30276 42.241 3.33203 42.2362L46.1469 35.408C46.1768 35.4035 46.2072 35.4016 46.2375 35.4026L46.9351 35.4244C46.9783 35.4259 47.0212 35.433 47.0625 35.4455L47.4117 35.5541C47.4378 35.5624 47.4631 35.5729 47.4875 35.5854L48.2015 35.9494C48.2247 35.9608 48.2466 35.9744 48.2671 35.9901L68.0906 50.5299C68.1267 50.5559 68.1587 50.5869 68.1859 50.6221L68.3968 50.894L68.8695 51.601C68.9057 51.6551 68.9304 51.7159 68.9422 51.7799L69.0727 52.4807C69.0781 52.5096 69.0806 52.5389 69.0804 52.5682V57.3838C69.0806 57.4127 69.0781 57.4414 69.0727 57.4698L68.9422 58.187C68.9356 58.2247 68.9244 58.2614 68.9086 58.2963L68.514 59.0846C68.481 59.1475 68.4345 59.2024 68.3781 59.2456L67.6773 59.7815C67.6369 59.8134 67.5914 59.8385 67.5429 59.8557L66.8734 60.0956C66.8455 60.1057 66.8167 60.1133 66.7874 60.1182L23.9726 66.9463C23.9476 66.9501 23.9222 66.9519 23.8969 66.9518ZM23.2789 65.9729L23.8664 65.9909L66.5923 59.1768L67.1461 58.9784L67.7126 58.5456L68.0078 57.9597L68.1212 57.3409V52.6127L68.0164 52.0518L67.4695 51.2643L47.7312 36.7869L47.0883 36.4588L46.8398 36.3815L46.2531 36.3635L3.52734 43.1776L2.97031 43.3768L2.40781 43.808L2.11015 44.3963L1.99843 45.0135V49.7432L2.10235 50.3033L2.64999 51.0901L22.4195 65.5909L23.0297 65.8955L23.2789 65.9729Z" fill="#5DA845"/>
<path d="M44.6384 39.1602L44.4944 38.4898L44.1928 37.8666L44.0176 37.4426L43.5648 36.8842L43.2656 36.5618L42.696 36.1202L42.0368 35.8178L41.6568 35.6338L40.972 35.501L40.5504 35.4434L39.8976 35.4778L39.4856 35.5226L38.8392 35.6402L38.112 35.817L37.3144 36.033L36.4912 36.261L36.4872 36.2626L36.4824 36.265L36.4784 36.2674L36.4736 36.2714L36.4696 36.2754L36.4664 36.2802L36.4632 36.285L36.4608 36.2906L36.4592 36.2954L36.4584 36.3002L36.3768 37.069L36.2712 37.8482L36.1672 38.5898L36.0848 39.277L36.0664 39.9114L36.1064 40.349L36.2504 41.0202L36.4152 41.4194L36.7272 42.0666L37.18 42.625L37.48 42.9474L38.0496 43.389L38.4536 43.585L39.0888 43.8754L39.5568 43.9394L40.1952 44.0658L40.6792 44.013L41.252 43.981L41.7016 43.8434L42.172 43.6194L42.5128 43.5026L42.8848 43.2642L43.244 42.9738L43.5768 42.6418L43.8704 42.2818L44.1144 41.9066L44.2984 41.5314L44.444 41.1106L44.5944 40.6506L44.6528 40.2266L44.6784 39.5978L44.6384 39.1602Z" fill="white"/>
<path d="M43.2982 36.674C42.8216 36.1968 42.214 35.872 41.5525 35.7408C41.1191 35.6202 40.6665 35.584 40.2194 35.6343C39.5333 35.7319 38.8642 35.9491 38.1877 36.115C38.0083 36.159 37.8282 36.2002 37.6484 36.2427L37.6289 36.363C37.7872 36.4479 37.953 36.5179 38.1243 36.5721C38.591 36.6762 39.0661 36.7421 39.5329 36.8457C40.0336 36.9352 40.4995 37.1621 40.8786 37.5011C41.2578 37.8401 41.5352 38.2779 41.6799 38.7654C42.0494 39.7776 42.1547 40.8673 41.9857 41.9315C41.973 42.354 41.8623 42.7679 41.6624 43.1404C41.4625 43.5129 41.1788 43.8339 40.8336 44.078L40.8721 44.1735L42.6887 43.6295C42.6887 43.6295 46.125 40.1688 43.2982 36.674Z" fill="#B6DBA8"/>
<path d="M40.196 44.5456C40.1741 44.5455 40.1522 44.5442 40.1304 44.5417L38.9999 44.3472C38.9622 44.3401 38.9255 44.3286 38.8906 44.3128L37.8421 43.8214C37.812 43.8067 37.7834 43.7889 37.757 43.7683L37.1874 43.3261L36.8304 42.9527L36.3562 42.3691C36.3326 42.3404 36.3127 42.3089 36.2968 42.2753L35.8085 41.2019C35.7977 41.1755 35.7891 41.1484 35.7827 41.1206L35.639 40.4495L35.5898 39.9558L35.6062 39.2636L35.9827 36.2495C35.9862 36.2205 35.9917 36.1918 35.9992 36.1636C36.008 36.1333 36.0193 36.1038 36.0328 36.0753C36.09 35.9597 36.1871 35.8687 36.3062 35.8191L38.7272 35.1738L39.8468 35.0004L40.5265 34.964C40.5565 34.9617 40.5866 34.963 40.6163 34.968L41.0382 35.0254L41.7499 35.1629C41.7873 35.1699 41.8238 35.1815 41.8585 35.1973L42.9054 35.6879C42.9359 35.7024 42.9647 35.7202 42.9913 35.741L43.5608 36.1832C43.5813 36.199 43.6004 36.2165 43.6179 36.2356L43.9179 36.5582L44.3921 37.1402C44.4157 37.1689 44.4356 37.2004 44.4515 37.234L44.9397 38.3074C44.9508 38.3337 44.9594 38.3609 44.9655 38.3887L45.1101 39.0598L45.1577 39.5551L45.1343 40.2457L45.0702 40.7176C45.0663 40.7457 45.06 40.7734 45.0515 40.8004L44.7538 41.6879L44.5476 42.1176L44.2741 42.5441L43.9507 42.9457L43.5835 43.3137L43.1874 43.638L42.7725 43.9067L42.3515 44.1122L41.3936 44.4403C41.3648 44.449 41.3353 44.455 41.3054 44.4583L40.2257 44.545C40.2155 44.5456 40.2062 44.5456 40.196 44.5456ZM39.2382 43.416L40.214 43.584L41.1554 43.509L41.9773 43.2285L42.3077 43.0691L42.6273 42.8605L42.9437 42.6004L43.2398 42.3027L43.4991 41.9785L43.714 41.6441L43.8687 41.3207L44.1257 40.5425L44.1796 40.1605L44.1999 39.5792L44.1624 39.2035L44.0366 38.6332L43.6116 37.7019L42.9421 36.9175L42.4421 36.53L41.5109 36.0941L40.5319 35.9253L39.539 36.0003L38.9265 36.1128L36.9023 36.6456L36.5624 39.3339L36.5476 39.9245L36.5866 40.3042L36.7124 40.8761L36.8601 41.2378L37.1366 41.8074L37.8327 42.6199L38.3038 42.9784L39.2382 43.416Z" fill="#5DA845"/>
<path d="M32.0039 31.0304L31.9783 29.8536L31.7335 29.0976L31.6232 28.8336L31.2367 28.1656L30.716 27.5952L30.5175 27.4024L29.9256 26.9928L29.6863 26.8552L29.0855 26.6312L28.8696 26.5488L28.6112 26.4824L28.3192 26.4352L28.0063 26.4072L27.8831 26.4504L27.7184 26.4472L27.5552 26.4552L27.3999 26.4736L27.0584 26.4536L26.78 26.5104L26.5392 26.584L26.3448 26.672L25.7079 26.9144L25.5048 27.0592L24.8912 27.4864L24.7432 27.6848L24.2128 28.2704L23.8192 28.9496L23.7768 29.2168L23.5319 29.98L23.5064 31.1576L23.5 35.904L23.5064 40.6496L23.5319 41.8264L23.6487 42.1072L23.8871 42.8472L24.2744 43.5152L24.5072 43.7416L24.9927 44.2776L25.2975 44.4536L25.8239 44.8256L26.1376 44.9448L26.5128 45.0408L26.8991 45.1976L27.1911 45.2456L27.5039 45.2728L27.8271 45.2792L28.1471 45.2632L28.4527 45.2264L28.7304 45.1704L29.1712 45.0016L29.5207 44.8944L29.8024 44.7656L30.3607 44.3784L30.6191 44.1936L31.1232 43.6424L31.2976 43.4096L31.6911 42.7304L31.9335 41.9832L31.9783 41.7L32.0039 40.5224L32.0104 35.7768L32.0039 31.0304Z" fill="white"/>
<path d="M27.3164 26.6283C28.0992 26.4924 28.9047 26.5967 29.6271 26.9274C30.3576 27.234 30.9801 27.7512 31.4154 28.413C31.8507 29.0748 32.0791 29.8513 32.0713 30.6434C32.0894 34.2025 32.0621 37.7617 32.0769 41.3207C32.0387 42.2633 31.6854 43.1658 31.0736 43.8839C30.4618 44.6019 29.6267 45.094 28.7022 45.2813C28.5418 45.3155 28.3775 45.3312 28.1409 45.3666C28.5827 45.0735 28.9399 44.6698 29.1771 44.1956C29.4142 43.7214 29.5229 43.1933 29.4923 42.664C29.5111 39.1186 29.4976 35.5729 29.5003 32.0274C29.466 30.6963 29.0374 29.4053 28.2687 28.3181C27.9337 27.801 27.6604 27.2439 27.3164 26.6283Z" fill="#B6DBA8"/>
<path d="M27.8539 45.7586L27.1523 45.7234L26.5242 45.5961L25.6562 45.2734L25.3476 45.1023L24.7233 44.6719L24.464 44.4297L23.9226 43.8383C23.8992 43.8131 23.8787 43.7853 23.8616 43.7555L23.4749 43.0875L23.3374 42.7687L23.078 41.9742C23.0639 41.9297 23.0562 41.8834 23.0554 41.8367L23.0296 40.6593L23.0234 35.9047L23.0554 29.9692L23.1062 29.6211L23.3664 28.8016C23.3767 28.7694 23.3903 28.7384 23.407 28.709L24.0062 27.75L24.5406 27.1625C24.5629 27.1376 24.5881 27.1153 24.6156 27.0961L25.4375 26.5199C25.4609 26.5038 25.4858 26.4897 25.5117 26.4778L25.7937 26.3492L26.6421 26.0508L27.3093 25.9403L27.6632 25.9219L28.364 25.9567L28.9922 26.084L29.8609 26.4063L30.1695 26.5774L30.7937 27.0078L31.0531 27.2504L31.5945 27.8414C31.6176 27.867 31.638 27.8949 31.6554 27.9246L32.0422 28.5926L32.1797 28.9129L32.4383 29.7055C32.4531 29.75 32.461 29.7965 32.4617 29.8434L32.4867 31.0204V31.0297L32.4937 35.7758L32.4617 41.7102L32.411 42.0594L32.1508 42.879C32.1403 42.911 32.1267 42.9419 32.1102 42.9712L31.5094 43.9313L30.9774 44.5173C30.9544 44.5421 30.929 44.5646 30.9016 44.5845L30.0789 45.1602C30.0556 45.1767 30.0308 45.1908 30.0047 45.2024L29.7227 45.3313L28.875 45.6289L28.207 45.7399L27.8539 45.7586ZM24.6656 43.2289L25.3297 43.9328L26.0679 44.4094L27.0219 44.7328L27.5492 44.7946L27.8398 44.7993L28.6382 44.7L29.5656 44.3477L30.3023 43.8329L30.9171 43.1219L31.2531 42.5352L31.5077 41.6243L31.5273 40.5125L31.5343 35.7758L31.5038 29.9344L31.1835 29.0176L30.8515 28.4516L30.1859 27.7469L29.4492 27.2704L28.4945 26.9473L27.968 26.8856L27.6773 26.8813L26.8781 26.9801L25.95 27.3329L25.2148 27.8473L24.6008 28.5579L24.264 29.145L24.0094 30.0555L23.989 31.168L23.9828 35.9047L24.0133 41.7461L24.3328 42.661L24.6656 43.2289Z" fill="#5DA845"/>
<path d="M53.6199 26.753L53.5623 26.289L53.4687 25.8314L53.3431 25.3978L53.1895 25.0058L53.0143 24.669L52.6343 24.257L52.3927 23.917L51.8455 23.5498L51.5495 23.2682L50.8743 23.0018L50.5455 22.833L49.7927 22.709L48.6551 22.865L48.3183 22.845L43.7391 23.5682L39.1631 24.305L38.0319 24.5114L37.3391 24.8706L37.0479 25.0026L36.4663 25.4898L35.9999 26.0954L35.8047 26.309L35.5143 26.9634L35.3879 27.2122L35.2943 27.5322L35.2247 28.0714L35.1847 28.333L35.1719 28.6258L35.1847 28.9378L35.2247 29.2578L35.2887 29.573L35.3759 29.8714L35.4815 30.1418L35.6671 30.5378L35.8423 30.8746L36.0319 31.1418L36.4639 31.6266L36.7151 31.8658L37.3071 32.2754L37.6031 32.4274L38.3111 32.7106L39.0639 32.8346L39.3991 32.8546L40.5391 32.6986L45.1167 31.9754L49.6935 31.2378L50.8255 31.0322L51.1343 30.8914L51.8087 30.541L52.3911 30.0538L52.6199 29.8026L53.0519 29.2346L53.2127 28.9186L53.3311 28.5106L53.5623 28.0114L53.6199 27.6314L53.6391 27.2066L53.6199 26.753Z" fill="white"/>
<path d="M40.118 32.8508C40.4489 32.6038 40.7171 32.2826 40.9012 31.913C41.0853 31.5433 41.18 31.1357 41.1777 30.7228C41.2832 29.4367 40.9453 28.1532 40.2201 27.0858C39.8562 26.4743 39.5095 25.8521 39.1715 25.2258C39.1213 25.1453 39.0932 25.053 39.0901 24.9582C39.0871 24.8634 39.1091 24.7695 39.1541 24.686C39.199 24.6024 39.2652 24.5323 39.346 24.4826C39.4268 24.4329 39.5193 24.4055 39.6141 24.4031C40.7551 24.224 41.8927 24.0229 43.034 23.8458C44.178 23.6683 45.3255 23.5129 46.4704 23.3409C47.4017 23.2009 48.335 23.0698 49.2609 22.8993C50.0999 22.7721 50.9563 22.9586 51.6665 23.4231C52.2778 23.7878 52.7885 24.2992 53.1524 24.911C53.5163 25.5227 53.7219 26.2156 53.7507 26.9268C53.7795 27.6381 53.6305 28.3452 53.3171 28.9844C53.0038 29.6236 52.5361 30.1745 51.9563 30.5874C51.187 31.0476 50.32 31.3196 49.4257 31.381C46.5714 31.8332 43.7175 32.2872 40.8638 32.7431C40.6385 32.7789 40.4122 32.8085 40.118 32.8508Z" fill="#B6DBA8"/>
<path d="M39.3984 33.3345L39.3703 33.3337L39.0352 33.3138L38.232 33.1837C38.1978 33.1782 38.1642 33.1689 38.132 33.156L37.0867 32.7021L36.4414 32.2603L36.132 31.9739L35.6727 31.461L35.45 31.1517L34.9281 30.0458L34.7539 29.3532L34.6914 28.6458L34.7594 27.854L34.8196 27.4599L34.9266 27.0771L35.3758 26.0919C35.3889 26.066 35.4044 26.0413 35.4219 26.0181L36.111 25.1661L36.7383 24.6345C36.7654 24.6121 36.7947 24.5926 36.8258 24.5763L37.8321 24.0743C37.8682 24.0578 37.9063 24.0459 37.9453 24.0388L39.0766 23.8329L49.3922 22.2134C49.423 22.2094 49.4542 22.2081 49.4852 22.2095L49.8203 22.2294L50.6227 22.3591C50.657 22.3646 50.6905 22.3739 50.7227 22.3868L51.7688 22.8411L52.4141 23.2829L52.7227 23.5696L53.1821 24.0821L53.4047 24.3915L53.9274 25.4974L54.1024 26.1888L54.1641 26.8985L54.0961 27.6903L54.0359 28.0833L53.9289 28.4661L53.4797 29.4513C53.4666 29.4772 53.4511 29.5019 53.4336 29.5251L52.7438 30.3778L52.1164 30.9087C52.0895 30.9308 52.0604 30.9502 52.0297 30.9665L51.0227 31.4692C50.9868 31.4856 50.949 31.4975 50.9102 31.5044L49.7789 31.7103L39.4633 33.3298C39.4418 33.333 39.4201 33.3345 39.3984 33.3345ZM38.4391 32.2451L39.3774 32.3728L40.4735 32.2228L50.6797 30.5704L51.5399 30.1392L52.0813 29.6853L52.2657 29.4783L52.643 28.9794L53.0282 28.1392L53.1008 27.8763L53.2047 26.8974L53.1555 26.3451L53.0196 25.806L52.5883 24.8919L52.4321 24.6794L51.8094 24.0247L51.0336 23.5431L50.4157 23.2978L49.4782 23.1705L48.3829 23.3205L38.1758 24.9728L37.3148 25.404L36.7734 25.8579L36.5898 26.0642L36.2125 26.5638L35.8273 27.404L35.7547 27.6669L35.6508 28.6474L35.7008 29.1981L35.836 29.7372L36.2672 30.6524L36.4227 30.8638L37.0461 31.5181L37.8219 32.0001L38.4391 32.2451Z" fill="#5DA845"/>
<path d="M21.058 30.3476L20.9756 29.2684L20.8628 28.094L20.7428 26.8908L20.742 26.89L20.7412 26.8884L20.7396 26.8868L20.7364 26.8844L20.7332 26.8812L20.7292 26.878L20.7244 26.8748L20.7196 26.8708L20.7148 26.8668L20.71 26.8628L20.706 26.8596L20.702 26.8564L20.6988 26.854L20.6972 26.8524L20.6956 26.8516L19.626 26.966L18.5508 27.0564L17.538 27.1356L16.6124 27.2204L15.778 27.354L14.9884 27.638L14.2676 28.0724L13.6436 28.6396L13.1396 29.318L12.7748 30.082L12.5644 30.9012L12.5156 31.7452L12.6308 32.5812L12.9044 33.3764L13.3276 34.1012L13.3652 34.1212L13.8828 34.7268L14.554 35.206L14.5636 35.2292L15.3292 35.5892L15.302 35.5916L16.1108 35.7972L16.9452 35.8388L16.9956 35.834L17.8324 35.7092L18.6284 35.4236L19.3532 34.9892L19.9796 34.422L20.482 33.7436L20.8428 32.9804L21.046 32.1612L21.0932 31.3092L21.058 30.3476Z" fill="white"/>
<path d="M17.5206 35.8473C17.8987 35.5444 18.1987 35.1553 18.3954 34.7126C18.5921 34.2699 18.6799 33.7864 18.6513 33.3028C18.6852 31.6303 18.1307 29.9989 17.0846 28.6934C16.9092 28.4372 16.7721 28.1568 16.6776 27.8611C16.5851 27.5787 16.7144 27.3952 17.0409 27.3647C18.0403 27.2714 19.0386 27.1654 20.0373 27.064C20.2829 27.039 20.5284 27.0127 20.8366 26.9805C20.945 28.2649 21.0865 29.5329 21.1451 30.8046C21.1786 31.4631 21.1271 32.1231 20.992 32.7684C20.7828 33.5674 20.3413 34.2864 19.7234 34.8345C19.1054 35.3825 18.3389 35.735 17.5206 35.8473Z" fill="#B6DBA8"/>
<path d="M16.9334 36.3188H16.9217L16.0873 36.2774C16.0553 36.276 16.0236 36.271 15.9927 36.2625L15.1841 36.057C15.1533 36.0492 15.1232 36.0385 15.0943 36.025L14.342 35.6633C14.3185 35.6516 14.2591 35.6188 14.2381 35.604C14.2326 35.6008 14.1685 35.5555 14.1638 35.5516L13.5888 35.1063L12.9974 34.4872C12.9904 34.479 12.9498 34.4266 12.9435 34.418L12.4865 33.6747C12.4748 33.6551 12.4451 33.5899 12.4365 33.5692L12.1389 32.7481C12.128 32.7185 12.1201 32.6878 12.1155 32.6567L11.9897 31.8219C11.985 31.7907 11.9834 31.7592 11.985 31.7277L12.0248 30.8848C12.0264 30.8533 12.0311 30.822 12.0389 30.7914L12.2428 29.9727C12.2505 29.9422 12.2609 29.9125 12.2741 29.884L12.6342 29.1207C12.6478 29.092 12.6643 29.0648 12.6834 29.0395L13.1866 28.3613C13.205 28.3361 13.2259 28.3128 13.2491 28.2918L13.8748 27.7242C13.8982 27.7031 13.9236 27.6842 13.9506 27.668L14.6756 27.2332C14.7027 27.2171 14.7312 27.2037 14.7608 27.193L15.5569 26.9082C15.5847 26.8981 15.6135 26.8907 15.6428 26.8863L16.4858 26.7519C16.4967 26.75 16.5592 26.7441 16.5694 26.7429L20.6444 26.3749C20.7357 26.3648 20.828 26.3815 20.91 26.423C20.917 26.4281 20.9803 26.4652 20.9873 26.4706C20.9982 26.4792 21.0397 26.512 21.0506 26.5218C21.0735 26.542 21.0949 26.5638 21.1147 26.5871C21.1484 26.6206 21.1751 26.6606 21.1932 26.7046C21.2113 26.7486 21.2204 26.7957 21.2201 26.8433L21.5365 30.3117L21.5724 31.2918L21.5263 32.1875C21.5244 32.218 21.5197 32.2482 21.5123 32.2777L21.3084 33.0965C21.3007 33.127 21.2903 33.1566 21.2771 33.1852L20.917 33.9485C20.9033 33.9769 20.8871 34.0041 20.8685 34.0297L20.3654 34.7082C20.3466 34.7334 20.3254 34.7567 20.3021 34.7777L19.6763 35.3453C19.6528 35.3663 19.6274 35.3851 19.6006 35.4016L18.8756 35.836C18.8487 35.8522 18.8201 35.8656 18.7904 35.8758L17.9943 36.161C17.965 36.1718 17.9346 36.1796 17.9037 36.1844L17.067 36.3094C17.0226 36.3148 16.978 36.3179 16.9334 36.3188ZM16.1826 35.3204L16.9685 35.3594L17.7131 35.2422L18.4224 34.9883L19.0662 34.6024L19.6217 34.0985L20.0685 33.4961L20.3881 32.8184L20.5701 32.0903L20.6131 31.2837L20.5779 30.3657L20.3083 27.3762L16.6568 27.6993L15.8372 27.8274L15.1287 28.0809L14.4849 28.4672L13.9287 28.9711L13.4826 29.5731L13.163 30.2508L12.9818 30.9774L12.9466 31.7258L13.0576 32.4668L13.3287 33.2164L13.7732 33.9149L14.231 34.3969L14.7419 34.7856L15.4677 35.1391L16.1826 35.3204Z" fill="#5DA845"/>
<path d="M30.2011 17.887L30.1611 17.567L30.0971 17.2518L30.0107 16.9534L29.9043 16.683L29.7187 16.2862L29.5435 15.9502L29.3539 15.683L28.9219 15.1982L28.6707 14.9582L28.0787 14.5494L27.4035 14.283L27.0747 14.1142L26.3219 13.9902L25.1843 14.1462L20.6067 14.8694L16.0299 15.6062L14.8963 15.8118L14.5611 15.7926L13.8683 16.151L13.2571 16.6518L12.7515 17.275L12.5291 17.3766L12.1963 18.0766L12.0435 18.2446L11.9051 18.9606L11.8179 19.1318L11.7539 19.3526L11.8475 19.9102L11.8267 20.0438L11.8203 20.1926L11.8267 20.3518L11.8475 20.515L11.8803 20.6758L11.9243 20.8278L11.9051 21.1526L12.0107 21.423L12.1307 21.6542L12.2619 21.8382L12.5611 22.4222L12.7587 22.6102L13.2443 23.147L13.8363 23.5558L14.1323 23.7078L14.8403 23.9918L15.5931 24.1158L15.9283 24.1358L17.0683 23.979L21.6467 23.2558L26.2227 22.519L27.3539 22.3134L27.6627 22.1726L28.3379 21.8222L28.9203 21.3342L29.1499 21.0838L29.5811 20.5158L29.7419 20.199L29.9979 19.6126L30.0915 19.2918L30.1491 18.9118L30.2011 18.491L30.2147 18.199L30.2011 17.887Z" fill="white"/>
<path d="M17.3075 24.0012C17.6516 23.733 17.9144 23.3744 18.0666 22.9655C18.2188 22.5565 18.2544 22.1134 18.1693 21.6854C18.0763 20.5225 17.5996 19.4235 16.8142 18.5609C16.1793 17.7508 15.6452 16.8618 15.0156 15.9324C15.6501 15.8141 16.1912 15.7045 16.7353 15.6136C18.0389 15.3958 19.3434 15.183 20.6487 14.9753C21.9569 14.768 23.266 14.5665 24.576 14.3707C25.0092 14.3051 25.4506 14.2811 25.8777 14.1894C26.3002 14.1182 26.7327 14.1337 27.149 14.2348C27.5653 14.3358 27.9568 14.5204 28.2996 14.7774C28.8946 15.1497 29.3883 15.6634 29.7366 16.2728C30.0849 16.8823 30.2769 17.5684 30.2957 18.2701C30.3144 18.9717 30.1591 19.6671 29.8438 20.2943C29.5285 20.9214 29.0629 21.4607 28.4885 21.8642C27.8644 22.272 27.1508 22.5225 26.4087 22.5944C23.4728 23.0605 20.5372 23.529 17.602 23.9999C17.504 24.0061 17.4056 24.0065 17.3075 24.0012Z" fill="#B6DBA8"/>
<path d="M15.9305 24.6158L15.9024 24.615L15.5672 24.595L14.7641 24.4658C14.7296 24.4599 14.6958 24.4504 14.6633 24.4376L13.6188 23.9833L12.9734 23.5415L12.6641 23.2552L12.2047 22.7423L11.982 22.4337L11.4602 21.3271L11.2852 20.6357L11.2227 19.9282L11.2914 19.1353L11.3516 18.7415L11.4586 18.3583L11.9078 17.3732C11.9209 17.3473 11.9363 17.3227 11.9539 17.2997L12.643 16.4466L13.2703 15.9158C13.2974 15.8935 13.3267 15.8741 13.3578 15.8579L14.3649 15.3552C14.4007 15.3388 14.4385 15.327 14.4774 15.3201L15.6086 15.1142L25.9242 13.4947C25.9551 13.4906 25.9862 13.4893 26.0172 13.4908L26.3524 13.5107L27.1548 13.6408C27.189 13.6462 27.2226 13.6555 27.2548 13.6685L28.3001 14.1224L28.9454 14.5638L29.2548 14.8509L29.9368 15.6724L30.4594 16.7787L30.6337 17.4712L30.6962 18.1787L30.6274 18.9716L30.5688 19.3634L30.461 19.7474L30.0118 20.7326C29.9988 20.7587 29.9833 20.7835 29.9657 20.8068L29.2758 21.6591L28.6493 22.1896C28.6222 22.2121 28.5929 22.2318 28.5618 22.2482L27.5555 22.7502C27.5194 22.7667 27.4813 22.7786 27.4422 22.7857L26.311 22.9916L15.9953 24.6111C15.9739 24.6142 15.9522 24.6158 15.9305 24.6158ZM14.9711 23.5267L15.9094 23.654L17.0039 23.504L27.2117 21.8517L28.0727 21.4205L28.6133 20.9669L28.7977 20.7595L29.1751 20.2611L29.5602 19.4205L29.6329 19.1576L29.7368 18.1771L29.6868 17.6264L29.5516 17.0873L29.1196 16.1721L28.9641 15.9615L28.3415 15.3061L27.5657 14.8244L26.9477 14.5795L26.0102 14.4518L24.9141 14.6018L14.7078 16.254L13.8469 16.6853L13.3055 17.1392L13.1211 17.3462L12.7454 17.8446L12.3594 18.6853L12.2868 18.9486L12.1821 19.9298L12.2321 20.4806L12.368 21.0185L12.7993 21.9341L12.9547 22.1446L13.5782 22.7993L14.3539 23.2814L14.9711 23.5267Z" fill="#5DA845"/>
<path d="M43.0821 5.93476L43.0573 4.75796L42.8117 4.00196L42.4141 3.30756L41.8781 2.70196L41.2261 2.20836L41.1597 2.04916L40.4357 1.73556L40.3285 1.63076L39.5957 1.51716L39.5117 1.46916L39.4013 1.42676L39.2701 1.39316L39.1213 1.36836L38.9613 1.35476L38.7965 1.35156L38.6333 1.35956L38.4781 1.37876L38.3365 1.40676L38.2133 1.44436L38.1149 1.48996L38.0437 1.54036L37.2837 1.67636L37.2029 1.78356L36.4669 2.11876L35.8213 2.58916L35.2917 3.17476L35.2533 3.41476L34.8549 4.12116L34.6101 4.88436L34.5853 6.06196L34.5781 10.8084L34.5853 15.554L34.6101 16.7308L34.8549 17.4868L34.9653 17.7516L35.3525 18.4196L35.8733 18.9892L36.0717 19.182L36.6629 19.5916L36.9021 19.73L37.2157 19.8492L37.7189 20.0356L37.9781 20.102L38.2693 20.15L38.5829 20.1772L38.9053 20.1836L39.2253 20.1676L39.5309 20.1308L39.8093 20.0748L40.0493 20.0012L40.5989 19.7988L40.8805 19.67L41.4389 19.2828L41.6981 19.098L42.2013 18.5468L42.3757 18.314L42.7693 17.6348L43.0117 16.8876L43.0573 16.6052L43.0821 15.4276L43.0893 10.6812L43.0821 5.93476Z" fill="white"/>
<path d="M39.8281 20.1464C40.0702 19.8726 40.2549 19.5529 40.3711 19.2063C40.4873 18.8597 40.5327 18.4933 40.5045 18.1288C40.4992 15.4118 40.5162 12.6947 40.5081 9.97763C40.5049 8.92033 40.4868 7.86134 40.4209 6.80644C40.3222 5.95904 40.0102 5.15053 39.5139 4.45653C39.0624 3.74299 38.5341 3.0781 38.0408 2.39092C37.9932 2.32402 37.9504 2.25387 37.9126 2.18097C37.6492 1.67738 37.7223 1.60025 38.2745 1.52835C39.1868 1.3696 40.126 1.51998 40.9432 1.95565C41.5836 2.25721 42.1273 2.73134 42.5132 3.3248C42.8992 3.91826 43.112 4.60753 43.1278 5.31523C43.1676 9.06613 43.1569 12.8179 43.1188 16.5688C43.09 17.1088 42.94 17.6354 42.6799 18.1095C42.4199 18.5835 42.0564 18.993 41.6165 19.3074C41.1041 19.7389 40.4874 20.0282 39.8281 20.1464Z" fill="#B6DBA8"/>
<path d="M38.9282 20.6621L38.2274 20.6274L37.5992 20.5L36.7305 20.1778L36.4219 20.0067L35.7977 19.5766C35.7754 19.5614 35.7545 19.5443 35.7352 19.5254L35.5375 19.3328L34.9969 18.7426C34.9738 18.717 34.9534 18.6891 34.9359 18.6594L34.5492 17.9914L34.4117 17.6715L34.1531 16.8785C34.1383 16.834 34.1304 16.7875 34.1297 16.7406L34.1047 15.5637L34.0977 10.8082L34.1297 4.87381L34.1805 4.525L34.4406 3.7059C34.4509 3.67372 34.4645 3.6427 34.4812 3.61333L35.0804 2.65394L35.6148 2.06683C35.6375 2.04192 35.6626 2.0194 35.6898 1.99963L36.5125 1.42424C36.5359 1.40778 36.5607 1.39353 36.5867 1.38166L36.868 1.25314L37.7172 0.955112L38.3828 0.844572L38.7375 0.826172L39.4391 0.860942L40.0664 0.988282L40.9352 1.31054L41.2438 1.48164L41.868 1.91133C41.8904 1.92654 41.9113 1.94381 41.9305 1.96289L42.1282 2.15591L42.6688 2.74576C42.6916 2.77124 42.7118 2.79899 42.7289 2.82857L43.1164 3.49614L43.2547 3.81725L43.5133 4.61021C43.5275 4.65471 43.5351 4.701 43.536 4.7477L43.561 5.92471V5.934L43.5688 10.6797L43.536 16.6145L43.4852 16.9633L43.225 17.7824C43.2147 17.8146 43.2011 17.8456 43.1844 17.875L42.5852 18.834L42.0508 19.4215C42.0282 19.4464 42.0031 19.4689 41.9758 19.4887L41.1547 20.0641C41.131 20.0804 41.1059 20.0946 41.0797 20.1067L40.7977 20.2352L39.9493 20.5332L39.2829 20.6438L38.9282 20.6621ZM36.3758 18.8094L37.1422 19.3137L38.0969 19.6368L38.6235 19.6985L38.9141 19.7028L39.7141 19.6036L40.6406 19.252L41.3766 18.7364L41.9907 18.0262L42.3274 17.4387L42.5821 16.5286L42.6016 15.4165L42.6094 10.6797L42.5782 4.8383L42.2586 3.92151L41.9258 3.35629L41.2899 2.67854L40.5235 2.17464L39.5696 1.85159L39.0414 1.78951L38.7524 1.78561L37.9532 1.88443L37.0258 2.23639L36.2891 2.75201L35.6751 3.46178L35.3383 4.04928L35.0836 4.95981L35.0641 6.07151L35.0571 10.8083L35.0876 16.6497L35.4079 17.5661L35.7399 18.1325L36.3758 18.8094Z" fill="#5DA845"/>
<path d="M54.0912 13.6332L53.9736 12.8164L53.8776 12.6916L53.6296 11.9564L53.52 11.8332L53.3704 11.6772L53.1872 11.4948L53.0096 11.062L52.9024 10.9588L52.7856 10.8492L52.664 10.738L52.5416 10.6292L52.424 10.5276L52.0392 10.446L51.8248 10.2668L51.6368 10.1148L51.4808 9.99557L50.7584 9.84517L50.5888 9.72757L49.7832 9.70117L48.9792 9.83797L48.8192 9.75157L48.0304 10.0364L47.3096 10.4708L46.6848 11.038L46.6128 11.0444L46.1104 11.7228L45.7496 12.486L45.5456 13.3052L45.5 14.1572L45.5344 15.1188L45.6168 16.198L45.7296 17.3732L45.8488 18.5692L45.8496 18.5764L45.8528 18.5796L45.8552 18.582L45.8592 18.5852L45.8632 18.5884L45.872 18.5956L45.8768 18.5996L45.8824 18.6036L45.8864 18.6068L45.8904 18.61L45.892 18.6108L45.8952 18.614L45.8968 18.6148L45.8864 18.606L45.8968 18.6148L46.24 18.578L45.8968 18.6148L46.9736 18.5004L48.0424 18.41L49.0544 18.3308L49.98 18.246L50.0304 18.2412L50.8744 18.1068L51.6704 17.822L52.3952 17.3868L53.0208 16.8196L53.5232 16.1412L53.8832 15.378L54.088 14.5596L54.0448 14.4612L54.0912 13.6332Z" fill="white"/>
<path d="M50.6642 18.2097C50.8592 18.083 51.0216 17.9122 51.1383 17.7111C51.255 17.5099 51.3227 17.2842 51.3359 17.052C51.4976 15.9281 51.3853 14.7817 51.0085 13.7105C50.5564 12.6432 49.9889 11.6285 49.316 10.6846C49.1807 10.4478 49.0857 10.1881 48.9492 9.88854C49.6992 9.71244 50.4829 9.74234 51.2173 9.97514C51.9517 10.208 52.6095 10.635 53.121 11.211C53.6326 11.7871 53.9788 12.4908 54.1232 13.2475C54.2676 14.0043 54.2046 14.786 53.941 15.5099C53.6856 16.2115 53.247 16.8319 52.6708 17.3067C52.0945 17.7814 51.4017 18.0932 50.6642 18.2097Z" fill="#B6DBA8"/>
<path d="M45.8929 19.0954C45.8183 19.0954 45.7448 19.078 45.6781 19.0446C45.6527 19.0317 45.6284 19.0168 45.6054 19C45.5899 18.9891 45.575 18.9772 45.5609 18.9645L45.5507 18.9559C45.4997 18.9158 45.4573 18.8659 45.426 18.809C45.3947 18.7522 45.3752 18.6896 45.3687 18.625L45.0515 15.1559L45.0156 14.1758L45.0632 13.2797C45.0645 13.2495 45.069 13.2195 45.0765 13.1903L45.2796 12.3715C45.2868 12.3406 45.2975 12.3105 45.3116 12.2821L45.6726 11.5188C45.686 11.4905 45.702 11.4634 45.7202 11.4379L46.2234 10.7594C46.2423 10.7343 46.2635 10.7111 46.2866 10.6899L46.9124 10.1226C46.9358 10.1014 46.9612 10.0826 46.9882 10.0663L47.7124 9.63165C47.7394 9.61535 47.7679 9.60195 47.7976 9.59135L48.5937 9.30625C48.6233 9.29555 48.6539 9.28795 48.6851 9.28355L49.5226 9.15895C49.5699 9.15015 49.6182 9.14685 49.6663 9.14915L50.5007 9.19055C50.5326 9.19215 50.5643 9.19685 50.5953 9.20465L51.4046 9.41015C51.4356 9.41785 51.4658 9.42885 51.4945 9.44295L52.246 9.80425C52.282 9.82195 52.317 9.84165 52.3507 9.86325C52.3546 9.86595 52.3781 9.88195 52.3984 9.89645C52.4085 9.90305 52.4187 9.91015 52.4281 9.91755L52.9999 10.3606L53.4468 10.8258L53.4499 10.8289L53.589 10.9781C53.5984 10.9883 53.6398 11.0426 53.6484 11.0539L54.1015 11.793C54.1117 11.8098 54.1406 11.8723 54.1492 11.8902L54.4492 12.7199C54.4601 12.7494 54.468 12.7799 54.4726 12.8109L54.5984 13.6453C54.6031 13.6765 54.6046 13.708 54.6031 13.7395L54.5632 14.5825C54.5617 14.614 54.557 14.6452 54.5492 14.6758L54.3453 15.4946C54.3376 15.525 54.3271 15.5547 54.314 15.5832L53.9539 16.3469C53.9402 16.3753 53.924 16.4024 53.9054 16.4278L53.4031 17.1059C53.3841 17.1313 53.3626 17.1549 53.339 17.1762L52.7125 17.7438C52.6895 17.7649 52.6643 17.7837 52.6375 17.7997L51.9133 18.2341C51.8863 18.2503 51.8578 18.2638 51.8281 18.2743L51.032 18.5595C51.0041 18.5695 50.9753 18.577 50.9461 18.5817L50.1023 18.7161C50.0914 18.7177 50.0305 18.7235 50.0195 18.7247L45.9437 19.0927C45.9269 19.0946 45.9099 19.0954 45.8929 19.0954ZM46.0187 13.3774L45.9742 14.1844L46.0101 15.1016L46.2796 18.0914L49.932 17.7684L50.7515 17.6403L51.4601 17.3864L52.1031 17.0004L52.6593 16.4965L53.1054 15.8946L53.425 15.2164L53.6062 14.4899L53.6414 13.7414L53.5296 13.0008L53.2601 12.2504L52.771 11.5067L52.75 11.4852L52.357 11.07L51.8437 10.6794L51.8421 10.6778L51.121 10.3285L50.4054 10.1468L49.6194 10.1078L48.8749 10.2255L48.1655 10.4794L47.5226 10.8653L46.9663 11.3692L46.5202 11.9719L46.1999 12.6493L46.0187 13.3774Z" fill="#5DA845"/>
<path d="M30.6128 6.0899L30.4688 5.4187L30.1664 4.7963L29.992 4.3723L29.5392 3.81391L28.964 3.36591L28.6696 3.04991L28.0104 2.74751L27.288 2.59711L26.5288 2.60271L26.2376 2.46191L25.5344 2.65551L25.2528 2.61711L24.9288 2.65231L24.4448 3.00111L24.2016 3.07551L23.9472 3.19711L23.6912 3.36111L23.444 3.56111L23.2144 3.78991L23.012 4.03791L22.844 4.2963L22.7168 4.5547L22.636 4.8035L22.3032 5.2683L22.2568 5.6019L22.0664 6.2123L22.1008 6.5843L22.0808 7.2787L22.2248 7.9491L22.3888 8.3491L22.7016 8.9963L23.1536 9.5547L23.4544 9.8771L24.024 10.3187L24.4272 10.5147L25.0624 10.8051L25.7472 10.9379L26.1688 10.9955L26.8216 10.9611L27.2336 10.9163L27.88 10.7987L28.6072 10.6219L29.404 10.4059L30.228 10.1771L30.232 10.1763L30.236 10.1739L30.2408 10.1707L30.2448 10.1675L30.2496 10.1635L30.2528 10.1587L30.256 10.1539L30.2584 10.1483L30.26 10.1435L30.2608 10.1387L30.3424 9.3699L30.4368 8.6723L30.5064 8.1819L30.552 7.8491L30.6344 7.1619L30.6528 6.5275L30.6128 6.0899Z" fill="white"/>
<path d="M27.6487 10.8797C27.8623 10.6013 28.0187 10.2834 28.1087 9.94414C28.1987 9.60504 28.2205 9.25144 28.1731 8.90374C28.1144 7.49064 27.6177 6.13084 26.7517 5.01264C26.275 4.38254 25.7806 3.76571 25.2935 3.14347C25.074 2.8631 25.1444 2.69685 25.4881 2.62608C26.0926 2.48166 26.7217 2.47392 27.3296 2.60343C27.9375 2.73293 28.5088 2.99641 29.002 3.37468C29.6759 3.87544 30.1902 4.56084 30.4826 5.34794C30.775 6.13494 30.8329 6.98994 30.6494 7.80924C30.539 8.53034 30.4637 9.25684 30.3601 9.97924C30.3452 10.0828 30.2801 10.2422 30.205 10.2646C29.3801 10.5102 28.5486 10.7336 27.7188 10.9631L27.6487 10.8797Z" fill="#B6DBA8"/>
<path d="M26.1687 11.4749C26.1471 11.4748 26.1255 11.4733 26.104 11.4706L24.9711 11.276C24.9336 11.2689 24.8972 11.2572 24.8625 11.2413L23.8141 10.7506C23.784 10.7359 23.7555 10.7183 23.7289 10.6979L23.1594 10.2561L22.8024 9.88103L22.3281 9.29823C22.3046 9.26963 22.2846 9.23833 22.2688 9.20483L21.7805 8.13103C21.7695 8.10463 21.7609 8.07733 21.7547 8.04943L21.611 7.37833L21.5625 6.88373L21.5867 6.19233L21.6492 5.72203C21.6534 5.69383 21.6599 5.66593 21.6688 5.63883L21.9664 4.75053L22.1742 4.32013L22.4461 3.8951L22.7703 3.49314L23.1359 3.12478L23.5328 2.80095L23.9476 2.53182L24.3695 2.32674L25.3265 1.99861C25.3554 1.98979 25.3849 1.98363 25.4148 1.98021L26.4945 1.89388C26.526 1.89141 26.5578 1.89246 26.5891 1.89701L27.7218 2.09154C27.7593 2.09867 27.7958 2.11034 27.8304 2.1263L28.8789 2.61771C28.909 2.63212 28.9377 2.64966 28.9641 2.67006L29.5336 3.11185C29.5539 3.12784 29.5729 3.14534 29.5906 3.16419L29.8906 3.48646L30.364 4.06927C30.3876 4.09797 30.4076 4.12945 30.4235 4.16302L30.9117 5.23603C30.9226 5.26233 30.9313 5.28953 30.9375 5.31733L31.0821 5.98843L31.1304 6.48373L31.114 7.17513L30.7384 10.1893C30.7351 10.2215 30.7284 10.2533 30.7188 10.2842C30.711 10.3018 30.675 10.3885 30.6649 10.4049C30.6507 10.4278 30.6352 10.4498 30.6181 10.4705C30.5929 10.5004 30.5645 10.5275 30.5336 10.5514C30.4815 10.5838 30.4269 10.612 30.3704 10.6358L27.9938 11.2647L26.8742 11.4381L26.1938 11.474L26.1687 11.4749ZM25.2102 10.3444L26.1883 10.5131L27.1813 10.4385L27.7945 10.326L29.8156 9.79313L30.1578 7.10453L30.1727 6.51343L30.1344 6.13303L30.0086 5.56273L29.5836 4.63073L28.9148 3.84709L28.4148 3.4592L27.4828 3.02326L26.5071 2.8549L25.5649 2.9299L24.7438 3.20959L24.4125 3.36935L24.093 3.57834L23.7766 3.83771L23.4813 4.13615L23.2203 4.45993L23.0071 4.79353L22.8508 5.11893L22.5946 5.89593L22.5422 6.27753L22.5203 6.85993L22.5586 7.23453L22.6844 7.80523L22.8321 8.16703L23.1086 8.73653L23.8055 9.54983L24.2758 9.90763L25.2102 10.3444Z" fill="#5DA845"/>
</g>
<defs>
<clipPath id="clip0_25_3003">
<rect width="69" height="67" fill="white" transform="translate(0.65625 0.171875)"/>
</clipPath>
</defs>
</svg>
