<svg width="79" height="67" viewBox="0 0 79 67" fill="none" xmlns="http://www.w3.org/2000/svg">
<g clip-path="url(#clip0_25_2967)">
<path d="M6.33474 0.837891L4.82514 5.0363L1.08594 7.1499L5.09874 8.1787L6.90114 12.2755L8.55314 7.7939L12.1435 5.8779L8.19474 4.6619L6.33474 0.837891Z" fill="white"/>
<path d="M9.12321 6.6472C8.92458 6.5503 8.79972 6.4763 8.66589 6.4263C7.89411 6.138 7.94429 6.1359 7.87812 5.3118C7.81926 4.5787 7.62878 3.8563 7.50022 3.12844C7.38715 2.57423 7.32495 2.01084 7.31439 1.44531C7.5829 2.15719 7.80328 2.88629 7.97404 3.6277C7.98199 3.8274 8.02998 4.0235 8.11518 4.2043C8.20037 4.3851 8.32103 4.547 8.46998 4.6803C8.61894 4.8136 8.79316 4.9156 8.98229 4.9802C9.17143 5.0448 9.37163 5.0708 9.57103 5.0566C10.3266 5.1417 11.0728 5.2962 11.8001 5.5179C12.0679 5.6252 12.3229 5.7621 12.5602 5.9262C12.2967 6.09 12.1299 6.2163 11.945 6.3049C10.9979 6.7587 10.0519 7.2154 9.0938 7.645C8.87453 7.7348 8.67968 7.8754 8.52522 8.0551C8.37077 8.2348 8.26111 8.4486 8.20524 8.6789C7.90815 9.7629 7.55542 10.8308 7.14844 11.8785C7.23489 11.4533 7.29484 11.0206 7.41317 10.6045C7.74127 9.6667 7.96854 8.6966 8.09115 7.7107C8.10597 7.4888 8.42949 7.281 8.62458 7.08C8.76185 6.9386 8.92238 6.8197 9.12321 6.6472Z" fill="#F5A2C5"/>
<path d="M6.88483 12.7558C6.64538 12.7558 6.53914 12.6214 6.12546 12.098C6.09791 12.0624 6.07518 12.0232 6.05788 11.9816C6.01765 11.8824 5.14188 9.73005 4.73952 8.60035C4.00437 8.45815 2.22352 8.08315 1.37546 7.90425C1.31352 7.89145 1.2547 7.86665 1.20239 7.83105C1.15007 7.79555 1.10531 7.75005 1.07065 7.69715C1.036 7.64425 1.01214 7.58495 1.00045 7.52285C0.988769 7.46065 0.989479 7.39685 1.00255 7.33495C1.01563 7.27305 1.0408 7.21435 1.07663 7.16225C1.11246 7.11015 1.15823 7.06565 1.21133 7.03125C1.26442 6.99695 1.32378 6.97335 1.386 6.96205C1.44821 6.95065 1.51206 6.95175 1.57386 6.96515C2.85668 7.23625 4.96371 7.67535 5.1555 7.70185C5.24574 7.71375 5.33095 7.75035 5.40174 7.80755C5.47252 7.86475 5.52614 7.94035 5.55668 8.02605C5.81488 8.80105 6.52621 10.5777 6.81878 11.3027C6.93871 10.9285 7.06293 10.4699 7.16019 10.1104C7.55121 8.66435 7.82035 7.76125 8.25824 7.41675C8.82478 7.09105 9.41318 6.80495 10.0192 6.56045C10.7453 6.28225 11.4385 5.92465 12.086 5.49405C12.1365 5.45635 12.1939 5.42885 12.255 5.41335C12.3161 5.39775 12.3796 5.39435 12.442 5.40335C12.5044 5.41235 12.5644 5.43355 12.6186 5.46575C12.6728 5.49795 12.7201 5.54045 12.7579 5.59095C12.7956 5.64145 12.8231 5.69885 12.8386 5.75995C12.8542 5.82105 12.8576 5.88455 12.8486 5.94695C12.8396 6.00935 12.8184 6.06935 12.7862 6.12355C12.754 6.17775 12.7115 6.22505 12.661 6.26285C11.9543 6.74085 11.1952 7.13635 10.3985 7.44175C9.85028 7.66235 9.31677 7.91785 8.80121 8.20655C8.4859 8.89685 8.24635 9.61935 8.08676 10.3613C7.9505 11.15 7.67075 11.9071 7.26137 12.5949C7.17746 12.6892 7.05964 12.7465 6.93363 12.7543C6.91686 12.7558 6.90046 12.7558 6.88483 12.7558Z" fill="#ED1E71"/>
<path d="M1.4727 7.91432C1.37016 7.91452 1.2703 7.88161 1.1879 7.82061L1.12306 7.77372C0.971861 7.66352 0.684391 7.44872 0.631651 7.39562C0.586991 7.35051 0.551681 7.29711 0.527741 7.23841C0.503811 7.17971 0.491731 7.11681 0.492201 7.05341C0.492581 6.96262 0.514831 6.87321 0.557051 6.79291C0.599281 6.71251 0.660241 6.64351 0.734781 6.59171C1.71593 6.02391 2.72762 5.51061 3.76525 5.05421C4.63478 4.66672 4.63478 4.66672 4.93908 3.60572C5.12423 2.96043 5.40431 1.98544 5.96173 0.461211C5.98937 0.385601 6.03559 0.31817 6.09613 0.265111C6.16674 0.202521 6.25138 0.157851 6.3429 0.134881C6.43441 0.111901 6.53011 0.111301 6.62191 0.133111C6.75902 0.182331 6.92973 0.24327 7.49105 1.2628C7.86684 2.2612 8.41058 3.71512 8.62425 4.26981C8.81176 4.30581 9.06176 4.34402 9.32113 4.38391C11.0683 4.65421 12.4343 4.91982 12.8023 5.66592C12.8568 5.77762 12.8649 5.90621 12.825 6.02391C12.785 6.14151 12.7002 6.23862 12.589 6.29401C12.4758 6.35032 12.3452 6.36061 12.2245 6.32271C12.1038 6.28491 12.0025 6.20182 11.9417 6.09092C11.7409 5.72922 9.87659 5.44092 9.17464 5.33312C8.82713 5.28762 8.48215 5.22451 8.14104 5.14401C8.07354 5.12511 8.01102 5.09162 7.9579 5.04581C7.90478 5.00001 7.86236 4.94321 7.83361 4.87921C7.7383 4.66671 6.80666 2.16128 6.62073 1.66129C6.60745 1.63785 6.59338 1.61362 6.57893 1.5894C6.21604 2.63628 6.00861 3.35892 5.86213 3.87062C5.45821 5.27771 5.36252 5.39332 4.15587 5.93082C3.64962 6.15662 2.92227 6.48081 1.80821 7.09101C1.87656 7.15761 1.92348 7.24311 1.94296 7.33662C1.96244 7.43002 1.9536 7.52722 1.91758 7.61561C1.88155 7.70401 1.81997 7.77972 1.74072 7.83291C1.66147 7.88611 1.56814 7.91452 1.47267 7.91441L1.4727 7.91432Z" fill="#ED1E71"/>
<path d="M72.2792 2.53223C72.6006 3.58291 72.9031 4.54101 73.1823 5.50581C73.2019 5.61701 73.2581 5.71841 73.342 5.79401C73.4258 5.86961 73.5326 5.91491 73.6452 5.92281C74.5534 6.07381 75.4622 6.22861 76.3602 6.42921C76.7064 6.53981 77.0412 6.68311 77.3602 6.85731L77.353 6.99321C77.1746 7.10101 77.0036 7.22421 76.8166 7.31411C75.8445 7.78151 74.871 8.24611 73.8923 8.69951C73.7207 8.77441 73.5685 8.88741 73.4471 9.02991C73.3257 9.17241 73.2383 9.34061 73.1915 9.52191C72.8711 10.609 72.5378 11.694 72.1913 12.7767C72.2527 11.6539 71.6456 10.6921 71.4674 9.63671C71.4371 9.37011 71.3175 9.12161 71.128 8.93161C70.9385 8.74151 70.6903 8.62121 70.4238 8.59021C70.1451 8.50111 69.8718 8.39571 69.6055 8.27441C70.0829 7.88841 70.5256 7.54421 70.9508 7.17961C71.1274 7.05281 71.269 6.88341 71.3626 6.68721C71.659 5.80091 71.9495 4.90981 72.1736 4.00351C72.2504 3.51701 72.2858 3.02477 72.2792 2.53223Z" fill="#F5A2C5"/>
<path d="M71.4094 2.53223C71.4094 2.53223 71.0874 6.15871 68.4739 6.73751C65.8605 7.31621 66.663 8.23421 66.663 8.23421C66.663 8.23421 69.1291 8.33861 69.7755 9.18231C70.5123 10.5151 71.1381 11.9062 71.6464 13.3417C71.6464 13.3417 72.4473 9.56141 73.3922 8.84731C74.4591 8.15091 75.5707 7.52571 76.72 6.97581C75.3105 6.81391 74.0217 6.10301 73.1329 4.99711C72.4778 4.23491 71.9004 3.40921 71.4094 2.53223Z" fill="white"/>
<path d="M71.8625 13.663C71.757 13.6589 71.6536 13.632 71.5594 13.5841C71.4669 13.5432 71.3898 13.474 71.3391 13.3865C71.2953 13.3099 70.1555 10.7209 69.7274 9.55912C68.7531 9.31852 65.9649 8.55442 65.818 8.47942C65.7387 8.43952 65.6721 8.37832 65.6256 8.30272C65.5791 8.22711 65.5546 8.14012 65.5547 8.05132V8.00372C65.5546 7.91892 65.5769 7.83572 65.6195 7.76242C65.662 7.68912 65.7232 7.62842 65.7969 7.58652C66.7587 7.03172 67.7495 6.52862 68.7649 6.07952C69.6321 5.69122 69.6321 5.69122 69.9282 4.65452C70.1102 4.02012 70.3844 3.06152 70.9336 1.56152C70.9622 1.48368 71.0104 1.41452 71.0735 1.36072C71.1562 1.2883 71.2585 1.24195 71.3675 1.2275C71.4764 1.21304 71.5873 1.23112 71.686 1.27946L71.7672 1.33025C71.8094 1.35676 71.847 1.38971 71.879 1.4279C72.3952 2.46195 72.8566 3.52252 73.261 4.60522C73.3821 4.88962 73.486 5.13411 73.5571 5.30132C74.9204 5.58881 76.2615 5.97282 77.5704 6.45052C77.6261 6.49722 77.6705 6.55592 77.7001 6.62222C77.7297 6.68851 77.7439 6.76072 77.7415 6.83332C77.7376 6.95622 77.6977 7.07522 77.6266 7.17552C76.9171 7.71562 76.1273 8.14112 75.286 8.43652C74.7433 8.66242 74.2152 8.92172 73.7047 9.21312C73.4373 9.85652 73.2235 10.521 73.0656 11.1998C72.9173 12.0083 72.6333 12.7859 72.2258 13.4998C72.1416 13.5952 72.0231 13.6533 71.8961 13.6615C71.8844 13.6623 71.8735 13.663 71.8625 13.663ZM67.2266 7.89432C68.3407 8.20442 69.9696 8.64662 70.1563 8.67792C70.2444 8.69262 70.3271 8.73042 70.3959 8.78732C70.4648 8.84422 70.5174 8.91832 70.5485 9.00212C70.7578 9.63182 71.3953 11.1263 71.8125 12.0849C71.9274 11.7162 72.0461 11.2865 72.1407 10.9443C72.2913 10.0874 72.5974 9.26532 73.0438 8.51852C73.6217 8.13222 74.2409 7.81152 74.8899 7.56232C75.2571 7.39592 75.7571 7.17012 76.1696 6.96692C75.1789 6.68492 73.6446 6.28572 73.1227 6.18732C73.0458 6.17252 72.9736 6.13922 72.9123 6.09042C72.8511 6.04152 72.8026 5.97852 72.7711 5.90682C72.7399 5.83332 72.5836 5.46542 72.3774 4.98022C72.1321 4.40212 71.7657 3.53882 71.4852 2.88024C71.1711 3.80132 70.9852 4.44972 70.8516 4.91852C70.4555 6.30292 70.3602 6.41692 69.1578 6.95602C68.7188 7.15212 68.111 7.42402 67.2266 7.89432Z" fill="#ED1E71"/>
<path d="M10.4728 25.9783C10.4728 25.9783 8.8415 56.7119 10.5618 58.6523C12.282 60.5928 61.5075 51.5034 61.5075 51.5034L62.2264 17.9014L10.4728 25.9783Z" fill="white"/>
<path d="M11.5651 17.0854C11.5651 17.0854 10.0664 18.3795 10.5611 23.5035L62.2256 15.2637L61.6416 9.49805L11.5651 17.0854Z" fill="white"/>
<path d="M7.896 14.3268C7.896 14.3268 6.25177 15.3658 6.7624 20.7199L58.1302 12.7771L58.1246 7.48147C58.1244 7.31837 58.0888 7.15727 58.0202 7.00927C57.9517 6.86127 57.8518 6.72997 57.7275 6.62437C57.6032 6.51877 57.4575 6.44147 57.3004 6.39767C57.1433 6.35397 56.9785 6.34487 56.8175 6.37107L7.896 14.3268Z" fill="white"/>
<path d="M6.76597 23.3584V54.5878C6.76597 54.5878 6.69695 55.9384 8.51869 56.5808L59.7702 49.2571L58.1275 15.917L6.76597 23.3584Z" fill="white"/>
<path d="M61.5847 17.8186C58.3207 18.3386 55.0567 18.8667 51.7927 19.3787C45.0967 20.4427 38.406 21.5066 31.7207 22.5707C25.1607 23.6107 18.6007 24.6559 12.0407 25.7066C11.5127 25.7946 10.9927 25.8907 10.4727 25.9787C10.4727 26.0427 10.4807 26.0986 10.4807 26.1546C10.7204 26.1706 10.961 26.1706 11.2007 26.1546C14.2087 25.6826 17.214 25.2054 20.2167 24.7227C23.7927 24.1547 27.3634 23.5866 30.9287 23.0187C32.7287 22.7306 34.5234 22.4454 36.3127 22.1627C36.5447 22.1227 36.7607 22.0507 36.7847 22.4347C36.8727 23.7627 37.0487 25.0906 37.0567 26.4186C37.0727 27.8986 36.9847 29.3867 36.8727 30.8587C36.7607 32.3307 36.5847 33.8027 36.3847 35.2586C36.013 37.8918 35.4052 40.4863 34.5687 43.0106C33.9367 44.9066 33.2567 46.7947 32.4487 48.6187C31.5447 50.6586 30.4807 52.6266 29.4647 54.6186C29.1127 55.3066 28.6967 55.9706 28.2647 56.7226C28.5287 56.6987 28.6727 56.6906 28.8167 56.6666C31.9047 56.1786 34.99 55.688 38.0727 55.1946C45.3767 54.0266 52.6807 52.856 59.9847 51.6826C60.6551 51.6295 61.277 51.3122 61.7135 50.8007C62.1501 50.2891 62.3656 49.6251 62.3127 48.9546C62.3207 38.7946 62.3207 28.632 62.3127 18.4667C62.3127 17.8747 62.1687 17.7306 61.5847 17.8186ZM49.7127 40.8827C49.5664 41.4521 49.3737 42.0086 49.1367 42.5467C49.0663 42.6862 48.9466 42.7945 48.8007 42.8506C48.3527 43.0666 47.8887 43.2427 47.2967 43.4907C47.8487 43.6347 48.2647 43.7306 48.6807 43.8506C48.8087 43.8826 49.0087 43.9547 49.0247 44.0427C49.1607 44.7707 49.2727 45.5147 49.3767 46.2507C49.3847 46.2987 49.3207 46.3627 49.2247 46.5547C49.0642 46.3436 48.9274 46.1156 48.8167 45.8747C48.6508 45.4496 48.5353 45.0066 48.4727 44.5547C48.4167 44.0987 48.1687 43.9627 47.7847 43.8906C47.3524 43.8113 46.9251 43.7071 46.5047 43.5786C46.3028 43.4765 46.1124 43.3531 45.9367 43.2106C46.6887 42.8986 47.3287 42.6587 47.9367 42.3547C48.1948 42.2142 48.4019 41.9958 48.5287 41.7306C48.8247 41.0667 49.0487 40.3707 49.3047 39.6667C49.9447 39.9547 49.8087 40.4667 49.7127 40.8827Z" fill="#F5A2C5"/>
<path d="M48.8015 42.851C48.3535 43.067 47.8895 43.243 47.2975 43.491C47.8495 43.635 48.2655 43.731 48.6815 43.851C48.8095 43.883 49.0095 43.955 49.0255 44.043C49.1615 44.771 49.2735 45.515 49.3775 46.251C49.3855 46.299 49.3215 46.363 49.2255 46.555C49.065 46.344 48.9282 46.1159 48.8175 45.875C48.6516 45.45 48.5362 45.0069 48.4735 44.555C48.4175 44.099 48.1695 43.963 47.7855 43.891C47.3532 43.8116 46.9259 43.7074 46.5055 43.579C46.3036 43.4769 46.1132 43.3535 45.9375 43.211C46.6895 42.899 47.3295 42.659 47.9375 42.355C48.1956 42.2145 48.4027 41.9961 48.5295 41.731C48.8255 41.067 49.0495 40.371 49.3055 39.667C49.9455 39.955 49.8095 40.467 49.7135 40.883C49.5672 41.4525 49.3745 42.009 49.1375 42.547C49.0671 42.6865 48.9474 42.7949 48.8015 42.851Z" fill="#F5A2C5"/>
<path d="M62.3122 15.3669L36.4233 19.4973C36.2137 18.5287 36.0282 17.5658 35.7932 16.6151C35.5496 15.6297 35.2601 14.6555 34.9857 13.6778C34.9103 13.4094 34.7356 13.354 34.4596 13.3993C32.4745 13.7255 30.4864 14.0338 28.4996 14.3497C24.4772 14.9894 20.4527 15.6163 16.4339 16.278C14.969 16.5192 13.5186 16.8485 12.0592 17.1251C11.8938 17.1339 11.7278 17.1205 11.5659 17.0854L11.543 16.921C11.9416 16.7723 12.3498 16.6504 12.7648 16.5563C19.0784 15.5355 25.3934 14.5232 31.7096 13.5193C39.2048 12.3253 46.7004 11.1344 54.1965 9.94643C55.941 9.66893 57.6817 9.36743 59.4285 9.10583C60.1895 8.94523 60.983 9.08573 61.6425 9.49803C61.8348 9.60873 61.996 9.76623 62.1113 9.95583C62.2265 10.1454 62.2921 10.3612 62.3019 10.5829C62.3287 12.1542 62.3122 13.7262 62.3122 15.3669Z" fill="#F5A2C5"/>
<path d="M12.5744 59.6813C12.5529 59.6812 12.5314 59.6799 12.51 59.6774L11.5045 59.5579C11.399 59.5454 11.2994 59.5023 11.2182 59.4337C10.958 59.2149 10.3444 58.7024 10.0846 58.4977C10.0064 58.4361 9.94646 58.3542 9.91146 58.261C9.66956 57.5557 9.56766 56.81 9.61146 56.0657L9.60716 25.8407C9.60726 25.711 9.65356 25.5855 9.73766 25.4869C9.82186 25.3882 9.93846 25.3228 10.0666 25.3024L61.7319 17.0626C61.8031 17.0511 61.8759 17.0539 61.946 17.0708C62.0162 17.0877 62.0823 17.1183 62.1405 17.161L62.5506 17.4618C62.6447 17.5309 62.7141 17.6284 62.7487 17.7399C62.7833 17.8514 62.7812 17.971 62.7428 18.0813C62.6655 18.5899 62.7155 22.1032 62.7686 25.8188C63.0405 44.8563 62.7881 50.8696 61.6889 51.5547C61.5698 51.633 61.4289 51.6716 61.2866 51.6649L60.4358 52.0368C60.3934 52.0554 60.3487 52.0686 60.303 52.0758L12.6604 59.6742C12.632 59.6789 12.6032 59.6813 12.5744 59.6813ZM11.7948 58.4946L12.5635 58.5852L60.0623 51.0102C60.7904 50.6915 61.0131 50.5946 61.1186 50.5657C62.0037 48.6626 61.785 33.3047 61.6779 25.8344C61.6061 20.7977 61.5912 18.9415 61.6435 18.1805L10.6979 26.3055V56.1337C10.6699 56.6772 10.7341 57.2216 10.8877 57.7438C11.144 57.9508 11.5397 58.2805 11.7948 58.4946Z" fill="#ED1E71"/>
<path d="M6.76406 21.2653C6.61944 21.2653 6.48074 21.2078 6.37848 21.1056C6.27621 21.0033 6.21876 20.8646 6.21875 20.72V15.7958C6.21873 15.767 6.22108 15.7382 6.22578 15.7098C6.42753 14.9367 6.92445 14.2736 7.60978 13.8629C7.64594 13.8408 7.68446 13.8227 7.72463 13.809L8.85823 13.4294C8.88664 13.42 8.91577 13.4129 8.94533 13.4083L56.0758 5.89104C56.1096 5.88554 56.1439 5.88314 56.1781 5.88394L56.4094 5.88554C57.0781 5.88554 58.1305 5.88164 58.5797 6.55744C58.6392 6.64704 58.671 6.75224 58.6711 6.85984V9.50514C58.6711 9.64974 58.6137 9.78844 58.5114 9.89074C58.4091 9.99294 58.2704 10.0504 58.1258 10.0504C57.9812 10.0504 57.8425 9.99294 57.7402 9.89074C57.6379 9.78844 57.5805 9.64974 57.5805 9.50514V7.09494C57.2045 6.96934 56.8053 6.92874 56.4117 6.97624C56.3336 6.97704 56.261 6.97704 56.1992 6.97544L9.16172 14.4778L8.13555 14.8215C7.75699 15.0654 7.46723 15.4248 7.30937 15.8465V20.0809L10.2883 19.6059C10.359 19.5947 10.4312 19.5974 10.5008 19.614C10.5705 19.6307 10.6361 19.6608 10.6941 19.7028C10.7521 19.7448 10.8012 19.7978 10.8387 19.8588C10.8761 19.9198 10.9012 19.9876 10.9125 20.0583C10.9238 20.129 10.9211 20.2012 10.9044 20.2708C10.8878 20.3404 10.8576 20.4061 10.8156 20.4641C10.7736 20.522 10.7206 20.5712 10.6596 20.6086C10.5986 20.6461 10.5309 20.6712 10.4602 20.6825L6.85 21.2583C6.82159 21.2629 6.79285 21.2653 6.76406 21.2653Z" fill="#ED1E71"/>
<path d="M10.5609 24.0489C10.4163 24.0489 10.2776 23.9914 10.1753 23.8892C10.0731 23.7869 10.0156 23.6482 10.0156 23.5036V21.0411C10.0156 19.6739 10.0156 18.9278 10.0671 18.5216L10.0199 18.5161C10.2161 17.7346 10.7142 17.0628 11.405 16.6481C11.4415 16.6256 11.4804 16.6072 11.521 16.5934L12.6546 16.2129C12.6832 16.2036 12.7124 16.1965 12.7421 16.1918L59.8726 8.67533L61.2109 8.63783C61.322 8.63533 61.4313 8.66663 61.5242 8.72773L62.2148 9.18393C62.6874 9.47693 62.8351 10.2629 62.7726 14.1606C62.7656 14.6247 62.7578 15.1043 62.7679 15.209C62.7819 15.3474 62.7425 15.486 62.6577 15.5962C62.5728 15.7065 62.449 15.7801 62.3117 15.802L10.6469 24.0418C10.6184 24.0465 10.5897 24.0489 10.5609 24.0489ZM11.9339 17.6052C11.5515 17.8515 11.2598 18.2157 11.1027 18.6427C11.1054 18.6637 11.1058 21.5497 11.1062 22.8645L61.6734 14.7997C61.675 14.6278 61.6781 14.413 61.682 14.1427C61.7488 12.7758 61.702 11.4057 61.5422 10.0465L61.0664 9.73243L59.9718 9.75903L12.9586 17.2614L11.9339 17.6052ZM61.6445 10.1129L61.6453 10.1137L61.6445 10.1129Z" fill="#ED1E71"/>
<path d="M8.52695 56.8568C8.22199 56.8637 7.91746 56.8306 7.62109 56.7584C7.54296 56.736 7.47078 56.6965 7.40976 56.6428L6.67383 55.9967C6.5931 55.926 6.53507 55.833 6.50703 55.7295L6.2375 54.7295C6.22508 54.6831 6.21878 54.6353 6.21875 54.5873V23.3584C6.21878 23.2287 6.26505 23.1032 6.34925 23.0046C6.43344 22.9059 6.55004 22.8405 6.67812 22.8201L10.1836 22.2607C10.2543 22.2494 10.3265 22.2522 10.3961 22.2688C10.4658 22.2854 10.5314 22.3156 10.5894 22.3576C10.6474 22.3996 10.6965 22.4526 10.734 22.5136C10.7714 22.5746 10.7965 22.6424 10.8078 22.713C10.8191 22.7837 10.8164 22.8559 10.7997 22.9256C10.7831 22.9952 10.7529 23.0609 10.7109 23.1188C10.6689 23.1768 10.6159 23.2259 10.5549 23.2634C10.4939 23.3009 10.4262 23.326 10.3555 23.3373L7.30937 23.8232V54.5154L7.51719 55.2865L8.02578 55.7326C8.69405 55.7966 9.36828 55.7529 10.0227 55.6029C10.0924 55.5862 10.1647 55.5835 10.2355 55.5949C10.3063 55.6062 10.3741 55.6314 10.4352 55.669C10.4962 55.7066 10.5492 55.7559 10.5912 55.814C10.6331 55.8721 10.6632 55.9379 10.6797 56.0077C10.6962 56.0774 10.6988 56.1498 10.6873 56.2205C10.6758 56.2913 10.6504 56.3591 10.6127 56.42C10.575 56.481 10.5256 56.5339 10.4674 56.5757C10.4091 56.6175 10.3433 56.6475 10.2735 56.6638C9.69938 56.7875 9.11416 56.8522 8.52695 56.8568Z" fill="#ED1E71"/>
<path d="M19.7193 19.49C19.8177 19.3533 19.8742 19.191 19.8822 19.0228C19.8901 18.8546 19.8491 18.6877 19.7641 18.5423C19.6791 18.397 19.5538 18.2794 19.4033 18.2038C19.2528 18.1283 19.0836 18.098 18.9162 18.1167C18.7243 18.13 18.5412 18.2028 18.3926 18.325C18.2439 18.4472 18.137 18.6126 18.0868 18.7984C18.0366 18.9842 18.0455 19.181 18.1123 19.3614C18.1792 19.5419 18.3006 19.697 18.4597 19.8052C18.5619 19.8715 18.6766 19.916 18.7968 19.936C18.9169 19.956 19.0399 19.951 19.158 19.9215C19.2762 19.8919 19.387 19.8383 19.4835 19.7641C19.5801 19.6899 19.6604 19.5966 19.7193 19.49Z" fill="#F5A2C5"/>
<path d="M14.3323 20.2033C14.6055 19.5088 14.1489 18.928 13.3206 19.1247C12.9351 19.2163 12.2345 20.1206 12.9975 20.676C13.1125 20.7497 13.2429 20.7961 13.3786 20.8118C13.5143 20.8274 13.6518 20.8119 13.7806 20.7663C13.9094 20.7207 14.026 20.6463 14.1217 20.5487C14.2173 20.4511 14.2893 20.333 14.3323 20.2033Z" fill="#F5A2C5"/>
<path d="M17.0641 19.768C17.1378 19.6076 17.1599 19.4283 17.1272 19.2548C17.0945 19.0813 17.0087 18.9223 16.8816 18.7998C16.7545 18.6773 16.5925 18.5973 16.4179 18.571C16.2434 18.5447 16.0649 18.5734 15.9074 18.653C15.7686 18.727 15.65 18.8337 15.5617 18.9639C15.4734 19.094 15.4181 19.2437 15.4006 19.4C15.383 19.5563 15.4038 19.7145 15.4611 19.861C15.5184 20.0074 15.6104 20.1378 15.7293 20.2407C15.8437 20.3167 15.9743 20.3651 16.1106 20.3819C16.2469 20.3988 16.3853 20.3837 16.5148 20.3378C16.6443 20.292 16.7613 20.2166 16.8566 20.1177C16.952 20.0188 17.023 19.8991 17.0641 19.768Z" fill="#F5A2C5"/>
<path d="M75.3983 60.4053L75.3775 60.3765L71.9455 57.3861L71.9175 57.3461L71.9079 57.3493L71.9031 57.3189L71.9079 57.2893L71.9175 57.2685L74.9415 53.6029L75.0807 53.2813L75.0967 53.2357L75.0903 53.2125L75.1039 53.1701L75.0951 53.1301L75.0503 52.9437L75.0383 52.8989L75.0199 52.8645L75.0127 52.8445L74.9807 52.8101L74.9503 52.7701L74.9079 52.7341L73.6631 51.8213L73.4383 51.6789L73.4047 51.6685L57.0735 47.6797L56.8287 47.6893L56.7655 47.6965L56.7343 47.7077L56.7039 47.7189L56.6695 47.7405L56.6247 47.7853L56.6007 47.8141L56.5655 47.8645L56.5495 47.9021L56.5431 47.9349L56.5391 47.9653L56.5423 48.0301L56.5687 48.2805L62.9279 64.2093L62.9479 64.2365L63.1167 64.4413L63.1575 64.4789L64.4023 65.3925L64.4559 65.4261L64.4871 65.4389L64.5327 65.4549L64.5839 65.4709L64.7175 65.4813L64.7711 65.4709L64.8103 65.4725L64.8351 65.4661L64.8727 65.4549L64.9135 65.4293L65.1951 65.2349L68.1519 61.7629L70.5223 63.7613L71.7671 64.6749L71.8023 64.6861L72.0407 64.7805L72.0719 64.7669L72.3287 64.7205L72.5527 64.5485L75.3967 61.1749L75.5247 60.9221L75.5255 60.6581L75.5303 60.6277L75.3983 60.4053Z" fill="white"/>
<path d="M71.8859 57.561C73.0065 58.5411 74.0913 59.4883 75.1742 60.4378C75.6299 60.8374 75.6437 61.0994 75.2464 61.57C74.4002 62.5722 73.5546 63.5749 72.7095 64.578C72.3398 65.0166 72.243 65.038 71.8006 64.6708C70.7578 63.8057 69.7257 62.9277 68.689 62.0553C68.5798 61.9634 68.4685 61.8738 68.3391 61.7673C67.3374 62.9407 65.7229 64.7845 65.4865 64.9785C65.3234 64.7003 58.3982 48.4981 58.1328 48.1836C58.9099 48.3704 58.573 48.2879 59.3495 48.4772C63.9334 49.5951 68.5244 50.685 73.0925 51.8639C73.7877 52.1317 74.4218 52.5368 74.957 53.055C75.2617 53.2988 75.0567 53.6704 74.8372 53.9389C73.925 55.0547 73.01 56.1683 72.0923 57.2796C72.0301 57.3553 71.976 57.4376 71.8859 57.561Z" fill="#F5A2C5"/>
<path d="M64.7078 65.959C64.6909 65.9592 64.6739 65.9585 64.657 65.9568L64.5273 65.9395C64.5156 65.9379 64.4555 65.9255 64.4437 65.9232C64.3585 65.9051 64.2766 65.874 64.2008 65.831C64.1914 65.8255 64.1289 65.7849 64.1211 65.7787L62.8766 64.8662C62.8601 64.8552 62.8047 64.8036 62.7906 64.7903L62.5805 64.5419C62.5423 64.4945 62.51 64.4424 62.4844 64.3872L56.125 48.4584C56.1091 48.4174 56.0986 48.3746 56.0937 48.331L56.0672 48.081C56.0664 48.0701 56.0633 47.9935 56.0625 47.9826C56.0641 47.9654 56.0727 47.8512 56.0758 47.834C56.0841 47.7945 56.0954 47.7557 56.1094 47.7177C56.1278 47.6731 56.1497 47.6299 56.175 47.5887C56.1859 47.5739 56.232 47.509 56.2445 47.4957C56.2981 47.4396 56.3547 47.3864 56.414 47.3364C56.5144 47.272 56.6316 47.2388 56.7508 47.2411L57.0125 47.2037C57.0716 47.1954 57.1318 47.1986 57.1898 47.213L73.5211 51.202C73.5826 51.2181 73.6417 51.2422 73.6969 51.2739L73.9219 51.4161L75.1945 52.3465C75.2039 52.3536 75.2554 52.3973 75.264 52.4043C75.3059 52.4399 75.3413 52.4826 75.3687 52.5302C75.3828 52.5452 75.3959 52.561 75.4078 52.5778C75.467 52.6647 75.505 52.7642 75.5187 52.8684L75.5609 53.0755C75.5632 53.088 75.5734 53.1598 75.575 53.1731C75.5907 53.2919 75.5615 53.4124 75.4929 53.5107L75.3617 53.7951C75.3442 53.8325 75.3222 53.8676 75.2961 53.8997L72.5266 57.2544L75.6953 60.0146C75.7221 60.0382 75.7462 60.0646 75.7672 60.0934C75.7766 60.1059 75.8062 60.1481 75.8148 60.1614L75.932 60.3607C75.9804 60.4427 76.008 60.5352 76.0125 60.6302L76.0109 60.9098C76.0108 60.9502 76.0056 60.9904 75.9953 61.0295C75.9855 61.0673 75.9722 61.1042 75.9555 61.1396L75.8273 61.3919C75.8108 61.4252 75.7904 61.4565 75.7664 61.4849L72.9227 64.8575C72.9002 64.884 72.8751 64.9081 72.8477 64.9294L72.6742 65.0623C72.6687 65.0662 72.6125 65.109 72.6062 65.1129C72.5441 65.1565 72.474 65.1873 72.4 65.2036L72.1304 65.252C72.052 65.2672 71.971 65.2618 71.8953 65.2364L71.5945 65.1216C71.5561 65.1063 71.5198 65.0862 71.4867 65.0615L70.2406 64.1482L68.2023 62.4287L65.5594 65.5356C65.532 65.5675 65.5008 65.5959 65.4664 65.6201L65.2008 65.8029C65.1471 65.8502 65.0851 65.8873 65.018 65.9122C64.9574 65.9312 64.8951 65.9446 64.8321 65.9521C64.7908 65.9568 64.7493 65.9591 64.7078 65.959ZM63.3492 63.9637L63.4898 64.1356L64.6781 64.9973L64.8695 64.8654L67.7805 61.445C67.8633 61.3473 67.9815 61.2864 68.1092 61.2755C68.2368 61.2647 68.3636 61.3048 68.4617 61.3872L71.2203 63.6762L72.0883 64.284L72.1172 64.2787L72.2227 64.1989L75.0524 60.7583L75.0141 60.695L71.6649 57.7826C71.6436 57.766 71.6238 57.7476 71.6055 57.7278C71.5758 57.6958 71.5489 57.6614 71.525 57.6248C71.5164 57.6123 71.5086 57.5998 71.5008 57.5873C71.4914 57.5709 71.4719 57.5333 71.4641 57.5153C71.4501 57.4822 71.4398 57.4477 71.4336 57.4122C71.4199 57.3338 71.4217 57.2532 71.4391 57.1754C71.4465 57.1235 71.4629 57.0733 71.4875 57.027C71.5084 56.9887 71.5341 56.9533 71.5641 56.9216L71.5813 56.8965C71.5875 56.8872 71.625 56.8396 71.6321 56.8301L74.5164 53.3364L74.5961 53.1631L74.5812 53.0911L73.2476 52.1247L57.0492 48.1669L57.043 48.1678L63.3492 63.9637Z" fill="#ED1E71"/>
</g>
<defs>
<clipPath id="clip0_25_2967">
<rect width="78" height="66" fill="white" transform="translate(0.328125 0.171875)"/>
</clipPath>
</defs>
</svg>
